<svg xmlns:gliffy="http://www.gliffy.com" xmlns:x="http://ns.adobe.com/Extensibility/1.0/" xmlns:i="http://ns.adobe.com/AdobeIllustrator/10.0/" xmlns:graph="http://ns.adobe.com/Graphs/1.0/" xmlns:a="http://ns.adobe.com/AdobeSVGViewerExtensions/3.0/" xmlns="http://www.w3.org/2000/svg" xmlns:xlink="http://www.w3.org/1999/xlink" width="851" height="453"><rect stroke="#000000" stroke-width="0" fill="#ffffff" x="0" y="0" width="850" height="452"/><defs>    <path d="M0.407,25.017l0.716-0.413c0.19-0.107,0.452-0.094,0.741,0.07L1.15,25.09        C0.86,24.922,0.597,24.908,0.407,25.017z" enable-background="new    " id="SVGIDRack_server_1U_1_"/>    <clipPath id="SVGIDRack_server_1U_2_">        <use overflow="visible" xlink:actuate="onLoad" xlink:href="#SVGIDRack_server_1U_1_" xlink:show="embed" xlink:type="simple" xmlns:xlink="http://www.w3.org/1999/xlink"/>    </clipPath>    <path d="M2.595,27.113l-0.716,0.416c0.187-0.108,0.305-0.337,0.305-0.662        c0.002-0.652-0.464-1.447-1.033-1.777l0.714-0.416c0.572,0.329,1.036,1.125,1.034,1.779        C2.897,26.779,2.782,27.007,2.595,27.113z" enable-background="new    " id="SVGIDRack_server_1U_3_"/>    <clipPath id="SVGIDRack_server_1U_4_">        <use overflow="visible" xlink:actuate="onLoad" xlink:href="#SVGIDRack_server_1U_3_" xlink:show="embed" xlink:type="simple" xmlns:xlink="http://www.w3.org/1999/xlink"/>    </clipPath>    <path d="M0.3,31.133l0.716-0.414c0.19-0.111,0.452-0.094,0.741,0.07l-0.717,0.416        C0.75,31.037,0.49,31.022,0.3,31.133z" enable-background="new    " id="SVGIDRack_server_1U_5_"/>    <clipPath id="SVGIDRack_server_1U_6_">        <use overflow="visible" xlink:actuate="onLoad" xlink:href="#SVGIDRack_server_1U_5_" xlink:show="embed" xlink:type="simple" xmlns:xlink="http://www.w3.org/1999/xlink"/>    </clipPath>    <path d="M2.488,33.229l-0.716,0.416c0.187-0.11,0.302-0.338,0.302-0.662        c0.004-0.652-0.462-1.45-1.033-1.777l0.717-0.416c0.572,0.33,1.036,1.125,1.034,1.779C2.79,32.892,2.675,33.122,2.488,33.229z        " enable-background="new    " id="SVGIDRack_server_1U_7_"/>    <clipPath id="SVGIDRack_server_1U_8_">        <use overflow="visible" xlink:actuate="onLoad" xlink:href="#SVGIDRack_server_1U_7_" xlink:show="embed" xlink:type="simple" xmlns:xlink="http://www.w3.org/1999/xlink"/>    </clipPath>    <path d="M58.236,57.938l0.719-0.411c0.189-0.109,0.449-0.095,0.738,0.072         l-0.714,0.415C58.689,57.846,58.426,57.831,58.236,57.938z" enable-background="new    " id="SVGIDRack_server_1U_11_"/>    <clipPath id="SVGIDRack_server_1U_12_">        <use overflow="visible" xlink:actuate="onLoad" xlink:href="#SVGIDRack_server_1U_11_" xlink:show="embed" xlink:type="simple" xmlns:xlink="http://www.w3.org/1999/xlink"/>    </clipPath>    <path d="M60.426,60.04l-0.718,0.411c0.187-0.105,0.307-0.338,0.307-0.661         c0.002-0.656-0.465-1.449-1.035-1.775l0.714-0.415c0.571,0.327,1.038,1.123,1.036,1.777         C60.729,59.7,60.613,59.933,60.426,60.04z" enable-background="new    " id="SVGIDRack_server_1U_13_"/>    <clipPath id="SVGIDRack_server_1U_14_">        <use overflow="visible" xlink:actuate="onLoad" xlink:href="#SVGIDRack_server_1U_13_" xlink:show="embed" xlink:type="simple" xmlns:xlink="http://www.w3.org/1999/xlink"/>    </clipPath>    <path d="M58.236,64.31l0.719-0.419c0.189-0.106,0.449-0.094,0.738,0.073         l-0.714,0.413C58.689,64.215,58.426,64.195,58.236,64.31z" enable-background="new    " id="SVGIDRack_server_1U_15_"/>    <clipPath id="SVGIDRack_server_1U_16_">        <use overflow="visible" xlink:actuate="onLoad" xlink:href="#SVGIDRack_server_1U_15_" xlink:show="embed" xlink:type="simple" xmlns:xlink="http://www.w3.org/1999/xlink"/>    </clipPath>    <path d="M60.428,66.406l-0.719,0.413c0.186-0.105,0.306-0.333,0.306-0.66         c0.002-0.654-0.465-1.45-1.035-1.782l0.714-0.413c0.571,0.327,1.038,1.128,1.036,1.777         C60.729,66.071,60.614,66.299,60.428,66.406z" enable-background="new    " id="SVGIDRack_server_1U_17_"/>    <clipPath id="SVGIDRack_server_1U_18_">        <use overflow="visible" xlink:actuate="onLoad" xlink:href="#SVGIDRack_server_1U_17_" xlink:show="embed" xlink:type="simple" xmlns:xlink="http://www.w3.org/1999/xlink"/>    </clipPath>    <polygon enable-background="new    " id="SVGIDRack_server_1U_19_" points="4.972,33.474 4.985,29.013 18.725,36.945 18.712,41.406     "/>    <clipPath id="SVGIDRack_server_1U_20_">        <use overflow="visible" xlink:actuate="onLoad" xlink:href="#SVGIDRack_server_1U_19_" xlink:show="embed" xlink:type="simple" xmlns:xlink="http://www.w3.org/1999/xlink"/>    </clipPath>    <polygon enable-background="new    " id="SVGIDRack_server_1U_21_" points="20.458,42.315 20.471,37.854 34.211,45.787 34.198,50.248     "/>    <clipPath id="SVGIDRack_server_1U_22_">        <use overflow="visible" xlink:actuate="onLoad" xlink:href="#SVGIDRack_server_1U_21_" xlink:show="embed" xlink:type="simple" xmlns:xlink="http://www.w3.org/1999/xlink"/>    </clipPath>    <polygon enable-background="new    " id="SVGIDRack_server_1U_23_" points="36.002,51.347 36.015,46.886 49.755,54.818 49.742,59.279     "/>    <clipPath id="SVGIDRack_server_1U_24_">        <use overflow="visible" xlink:actuate="onLoad" xlink:href="#SVGIDRack_server_1U_23_" xlink:show="embed" xlink:type="simple" xmlns:xlink="http://www.w3.org/1999/xlink"/>    </clipPath>    <linearGradient gradientUnits="userSpaceOnUse" id="SVGIDRack_server_1U_9_" x1="4.6094" x2="100" xlink:actuate="onLoad" xlink:show="other" xlink:type="simple" xmlns:xlink="http://www.w3.org/1999/xlink" y1="27.5967" y2="27.5967">		<stop offset="0" style="stop-color:#C5C5C5"/>		<stop offset="1" style="stop-color:#222222"/>		<a:midPointStop offset="0" style="stop-color:#C5C5C5"/>		<a:midPointStop offset="0.5" style="stop-color:#C5C5C5"/>		<a:midPointStop offset="1" style="stop-color:#222222"/>	</linearGradient><linearGradient gradientUnits="userSpaceOnUse" id="SVGIDRack_server_1U_10_" x1="59.8936" x2="60.3415" xlink:actuate="onLoad" xlink:show="other" xlink:type="simple" xmlns:xlink="http://www.w3.org/1999/xlink" y1="67.9395" y2="55.1113">				<stop offset="0" style="stop-color:#000000"/>				<stop offset="0.1297" style="stop-color:#050505"/>				<stop offset="0.2727" style="stop-color:#121212"/>				<stop offset="0.4221" style="stop-color:#282828"/>				<stop offset="0.576" style="stop-color:#474747"/>				<stop offset="0.7333" style="stop-color:#6F6F6F"/>				<stop offset="0.8911" style="stop-color:#9E9E9E"/>				<stop offset="1" style="stop-color:#C4C4C4"/>				<a:midPointStop offset="0" style="stop-color:#000000"/>				<a:midPointStop offset="0.6871" style="stop-color:#000000"/>				<a:midPointStop offset="1" style="stop-color:#C4C4C4"/>			</linearGradient><symbol id="com.gliffy.newnetwork.business.Rack_Server_1U" viewBox="0 0 100 68" preserveAspectRatio="none"><g id="Layer_0">	<rect fill="none" height="68" width="100"/>	<path d="M50.822,53.796c0-0.637,0.454-0.896,1.01-0.577l3.56,2.042c0.553,0.316,1.004,1.097,1.002,1.732   l-0.006,6.744c-0.001,0.637-0.453,0.896-1.006,0.58l-3.548-2.024c-0.558-0.316-1.012-1.1-1.012-1.735V53.796z"/></g><g id="Layer_1">	<rect fill="none" height="68" width="100"/>	<g>		<path d="M4.917,33.282L4.379,33.58c-2.338-1.348-2.39-1.466-2.767-1.663c-0.748-0.392-1.57-1.273-1.57-2.219    c0-0.782-0.039-3.98-0.037-5.541c0-0.337,0.389-0.634,0.393-0.776c1.103-0.83,1.402-1.004,2.5-0.369    C4,23.648,4.972,24.249,4.972,24.249L4.917,33.282z" fill="#DCDCDC"/>		<path d="M3.422,35.209c0,0-2.339-1.193-2.481-1.299c-0.562-0.418-0.928-0.847-0.928-1.684c0-0.839,0-7.892,0-7.892    S0,22.818,1.167,23.49c0.845,0.488,2.274,1.312,2.274,1.312L3.422,35.209z" fill="#ACACAC"/>	</g>	<path d="M3.367,24.76L3.349,35.166l54.118,30.923l0.015-10.295L3.367,24.76z M56.284,63.283   c-0.001,0.579-0.413,0.815-0.915,0.527l-3.226-1.84c-0.504-0.288-0.917-1-0.917-1.578v-6.146c0-0.579,0.413-0.814,0.915-0.525   l3.236,1.856c0.502,0.288,0.913,0.997,0.912,1.575L56.284,63.283z" fill="#373737"/>	<g>		<g a:adobe-knockout="true">			<g a:adobe-knockout="false" enable-background="new    ">				<g>					<polygon fill="#616161" points="0.398,25.84 1.115,25.428 1.482,26.383 0.768,26.799      "/>				</g>				<g>					<polygon fill="#585858" points="0.768,26.799 1.482,26.383 2.235,26.814 1.52,27.23      "/>				</g>				<g>					<polygon fill="#616161" points="0.771,25.311 1.486,24.898 1.115,25.428 0.398,25.84      "/>				</g>				<g enable-background="new    ">					<g clip-path="url(#SVGIDRack_server_1U_2_)" enable-background="new    ">						<path d="M0.407,25.017l0.716-0.413c0.028-0.018,0.056-0.029,0.085-0.039l-0.716,0.415        C0.461,24.99,0.435,25.003,0.407,25.017" fill="#353535"/>						<path d="M0.492,24.979l0.716-0.415c0.022-0.008,0.047-0.015,0.072-0.02l-0.715,0.414        C0.539,24.964,0.516,24.97,0.492,24.979" fill="#373737"/>						<path d="M0.565,24.959l0.715-0.414c0.02-0.002,0.04-0.008,0.059-0.01l-0.714,0.414        C0.604,24.951,0.584,24.955,0.565,24.959" fill="#393939"/>						<path d="M0.625,24.949l0.714-0.414c0.02-0.002,0.036-0.003,0.057-0.003l-0.717,0.415        C0.662,24.947,0.642,24.949,0.625,24.949" fill="#3B3B3B"/>						<path d="M0.679,24.947l0.717-0.415c0.015,0,0.03,0.001,0.048,0.002l-0.717,0.415        C0.712,24.947,0.694,24.947,0.679,24.947" fill="#3D3D3D"/>						<path d="M0.727,24.949l0.717-0.415c0.014,0.001,0.029,0.002,0.047,0.007l-0.717,0.413        C0.759,24.951,0.742,24.949,0.727,24.949" fill="#3F3F3F"/>						<path d="M0.774,24.954l0.717-0.413c0.014,0.002,0.028,0.004,0.043,0.008L0.82,24.962        C0.803,24.959,0.789,24.956,0.774,24.954" fill="#414141"/>						<path d="M0.82,24.962l0.715-0.413c0.016,0.001,0.029,0.006,0.043,0.008L0.863,24.97        C0.847,24.968,0.833,24.964,0.82,24.962" fill="#434343"/>						<path d="M0.863,24.97l0.715-0.413c0.016,0.004,0.03,0.008,0.043,0.012l-0.714,0.415        C0.89,24.979,0.877,24.973,0.863,24.97" fill="#454545"/>						<path d="M0.907,24.983l0.714-0.415c0.013,0.004,0.029,0.009,0.042,0.013l-0.716,0.416        C0.932,24.992,0.919,24.988,0.907,24.983" fill="#474747"/>						<path d="M0.947,24.997l0.716-0.416c0.013,0.004,0.029,0.013,0.042,0.017l-0.716,0.414        C0.976,25.006,0.962,25.001,0.947,24.997" fill="#494949"/>						<path d="M0.989,25.012l0.716-0.414c0.014,0.006,0.027,0.012,0.042,0.018L1.03,25.031        C1.017,25.023,1.004,25.017,0.989,25.012" fill="#4B4B4B"/>						<path d="M1.03,25.031l0.717-0.416c0.013,0.006,0.026,0.012,0.042,0.018l-0.717,0.418        C1.059,25.044,1.043,25.037,1.03,25.031" fill="#4E4E4E"/>						<path d="M1.072,25.051l0.717-0.418c0.013,0.01,0.027,0.018,0.043,0.023L1.115,25.07        C1.102,25.063,1.086,25.057,1.072,25.051" fill="#505050"/>						<path d="M1.115,25.07l0.717-0.414c0.01,0.006,0.021,0.014,0.031,0.018L1.15,25.09        C1.136,25.084,1.125,25.078,1.115,25.07" fill="#525252"/>					</g>				</g>				<g enable-background="new    ">					<g clip-path="url(#SVGIDRack_server_1U_4_)" enable-background="new    ">						<polyline fill="#525252" points="1.15,25.09 1.864,24.674 1.874,24.68 1.16,25.096 1.15,25.09       "/>						<path d="M1.16,25.096l0.714-0.416c0.016,0.012,0.03,0.021,0.044,0.027l-0.715,0.414        C1.187,25.112,1.174,25.104,1.16,25.096" fill="#545454"/>						<path d="M1.203,25.121l0.715-0.414c0.017,0.01,0.031,0.02,0.044,0.032L1.248,25.15        C1.231,25.143,1.217,25.133,1.203,25.121" fill="#565656"/>						<path d="M1.248,25.15l0.714-0.411c0.018,0.009,0.032,0.021,0.046,0.029l-0.717,0.415        C1.276,25.174,1.262,25.16,1.248,25.15" fill="#585858"/>						<path d="M1.291,25.184l0.717-0.415c0.014,0.01,0.031,0.024,0.045,0.036l-0.717,0.412        C1.322,25.206,1.308,25.195,1.291,25.184" fill="#5A5A5A"/>						<path d="M1.336,25.217l0.717-0.412c0.015,0.011,0.032,0.023,0.047,0.037l-0.717,0.414        C1.369,25.244,1.354,25.232,1.336,25.217" fill="#5C5C5C"/>						<path d="M1.383,25.256l0.717-0.414c0.014,0.014,0.031,0.025,0.045,0.041L1.43,25.296        C1.415,25.283,1.401,25.27,1.383,25.256" fill="#5E5E5E"/>						<path d="M1.43,25.296l0.716-0.413c0.015,0.014,0.032,0.027,0.047,0.041l-0.717,0.414        C1.461,25.326,1.446,25.309,1.43,25.296" fill="#606060"/>						<path d="M1.476,25.338l0.717-0.414c0.013,0.015,0.027,0.029,0.043,0.044L1.52,25.383        C1.506,25.367,1.492,25.354,1.476,25.338" fill="#626262"/>						<path d="M1.52,25.383l0.717-0.415c0.013,0.016,0.027,0.029,0.043,0.044l-0.717,0.416        C1.549,25.411,1.534,25.396,1.52,25.383" fill="#646464"/>						<path d="M1.562,25.428l0.717-0.416c0.013,0.018,0.025,0.031,0.041,0.045l-0.717,0.416        C1.59,25.455,1.576,25.441,1.562,25.428" fill="#666666"/>						<path d="M1.604,25.473l0.717-0.416c0.012,0.016,0.025,0.033,0.038,0.047L1.645,25.52        C1.629,25.502,1.617,25.487,1.604,25.473" fill="#787878"/>						<path d="M1.645,25.52l0.714-0.416c0.016,0.016,0.028,0.033,0.041,0.05l-0.717,0.415        C1.67,25.551,1.657,25.534,1.645,25.52" fill="#808080"/>						<path d="M1.682,25.568l0.717-0.415c0.014,0.021,0.032,0.04,0.046,0.061l-0.716,0.414        C1.714,25.605,1.7,25.588,1.682,25.568" fill="#868686"/>						<path d="M1.729,25.628l0.716-0.414c0.024,0.03,0.045,0.062,0.066,0.093l-0.715,0.416        C1.774,25.691,1.752,25.659,1.729,25.628" fill="#8B8B8B"/>						<path d="M1.796,25.723l0.715-0.416c0.029,0.042,0.057,0.086,0.082,0.131l-0.716,0.414        C1.851,25.81,1.823,25.766,1.796,25.723" fill="#8F8F8F"/>						<path d="M1.876,25.852l0.716-0.414c0.016,0.029,0.033,0.057,0.048,0.084l-0.717,0.414        C1.91,25.908,1.894,25.88,1.876,25.852" fill="#8B8B8B"/>						<path d="M1.924,25.936l0.717-0.414c0.01,0.021,0.022,0.041,0.032,0.061l-0.716,0.414        C1.946,25.977,1.937,25.957,1.924,25.936" fill="#868686"/>						<path d="M1.957,25.996l0.716-0.414c0.009,0.019,0.018,0.039,0.025,0.056l-0.714,0.416        C1.973,26.033,1.965,26.016,1.957,25.996" fill="#808080"/>						<path d="M1.984,26.054l0.714-0.416c0.007,0.017,0.017,0.032,0.024,0.05l-0.717,0.413        C1.998,26.085,1.991,26.068,1.984,26.054" fill="#787878"/>						<path d="M2.005,26.101l0.717-0.413c0.006,0.014,0.013,0.032,0.02,0.049l-0.714,0.415        C2.019,26.132,2.012,26.117,2.005,26.101" fill="#666666"/>						<path d="M2.028,26.151l0.714-0.415c0.007,0.015,0.013,0.033,0.022,0.049l-0.717,0.416        C2.04,26.184,2.035,26.167,2.028,26.151" fill="#646464"/>						<path d="M2.047,26.201l0.717-0.416c0.005,0.016,0.012,0.034,0.018,0.051l-0.717,0.415        C2.059,26.232,2.052,26.217,2.047,26.201" fill="#626262"/>						<path d="M2.064,26.251l0.717-0.415c0.006,0.016,0.011,0.034,0.017,0.053l-0.715,0.415        C2.078,26.284,2.07,26.268,2.064,26.251" fill="#606060"/>						<path d="M2.084,26.304l0.715-0.415c0.005,0.018,0.014,0.035,0.019,0.051l-0.716,0.418        C2.096,26.337,2.09,26.319,2.084,26.304" fill="#5E5E5E"/>						<path d="M2.102,26.357l0.716-0.418c0.005,0.021,0.01,0.037,0.015,0.055L2.116,26.41        C2.111,26.393,2.106,26.373,2.102,26.357" fill="#5C5C5C"/>						<path d="M2.116,26.41l0.716-0.416c0.005,0.02,0.01,0.037,0.015,0.056l-0.715,0.413        C2.127,26.445,2.121,26.428,2.116,26.41" fill="#5A5A5A"/>						<path d="M2.132,26.463l0.715-0.413c0.004,0.018,0.008,0.035,0.014,0.053l-0.716,0.416        C2.141,26.498,2.136,26.48,2.132,26.463" fill="#585858"/>						<path d="M2.144,26.519l0.716-0.416c0.004,0.019,0.008,0.035,0.011,0.054L2.155,26.57        C2.151,26.553,2.147,26.537,2.144,26.519" fill="#565656"/>						<path d="M2.155,26.57l0.716-0.414c0.002,0.017,0.006,0.033,0.008,0.051l-0.716,0.416        C2.16,26.605,2.157,26.59,2.155,26.57" fill="#545454"/>						<path d="M2.163,26.623l0.716-0.416c0.003,0.018,0.005,0.033,0.007,0.052l-0.717,0.413        C2.168,26.656,2.165,26.641,2.163,26.623" fill="#525252"/>						<path d="M2.169,26.672l0.717-0.413c0.002,0.017,0.004,0.035,0.005,0.051l-0.714,0.414        C2.176,26.707,2.171,26.689,2.169,26.672" fill="#505050"/>						<path d="M2.178,26.724l0.714-0.414c0.002,0.016,0.003,0.033,0.004,0.05l-0.714,0.413        C2.18,26.758,2.179,26.741,2.178,26.724" fill="#4E4E4E"/>						<path d="M2.182,26.772l0.714-0.413c0.001,0.016,0.001,0.033,0.002,0.049l-0.715,0.414        C2.183,26.807,2.183,26.791,2.182,26.772" fill="#4B4B4B"/>						<path d="M2.183,26.822l0.715-0.414c0,0.014,0,0.031,0,0.045c0,0.002,0,0.002,0,0.004l-0.715,0.414        c0-0.002,0-0.002,0-0.004C2.184,26.854,2.183,26.84,2.183,26.822" fill="#494949"/>						<path d="M2.183,26.871l0.715-0.414c0,0.016,0,0.034-0.001,0.049l-0.714,0.412        C2.183,26.904,2.183,26.889,2.183,26.871" fill="#474747"/>						<path d="M2.183,26.918l0.714-0.412c0,0.016-0.001,0.035-0.002,0.049L2.18,26.968        C2.182,26.952,2.183,26.938,2.183,26.918" fill="#454545"/>						<path d="M2.18,26.968l0.715-0.413c-0.001,0.018-0.003,0.033-0.005,0.049l-0.715,0.414        C2.177,27.001,2.179,26.986,2.18,26.968" fill="#434343"/>						<path d="M2.175,27.018l0.715-0.414c-0.002,0.018-0.005,0.033-0.007,0.049l-0.716,0.414        C2.168,27.051,2.17,27.035,2.175,27.018" fill="#414141"/>						<path d="M2.166,27.066l0.716-0.414c-0.003,0.018-0.006,0.035-0.01,0.051L2.156,27.12        C2.159,27.102,2.163,27.084,2.166,27.066" fill="#3F3F3F"/>						<path d="M2.156,27.12l0.716-0.417c-0.003,0.016-0.008,0.036-0.013,0.053l-0.716,0.415        C2.148,27.152,2.152,27.135,2.156,27.12" fill="#3D3D3D"/>						<path d="M2.143,27.171l0.716-0.415c-0.007,0.017-0.013,0.037-0.02,0.055l-0.713,0.414        C2.132,27.205,2.138,27.188,2.143,27.171" fill="#3B3B3B"/>						<path d="M2.126,27.225l0.713-0.414c-0.007,0.02-0.015,0.039-0.023,0.057L2.1,27.283        C2.109,27.266,2.116,27.244,2.126,27.225" fill="#393939"/>						<path d="M2.1,27.283l0.717-0.416c-0.014,0.025-0.026,0.049-0.039,0.073L2.06,27.352        C2.073,27.332,2.088,27.307,2.1,27.283" fill="#373737"/>						<path d="M2.06,27.352l0.717-0.411c-0.049,0.073-0.109,0.134-0.183,0.173l-0.716,0.416        C1.952,27.488,2.011,27.429,2.06,27.352" fill="#353535"/>					</g>				</g>				<g>					<path d="M1.15,25.09c0.569,0.33,1.035,1.125,1.033,1.777c0,0.656-0.471,0.92-1.042,0.594       c-0.57-0.33-1.037-1.134-1.035-1.787C0.108,25.02,0.578,24.761,1.15,25.09z M1.52,27.23l0.372-0.529l-0.368-0.957l-0.752-0.434       L0.398,25.84l0.369,0.959L1.52,27.23" fill="#373737"/>				</g>			</g>		</g>	</g>	<g>		<g a:adobe-knockout="true">			<g a:adobe-knockout="false" enable-background="new    ">				<g>					<polygon fill="#616161" points="0.292,31.955 1.009,31.541 1.375,32.498 0.661,32.913      "/>				</g>				<g>					<polygon fill="#585858" points="0.661,32.913 1.375,32.498 2.129,32.93 1.413,33.346      "/>				</g>				<g>					<polygon fill="#616161" points="0.665,31.426 1.379,31.014 1.009,31.541 0.292,31.955      "/>				</g>				<g enable-background="new    ">					<g clip-path="url(#SVGIDRack_server_1U_6_)" enable-background="new    ">						<path d="M0.3,31.133l0.716-0.414c0.025-0.018,0.055-0.03,0.085-0.039l-0.716,0.413        C0.354,31.104,0.328,31.119,0.3,31.133" fill="#353535"/>						<path d="M0.385,31.093l0.716-0.413c0.022-0.008,0.048-0.018,0.073-0.023l-0.717,0.418        C0.433,31.079,0.407,31.085,0.385,31.093" fill="#373737"/>						<path d="M0.457,31.074l0.717-0.418c0.018-0.002,0.04-0.004,0.059-0.006l-0.714,0.415        C0.497,31.067,0.478,31.07,0.457,31.074" fill="#393939"/>						<path d="M0.519,31.065l0.714-0.415c0.02-0.002,0.036-0.003,0.054-0.003l-0.714,0.416        C0.552,31.063,0.535,31.065,0.519,31.065" fill="#3B3B3B"/>						<path d="M0.572,31.063l0.714-0.416c0.018,0,0.033,0.001,0.049,0.001l-0.715,0.417        C0.604,31.063,0.587,31.063,0.572,31.063" fill="#3D3D3D"/>						<path d="M0.621,31.065l0.715-0.417c0.017,0.002,0.032,0.002,0.047,0.006l-0.715,0.415        C0.65,31.067,0.636,31.065,0.621,31.065" fill="#3F3F3F"/>						<path d="M0.667,31.069l0.715-0.415c0.017,0.002,0.03,0.002,0.045,0.006l-0.715,0.417        C0.696,31.074,0.682,31.071,0.667,31.069" fill="#414141"/>						<path d="M0.713,31.077l0.715-0.417c0.016,0.002,0.029,0.007,0.043,0.012l-0.717,0.413        C0.74,31.083,0.726,31.079,0.713,31.077" fill="#434343"/>						<path d="M0.753,31.085l0.717-0.413c0.013,0.003,0.03,0.007,0.043,0.011l-0.716,0.414        C0.784,31.093,0.771,31.089,0.753,31.085" fill="#454545"/>						<path d="M0.798,31.097l0.716-0.414c0.014,0.004,0.029,0.011,0.042,0.015L0.84,31.113        C0.826,31.104,0.812,31.101,0.798,31.097" fill="#474747"/>						<path d="M0.84,31.113l0.716-0.416c0.013,0.004,0.026,0.01,0.042,0.014l-0.717,0.416        C0.869,31.121,0.853,31.117,0.84,31.113" fill="#494949"/>						<path d="M0.882,31.127l0.717-0.416c0.013,0.008,0.026,0.014,0.042,0.02l-0.717,0.414        C0.91,31.139,0.895,31.133,0.882,31.127" fill="#4B4B4B"/>						<path d="M0.923,31.145l0.717-0.414c0.013,0.006,0.026,0.012,0.04,0.019l-0.714,0.417        C0.95,31.158,0.937,31.149,0.923,31.145" fill="#4E4E4E"/>						<path d="M0.966,31.166l0.714-0.417c0.016,0.007,0.03,0.015,0.043,0.022l-0.715,0.414        C0.993,31.178,0.98,31.172,0.966,31.166" fill="#505050"/>						<path d="M1.009,31.186l0.715-0.414c0.013,0.006,0.023,0.013,0.034,0.018l-0.717,0.416        C1.029,31.197,1.019,31.191,1.009,31.186" fill="#525252"/>					</g>				</g>				<g enable-background="new    ">					<g clip-path="url(#SVGIDRack_server_1U_8_)" enable-background="new    ">						<path d="M1.041,31.205l0.717-0.416c0.003,0.002,0.006,0.004,0.01,0.006l-0.715,0.416        C1.046,31.209,1.043,31.207,1.041,31.205" fill="#525252"/>						<path d="M1.053,31.211l0.715-0.416c0.013,0.01,0.03,0.018,0.043,0.027l-0.717,0.414        C1.08,31.227,1.067,31.219,1.053,31.211" fill="#545454"/>						<path d="M1.094,31.236l0.717-0.414c0.014,0.011,0.031,0.02,0.044,0.029l-0.716,0.415        C1.125,31.257,1.11,31.246,1.094,31.236" fill="#565656"/>						<path d="M1.139,31.267l0.716-0.415c0.015,0.009,0.032,0.022,0.046,0.033l-0.717,0.413        C1.17,31.287,1.156,31.276,1.139,31.267" fill="#585858"/>						<path d="M1.184,31.298l0.717-0.413c0.014,0.009,0.031,0.021,0.045,0.035l-0.717,0.412        C1.215,31.321,1.202,31.311,1.184,31.298" fill="#5A5A5A"/>						<path d="M1.229,31.332l0.717-0.412c0.015,0.012,0.029,0.023,0.047,0.035l-0.717,0.416        C1.262,31.358,1.247,31.345,1.229,31.332" fill="#5C5C5C"/>						<path d="M1.276,31.371l0.717-0.416c0.014,0.015,0.029,0.027,0.045,0.041L1.323,31.41        C1.308,31.396,1.292,31.383,1.276,31.371" fill="#5E5E5E"/>						<path d="M1.323,31.41l0.716-0.414c0.015,0.016,0.029,0.028,0.047,0.043l-0.717,0.414        C1.355,31.438,1.337,31.424,1.323,31.41" fill="#606060"/>						<path d="M1.369,31.453l0.717-0.414c0.013,0.012,0.027,0.029,0.043,0.044l-0.717,0.415        C1.4,31.48,1.383,31.469,1.369,31.453" fill="#626262"/>						<path d="M1.413,31.498l0.717-0.415c0.013,0.014,0.027,0.03,0.041,0.044L1.456,31.54        C1.442,31.525,1.427,31.513,1.413,31.498" fill="#646464"/>						<path d="M1.456,31.54l0.715-0.413c0.016,0.016,0.028,0.031,0.041,0.045l-0.715,0.413        C1.481,31.57,1.469,31.556,1.456,31.54" fill="#666666"/>						<path d="M1.497,31.585l0.715-0.413c0.015,0.016,0.028,0.029,0.04,0.047l-0.716,0.414        C1.522,31.617,1.51,31.602,1.497,31.585" fill="#787878"/>						<path d="M1.536,31.633l0.716-0.414c0.013,0.016,0.028,0.031,0.042,0.05l-0.717,0.413        C1.563,31.666,1.55,31.649,1.536,31.633" fill="#808080"/>						<path d="M1.576,31.682l0.717-0.413c0.014,0.019,0.032,0.04,0.046,0.062l-0.716,0.413        C1.607,31.721,1.593,31.703,1.576,31.682" fill="#868686"/>						<path d="M1.623,31.743l0.716-0.413c0.021,0.029,0.044,0.059,0.065,0.092l-0.715,0.416        C1.667,31.806,1.646,31.772,1.623,31.743" fill="#8B8B8B"/>						<path d="M1.689,31.838l0.715-0.416c0.029,0.043,0.055,0.087,0.082,0.131L1.77,31.967        C1.745,31.922,1.717,31.879,1.689,31.838" fill="#8F8F8F"/>						<path d="M1.77,31.967l0.716-0.414c0.016,0.026,0.033,0.057,0.048,0.082l-0.717,0.416        C1.803,32.021,1.788,31.995,1.77,31.967" fill="#8B8B8B"/>						<path d="M1.817,32.051l0.717-0.416c0.01,0.022,0.02,0.041,0.032,0.063L1.85,32.111        C1.839,32.092,1.827,32.07,1.817,32.051" fill="#868686"/>						<path d="M1.85,32.111l0.716-0.413c0.009,0.017,0.018,0.034,0.025,0.054l-0.716,0.414        C1.866,32.148,1.858,32.131,1.85,32.111" fill="#808080"/>						<path d="M1.875,32.166l0.716-0.414c0.007,0.017,0.015,0.031,0.024,0.051l-0.717,0.411        C1.891,32.199,1.884,32.184,1.875,32.166" fill="#787878"/>						<path d="M1.898,32.214l0.717-0.411c0.006,0.014,0.013,0.029,0.02,0.049l-0.716,0.412        C1.913,32.248,1.906,32.232,1.898,32.214" fill="#666666"/>						<path d="M1.919,32.264l0.716-0.412c0.007,0.015,0.013,0.031,0.021,0.049L1.94,32.314        C1.934,32.299,1.926,32.281,1.919,32.264" fill="#646464"/>						<path d="M1.94,32.314L2.655,31.9c0.008,0.016,0.015,0.034,0.02,0.051l-0.717,0.412        C1.953,32.348,1.946,32.332,1.94,32.314" fill="#626262"/>						<path d="M1.958,32.363l0.717-0.412c0.006,0.016,0.011,0.034,0.017,0.052l-0.717,0.413        C1.969,32.399,1.964,32.383,1.958,32.363" fill="#606060"/>						<path d="M1.975,32.416l0.717-0.413c0.005,0.017,0.011,0.036,0.016,0.052l-0.714,0.418        C1.989,32.452,1.983,32.436,1.975,32.416" fill="#5E5E5E"/>						<path d="M1.995,32.473l0.714-0.418c0.008,0.018,0.013,0.037,0.017,0.055l-0.716,0.416        C2.004,32.506,1.999,32.488,1.995,32.473" fill="#5C5C5C"/>						<path d="M2.009,32.525l0.716-0.416c0.005,0.017,0.01,0.037,0.014,0.053l-0.717,0.416        C2.018,32.559,2.014,32.543,2.009,32.525" fill="#5A5A5A"/>						<path d="M2.022,32.578l0.717-0.416c0.004,0.02,0.008,0.037,0.011,0.054l-0.714,0.418        C2.034,32.611,2.029,32.596,2.022,32.578" fill="#585858"/>						<path d="M2.037,32.634l0.714-0.418c0.004,0.021,0.01,0.037,0.013,0.054l-0.716,0.415        C2.044,32.668,2.04,32.648,2.037,32.634" fill="#565656"/>						<path d="M2.048,32.685l0.716-0.415c0.002,0.018,0.006,0.035,0.008,0.051l-0.716,0.418        C2.053,32.721,2.05,32.702,2.048,32.685" fill="#545454"/>						<path d="M2.056,32.738l0.716-0.418c0.003,0.019,0.005,0.035,0.007,0.053l-0.717,0.414        C2.061,32.771,2.058,32.753,2.056,32.738" fill="#525252"/>						<path d="M2.062,32.787l0.717-0.414c0.002,0.018,0.004,0.034,0.005,0.053l-0.716,0.412        C2.066,32.823,2.064,32.803,2.062,32.787" fill="#505050"/>						<path d="M2.068,32.838l0.716-0.412c0.002,0.015,0.003,0.031,0.004,0.049l-0.716,0.412        C2.07,32.872,2.069,32.854,2.068,32.838" fill="#4E4E4E"/>						<path d="M2.072,32.887l0.716-0.412c0.001,0.016,0.001,0.031,0.002,0.049l-0.717,0.413        C2.073,32.922,2.073,32.903,2.072,32.887" fill="#4B4B4B"/>						<path d="M2.074,32.937l0.717-0.413c0,0.014,0,0.029,0,0.045c0,0.002,0,0.002,0,0.004l-0.717,0.414        c0-0.002,0-0.002,0-0.004C2.077,32.969,2.074,32.952,2.074,32.937" fill="#494949"/>						<path d="M2.074,32.986l0.717-0.414c0,0.016,0,0.031-0.001,0.049l-0.717,0.412        C2.074,33.02,2.074,33.004,2.074,32.986" fill="#474747"/>						<path d="M2.073,33.033l0.717-0.412c0,0.017-0.001,0.031-0.002,0.049L2.07,33.082        C2.072,33.066,2.073,33.053,2.073,33.033" fill="#454545"/>						<path d="M2.07,33.082l0.717-0.412c-0.001,0.017-0.003,0.03-0.005,0.049l-0.717,0.413        C2.067,33.116,2.069,33.098,2.07,33.082" fill="#434343"/>						<path d="M2.065,33.132l0.717-0.413c-0.002,0.018-0.005,0.031-0.007,0.049l-0.716,0.414        C2.062,33.166,2.063,33.146,2.065,33.132" fill="#414141"/>						<path d="M2.059,33.182l0.716-0.414c-0.003,0.018-0.006,0.033-0.01,0.051l-0.716,0.414        C2.052,33.217,2.056,33.199,2.059,33.182" fill="#3F3F3F"/>						<path d="M2.049,33.232l0.716-0.414c-0.003,0.016-0.011,0.033-0.016,0.052l-0.714,0.413        C2.041,33.268,2.045,33.25,2.049,33.232" fill="#3D3D3D"/>						<path d="M2.036,33.283L2.75,32.87c-0.004,0.017-0.01,0.038-0.017,0.056l-0.716,0.41        C2.022,33.321,2.031,33.304,2.036,33.283" fill="#3B3B3B"/>						<path d="M2.017,33.336l0.716-0.41c-0.007,0.017-0.015,0.039-0.026,0.057l-0.715,0.416        C2.002,33.379,2.009,33.359,2.017,33.336" fill="#393939"/>						<path d="M1.993,33.398l0.715-0.416c-0.011,0.025-0.023,0.049-0.037,0.073l-0.717,0.411        C1.967,33.447,1.981,33.422,1.993,33.398" fill="#373737"/>						<path d="M1.954,33.467l0.717-0.411c-0.049,0.072-0.112,0.132-0.183,0.173l-0.716,0.416        C1.845,33.604,1.905,33.544,1.954,33.467" fill="#353535"/>					</g>				</g>				<g>					<path d="M1.041,31.205c0.571,0.327,1.038,1.125,1.033,1.777c0,0.656-0.468,0.92-1.04,0.591       C0.462,33.244-0.002,32.442,0,31.789C0.002,31.135,0.471,30.876,1.041,31.205z M1.413,33.346l0.372-0.529l-0.368-0.957       l-0.752-0.434l-0.373,0.529l0.369,0.958L1.413,33.346" fill="#373737"/>				</g>			</g>		</g>	</g>	<polygon fill="#58595B" points="100,31.096 100,40.553 57.467,66.089 57.481,55.889  "/>		<polygon fill="url(#SVGIDRack_server_1U_9_)" points="100,31.096 58.965,55.193 4.609,24.033 46.674,0  "/>	<g>		<g>						<path d="M57.481,55.794l1.241-0.74c1.207,0.682,1.966,1.157,2.963,1.763     c0.705,0.426,1.105,1.344,1.093,2.229c-0.016,1.063,0.029,6.997,0,7.554c-0.041,0.691-0.648,0.86-1.536,1.378     c-0.326,0.019-0.672-0.019-1.177-0.323c-1.296-0.784-2.599-1.564-2.599-1.564L57.481,55.794z" fill="url(#SVGIDRack_server_1U_10_)"/>			<path d="M57.481,55.794c0,0,2.788,1.636,2.976,1.749c1.005,0.616,1.229,1.296,1.229,2.359s0,7.232,0,7.232     s0.059,1.532-1.62,0.519c-1-0.604-2.599-1.564-2.599-1.564L57.481,55.794z" fill="#A8A8A8"/>		</g>		<g>			<g a:adobe-knockout="true">				<g a:adobe-knockout="false" enable-background="new    ">					<g>						<polygon fill="#616161" points="58.228,58.768 58.947,58.349 59.312,59.305 58.597,59.718       "/>					</g>					<g>						<polygon fill="#585858" points="58.597,59.718 59.312,59.305 60.065,59.74 59.352,60.154       "/>					</g>					<g>						<polygon fill="#363636" points="58.601,58.234 59.315,57.821 58.947,58.349 58.228,58.768       "/>					</g>					<g enable-background="new    ">						<g clip-path="url(#SVGIDRack_server_1U_12_)" enable-background="new    ">							<path d="M58.236,57.938l0.719-0.411c0.025-0.016,0.053-0.027,0.085-0.042l-0.719,0.418         C58.293,57.913,58.267,57.925,58.236,57.938" fill="#353535"/>							<path d="M58.321,57.903l0.719-0.418c0.022-0.008,0.045-0.014,0.069-0.02l-0.715,0.414         C58.371,57.889,58.343,57.896,58.321,57.903" fill="#373737"/>							<path d="M58.395,57.88l0.715-0.414c0.018-0.004,0.043-0.006,0.062-0.008l-0.714,0.413         C58.433,57.874,58.413,57.876,58.395,57.88" fill="#393939"/>							<path d="M58.457,57.871l0.714-0.413c0.017-0.002,0.033-0.002,0.052-0.002l-0.715,0.413         C58.49,57.869,58.473,57.869,58.457,57.871" fill="#3B3B3B"/>							<path d="M58.508,57.869l0.715-0.413c0.02,0,0.035,0,0.051,0.002l-0.714,0.411         C58.54,57.869,58.522,57.867,58.508,57.869" fill="#3D3D3D"/>							<path d="M58.56,57.869l0.714-0.411c0.014,0,0.03,0.002,0.045,0.004l-0.715,0.414         C58.589,57.874,58.574,57.871,58.56,57.869" fill="#3F3F3F"/>							<path d="M58.604,57.876l0.715-0.414c0.02,0.002,0.033,0.004,0.048,0.006l-0.715,0.419         C58.632,57.88,58.618,57.878,58.604,57.876" fill="#414141"/>							<path d="M58.651,57.887l0.715-0.419c0.014,0.004,0.026,0.006,0.041,0.01l-0.715,0.418         C58.679,57.893,58.665,57.889,58.651,57.887" fill="#434343"/>							<path d="M58.692,57.896l0.715-0.418c0.013,0.004,0.032,0.008,0.045,0.012l-0.719,0.418         C58.72,57.903,58.706,57.899,58.692,57.896" fill="#454545"/>							<path d="M58.733,57.907l0.719-0.418c0.014,0.009,0.026,0.013,0.04,0.017l-0.714,0.413         C58.764,57.915,58.751,57.909,58.733,57.907" fill="#474747"/>							<path d="M58.778,57.919l0.714-0.413c0.013,0.006,0.026,0.01,0.045,0.016l-0.72,0.413         C58.805,57.929,58.791,57.925,58.778,57.919" fill="#494949"/>							<path d="M58.817,57.935l0.72-0.413c0.013,0.006,0.026,0.011,0.039,0.017l-0.715,0.414         C58.849,57.945,58.831,57.938,58.817,57.935" fill="#4B4B4B"/>							<path d="M58.861,57.952l0.715-0.414c0.014,0.005,0.026,0.013,0.04,0.019l-0.715,0.413         C58.888,57.964,58.875,57.958,58.861,57.952" fill="#4E4E4E"/>							<path d="M58.901,57.97l0.715-0.413c0.018,0.008,0.032,0.014,0.045,0.021l-0.714,0.418         C58.93,57.988,58.915,57.982,58.901,57.97" fill="#505050"/>							<path d="M58.947,57.996l0.714-0.418c0.011,0.005,0.021,0.016,0.032,0.021l-0.714,0.415         C58.968,58.009,58.958,58.001,58.947,57.996" fill="#525252"/>						</g>					</g>					<g enable-background="new    ">						<g clip-path="url(#SVGIDRack_server_1U_14_)" enable-background="new    ">							<polyline fill="#525252" points="58.979,58.015 59.693,57.6 59.704,57.605 58.989,58.019 58.979,58.015        "/>							<path d="M58.989,58.019l0.715-0.413c0.018,0.009,0.032,0.017,0.046,0.027l-0.72,0.413         C59.017,58.036,59.003,58.028,58.989,58.019" fill="#545454"/>							<path d="M59.03,58.046l0.72-0.413c0.014,0.009,0.028,0.017,0.041,0.026l-0.714,0.414         C59.063,58.062,59.049,58.053,59.03,58.046" fill="#565656"/>							<path d="M59.077,58.073l0.714-0.414c0.016,0.01,0.034,0.021,0.049,0.036l-0.72,0.411         C59.105,58.098,59.092,58.088,59.077,58.073" fill="#585858"/>							<path d="M59.12,58.106l0.72-0.411c0.014,0.01,0.028,0.021,0.043,0.031l-0.715,0.414         C59.153,58.128,59.14,58.118,59.12,58.106" fill="#5A5A5A"/>							<path d="M59.168,58.141l0.715-0.414c0.015,0.013,0.034,0.023,0.049,0.037l-0.72,0.418         C59.198,58.165,59.183,58.152,59.168,58.141" fill="#5C5C5C"/>							<path d="M59.212,58.182l0.72-0.418c0.015,0.012,0.029,0.029,0.043,0.041l-0.714,0.414         C59.246,58.208,59.232,58.193,59.212,58.182" fill="#5E5E5E"/>							<path d="M59.261,58.219l0.714-0.414c0.016,0.015,0.029,0.028,0.05,0.041l-0.719,0.414         C59.29,58.246,59.275,58.232,59.261,58.219" fill="#606060"/>							<path d="M59.306,58.26l0.719-0.414c0.013,0.014,0.027,0.028,0.042,0.047l-0.715,0.413         C59.339,58.292,59.319,58.278,59.306,58.26" fill="#626262"/>							<path d="M59.352,58.306l0.715-0.413c0.013,0.015,0.027,0.026,0.045,0.042l-0.72,0.414         C59.379,58.332,59.365,58.318,59.352,58.306" fill="#646464"/>							<path d="M59.392,58.349l0.72-0.414c0.014,0.014,0.025,0.027,0.039,0.048l-0.715,0.412         C59.417,58.38,59.405,58.362,59.392,58.349" fill="#666666"/>							<path d="M59.436,58.395l0.715-0.412c0.012,0.014,0.025,0.03,0.037,0.046l-0.714,0.411         C59.461,58.426,59.448,58.411,59.436,58.395" fill="#787878"/>							<path d="M59.474,58.439l0.714-0.411c0.014,0.014,0.03,0.03,0.044,0.045l-0.72,0.418         C59.499,58.476,59.486,58.455,59.474,58.439" fill="#808080"/>							<path d="M59.512,58.491l0.72-0.418c0.014,0.024,0.029,0.043,0.043,0.062l-0.714,0.414         C59.546,58.529,59.531,58.511,59.512,58.491" fill="#868686"/>							<path d="M59.561,58.55l0.714-0.414c0.021,0.029,0.047,0.063,0.068,0.093l-0.715,0.415         C59.603,58.613,59.581,58.583,59.561,58.55" fill="#8B8B8B"/>							<path d="M59.628,58.644l0.715-0.415c0.026,0.046,0.052,0.088,0.081,0.13l-0.718,0.419         C59.681,58.729,59.655,58.688,59.628,58.644" fill="#8F8F8F"/>							<path d="M59.706,58.777l0.718-0.419c0.018,0.03,0.031,0.059,0.047,0.085l-0.715,0.418         C59.741,58.83,59.727,58.805,59.706,58.777" fill="#8B8B8B"/>							<path d="M59.756,58.861l0.715-0.418c0.01,0.02,0.02,0.044,0.034,0.063l-0.719,0.411         C59.775,58.898,59.766,58.882,59.756,58.861" fill="#868686"/>							<path d="M59.786,58.918l0.719-0.411c0.009,0.016,0.018,0.035,0.025,0.051l-0.719,0.418         C59.803,58.958,59.794,58.937,59.786,58.918" fill="#808080"/>							<path d="M59.812,58.976l0.719-0.418c0.007,0.021,0.015,0.035,0.021,0.052l-0.715,0.413         C59.83,59.007,59.822,58.991,59.812,58.976" fill="#787878"/>							<path d="M59.837,59.022l0.715-0.413c0.006,0.016,0.013,0.03,0.02,0.046l-0.714,0.419         C59.851,59.058,59.844,59.038,59.837,59.022" fill="#666666"/>							<path d="M59.857,59.074l0.714-0.419c0.007,0.021,0.013,0.036,0.02,0.052l-0.715,0.415         C59.869,59.104,59.864,59.09,59.857,59.074" fill="#646464"/>							<path d="M59.876,59.122l0.715-0.415c0.011,0.018,0.018,0.033,0.022,0.054l-0.72,0.414         C59.889,59.157,59.882,59.137,59.876,59.122" fill="#626262"/>							<path d="M59.894,59.175l0.72-0.414c0.006,0.017,0.012,0.033,0.018,0.05l-0.715,0.413         C59.905,59.209,59.899,59.19,59.894,59.175" fill="#606060"/>							<path d="M59.916,59.224l0.715-0.413c0.005,0.018,0.011,0.034,0.016,0.055l-0.714,0.414         C59.927,59.262,59.922,59.241,59.916,59.224" fill="#5E5E5E"/>							<path d="M59.933,59.279l0.714-0.414c0.006,0.019,0.011,0.035,0.015,0.051l-0.714,0.415         C59.942,59.312,59.938,59.297,59.933,59.279" fill="#5C5C5C"/>							<path d="M59.947,59.331l0.714-0.415c0.005,0.018,0.01,0.04,0.015,0.058l-0.715,0.413         C59.956,59.369,59.952,59.353,59.947,59.331" fill="#5A5A5A"/>							<path d="M59.961,59.387l0.715-0.413c0.004,0.018,0.008,0.033,0.011,0.051l-0.714,0.418         C59.97,59.421,59.965,59.403,59.961,59.387" fill="#585858"/>							<path d="M59.973,59.442l0.714-0.418c0.004,0.018,0.013,0.037,0.016,0.056l-0.719,0.413         C59.979,59.476,59.976,59.458,59.973,59.442" fill="#565656"/>							<path d="M59.983,59.493l0.719-0.413c0.003,0.016,0.007,0.032,0.009,0.048l-0.719,0.42         C59.989,59.525,59.986,59.509,59.983,59.493" fill="#545454"/>							<path d="M59.992,59.548l0.719-0.42c0.003,0.022,0.005,0.039,0.007,0.055l-0.72,0.413         C59.997,59.578,59.994,59.563,59.992,59.548" fill="#525252"/>							<path d="M59.998,59.596l0.72-0.413c0.002,0.016,0.004,0.031,0.005,0.047l-0.719,0.418         C60.002,59.628,60,59.612,59.998,59.596" fill="#505050"/>							<path d="M60.004,59.647l0.719-0.418c0.002,0.021,0.003,0.035,0.004,0.054l-0.714,0.411         C60.006,59.68,60.005,59.663,60.004,59.647" fill="#4E4E4E"/>							<path d="M60.013,59.694l0.714-0.411c0.001,0.014,0.002,0.029,0.003,0.046l-0.715,0.417         C60.014,59.726,60.014,59.71,60.013,59.694" fill="#4B4B4B"/>							<path d="M60.015,59.746l0.715-0.417c0,0.02,0,0.033,0,0.048v0.002l-0.715,0.413V59.79         C60.016,59.775,60.015,59.762,60.015,59.746" fill="#494949"/>							<path d="M60.015,59.792l0.715-0.413c0,0.016,0,0.034-0.001,0.047l-0.715,0.418         C60.015,59.824,60.015,59.809,60.015,59.792" fill="#474747"/>							<path d="M60.014,59.844l0.715-0.418c-0.001,0.021-0.002,0.036-0.003,0.052l-0.72,0.412         C60.013,59.876,60.014,59.859,60.014,59.844" fill="#454545"/>							<path d="M60.006,59.89l0.72-0.412c-0.001,0.016-0.003,0.031-0.005,0.048l-0.72,0.419         C60.003,59.928,60.005,59.907,60.006,59.89" fill="#434343"/>							<path d="M60.001,59.944l0.72-0.419c-0.002,0.021-0.005,0.036-0.007,0.05l-0.719,0.415         C59.997,59.973,59.999,59.959,60.001,59.944" fill="#414141"/>							<path d="M59.995,59.99l0.719-0.415c-0.003,0.017-0.006,0.033-0.01,0.049l-0.719,0.418         C59.988,60.026,59.992,60.006,59.995,59.99" fill="#3F3F3F"/>							<path d="M59.985,60.042l0.719-0.418c-0.004,0.021-0.014,0.037-0.018,0.056l-0.715,0.413         C59.977,60.075,59.98,60.059,59.985,60.042" fill="#3D3D3D"/>							<path d="M59.972,60.093l0.715-0.413c-0.005,0.017-0.011,0.032-0.018,0.056l-0.714,0.413         C59.961,60.13,59.967,60.107,59.972,60.093" fill="#3B3B3B"/>							<path d="M59.955,60.148l0.714-0.413c-0.007,0.019-0.015,0.036-0.023,0.053l-0.715,0.417         C59.94,60.185,59.947,60.167,59.955,60.148" fill="#393939"/>							<path d="M59.931,60.205l0.715-0.417c-0.011,0.026-0.023,0.053-0.036,0.073l-0.72,0.415         C59.902,60.254,59.92,60.232,59.931,60.205" fill="#373737"/>							<path d="M59.89,60.276l0.72-0.415c-0.052,0.079-0.114,0.133-0.184,0.179l-0.718,0.411         C59.781,60.415,59.843,60.354,59.89,60.276" fill="#353535"/>						</g>					</g>					<g>						<path d="M58.979,58.015c0.57,0.326,1.037,1.119,1.035,1.775c-0.001,0.655-0.471,0.922-1.042,0.59        c-0.572-0.327-1.039-1.128-1.037-1.783C57.938,57.943,58.407,57.684,58.979,58.015z M59.352,60.154l0.372-0.532l-0.368-0.951        l-0.755-0.437l-0.373,0.533l0.369,0.95L59.352,60.154" fill="#373737"/>					</g>				</g>			</g>		</g>		<g>			<g a:adobe-knockout="true">				<g a:adobe-knockout="false" enable-background="new    ">					<g>						<polygon fill="#616161" points="58.228,65.131 58.947,64.72 59.312,65.674 58.597,66.089       "/>					</g>					<g>						<polygon fill="#585858" points="58.597,66.089 59.312,65.674 60.065,66.104 59.352,66.519       "/>					</g>					<g>						<polygon fill="#363636" points="58.601,64.611 59.315,64.193 58.947,64.72 58.228,65.131       "/>					</g>					<g enable-background="new    ">						<g clip-path="url(#SVGIDRack_server_1U_16_)" enable-background="new    ">							<path d="M58.236,64.31l0.719-0.419c0.025-0.015,0.053-0.026,0.085-0.036l-0.719,0.413         C58.293,64.277,58.267,64.291,58.236,64.31" fill="#353535"/>							<path d="M58.321,64.268l0.719-0.413c0.022-0.009,0.045-0.015,0.069-0.02l-0.715,0.414         C58.371,64.255,58.343,64.26,58.321,64.268" fill="#373737"/>							<path d="M58.395,64.249l0.715-0.414c0.018-0.002,0.043-0.006,0.062-0.008l-0.714,0.413         C58.433,64.242,58.413,64.246,58.395,64.249" fill="#393939"/>							<path d="M58.457,64.24l0.714-0.413c0.017-0.002,0.033-0.002,0.052-0.002l-0.715,0.413         C58.49,64.238,58.473,64.24,58.457,64.24" fill="#3B3B3B"/>							<path d="M58.508,64.238l0.715-0.413c0.02,0,0.035,0,0.051,0.002L58.56,64.24         C58.54,64.238,58.522,64.238,58.508,64.238" fill="#3D3D3D"/>							<path d="M58.56,64.24l0.714-0.413c0.014,0,0.03,0.002,0.045,0.004l-0.715,0.413         C58.589,64.242,58.574,64.24,58.56,64.24" fill="#3F3F3F"/>							<path d="M58.604,64.244l0.715-0.413c0.02,0.002,0.033,0.004,0.048,0.007l-0.715,0.415         C58.632,64.249,58.618,64.246,58.604,64.244" fill="#414141"/>							<path d="M58.651,64.253l0.715-0.415c0.014,0.002,0.026,0.006,0.041,0.01l-0.715,0.412         C58.679,64.258,58.665,64.255,58.651,64.253" fill="#434343"/>							<path d="M58.692,64.26l0.715-0.412c0.013,0.003,0.032,0.007,0.045,0.011l-0.719,0.413         C58.72,64.268,58.706,64.264,58.692,64.26" fill="#454545"/>							<path d="M58.733,64.271l0.719-0.413c0.014,0.004,0.026,0.01,0.04,0.014l-0.714,0.413         C58.764,64.279,58.751,64.275,58.733,64.271" fill="#474747"/>							<path d="M58.778,64.285l0.714-0.413c0.013,0.004,0.026,0.01,0.045,0.014l-0.72,0.413         C58.805,64.295,58.791,64.289,58.778,64.285" fill="#494949"/>							<path d="M58.817,64.299l0.72-0.413c0.013,0.005,0.026,0.011,0.039,0.017l-0.715,0.419         C58.849,64.315,58.831,64.31,58.817,64.299" fill="#4B4B4B"/>							<path d="M58.861,64.321l0.715-0.419c0.014,0.006,0.026,0.018,0.04,0.025l-0.715,0.413         C58.888,64.333,58.875,64.327,58.861,64.321" fill="#4E4E4E"/>							<path d="M58.901,64.341l0.715-0.413c0.018,0.006,0.032,0.014,0.045,0.019l-0.714,0.414         C58.93,64.353,58.915,64.347,58.901,64.341" fill="#505050"/>							<path d="M58.947,64.36l0.714-0.414c0.011,0.006,0.021,0.012,0.032,0.018l-0.714,0.413         C58.968,64.371,58.958,64.365,58.947,64.36" fill="#525252"/>						</g>					</g>					<g enable-background="new    ">						<g clip-path="url(#SVGIDRack_server_1U_18_)" enable-background="new    ">							<polyline fill="#525252" points="58.979,64.377 59.693,63.964 59.704,63.97 58.989,64.384 58.979,64.377        "/>							<path d="M58.989,64.384l0.715-0.414c0.018,0.01,0.032,0.019,0.046,0.025l-0.72,0.419         C59.017,64.406,59.003,64.392,58.989,64.384" fill="#545454"/>							<path d="M59.03,64.414l0.72-0.419c0.014,0.01,0.028,0.022,0.041,0.034l-0.714,0.412         C59.063,64.431,59.049,64.423,59.03,64.414" fill="#565656"/>							<path d="M59.077,64.441l0.714-0.412c0.016,0.008,0.034,0.019,0.049,0.03l-0.72,0.413         C59.105,64.462,59.092,64.452,59.077,64.441" fill="#585858"/>							<path d="M59.12,64.473l0.72-0.413c0.014,0.01,0.028,0.021,0.043,0.033l-0.715,0.418         C59.153,64.494,59.14,64.482,59.12,64.473" fill="#5A5A5A"/>							<path d="M59.168,64.511l0.715-0.418c0.015,0.011,0.034,0.028,0.049,0.04l-0.72,0.413         C59.198,64.534,59.183,64.522,59.168,64.511" fill="#5C5C5C"/>							<path d="M59.212,64.546l0.72-0.413c0.015,0.012,0.029,0.024,0.043,0.038l-0.714,0.414         C59.246,64.571,59.232,64.56,59.212,64.546" fill="#5E5E5E"/>							<path d="M59.261,64.585l0.714-0.414c0.016,0.015,0.029,0.026,0.05,0.046l-0.719,0.411         C59.29,64.617,59.275,64.602,59.261,64.585" fill="#606060"/>							<path d="M59.306,64.628l0.719-0.411c0.013,0.012,0.027,0.027,0.042,0.041l-0.715,0.412         C59.339,64.656,59.319,64.642,59.306,64.628" fill="#626262"/>							<path d="M59.352,64.67l0.715-0.412c0.013,0.014,0.027,0.027,0.045,0.041l-0.72,0.419         C59.379,64.703,59.365,64.685,59.352,64.67" fill="#646464"/>							<path d="M59.392,64.718l0.72-0.419c0.014,0.021,0.025,0.034,0.039,0.048l-0.715,0.413         C59.417,64.746,59.405,64.73,59.392,64.718" fill="#666666"/>							<path d="M59.436,64.76l0.715-0.413c0.012,0.016,0.025,0.028,0.037,0.045l-0.714,0.418         C59.461,64.794,59.448,64.773,59.436,64.76" fill="#787878"/>							<path d="M59.474,64.81l0.714-0.418c0.014,0.021,0.03,0.035,0.044,0.052l-0.72,0.414         C59.499,64.841,59.486,64.826,59.474,64.81" fill="#808080"/>							<path d="M59.512,64.857l0.72-0.414c0.014,0.019,0.029,0.037,0.043,0.062l-0.715,0.414         C59.546,64.898,59.531,64.877,59.512,64.857" fill="#868686"/>							<path d="M59.56,64.919l0.715-0.414c0.021,0.029,0.047,0.059,0.067,0.095l-0.714,0.413         C59.602,64.977,59.581,64.947,59.56,64.919" fill="#8B8B8B"/>							<path d="M59.628,65.013l0.714-0.413c0.027,0.04,0.053,0.081,0.082,0.128l-0.718,0.415         C59.681,65.099,59.655,65.052,59.628,65.013" fill="#8F8F8F"/>							<path d="M59.706,65.143l0.718-0.415c0.018,0.026,0.031,0.055,0.047,0.084l-0.715,0.414         C59.741,65.199,59.727,65.167,59.706,65.143" fill="#8B8B8B"/>							<path d="M59.756,65.226l0.715-0.414c0.01,0.021,0.02,0.04,0.034,0.06l-0.719,0.418         C59.775,65.265,59.766,65.246,59.756,65.226" fill="#868686"/>							<path d="M59.786,65.289l0.719-0.418c0.009,0.021,0.018,0.039,0.025,0.058l-0.719,0.413         C59.803,65.324,59.794,65.305,59.786,65.289" fill="#808080"/>							<path d="M59.812,65.342l0.719-0.413c0.007,0.015,0.015,0.028,0.021,0.046l-0.715,0.417         C59.83,65.378,59.822,65.355,59.812,65.342" fill="#787878"/>							<path d="M59.837,65.392l0.715-0.417c0.006,0.019,0.013,0.036,0.02,0.052l-0.714,0.411         C59.851,65.422,59.844,65.407,59.837,65.392" fill="#666666"/>							<path d="M59.857,65.438l0.714-0.411c0.007,0.014,0.013,0.031,0.02,0.047l-0.715,0.418         C59.869,65.476,59.864,65.456,59.857,65.438" fill="#646464"/>							<path d="M59.876,65.491l0.715-0.418c0.011,0.021,0.018,0.035,0.022,0.052l-0.72,0.413         C59.889,65.522,59.882,65.507,59.876,65.491" fill="#626262"/>							<path d="M59.894,65.538l0.72-0.413c0.006,0.018,0.012,0.032,0.018,0.05l-0.715,0.418         C59.905,65.577,59.899,65.556,59.894,65.538" fill="#606060"/>							<path d="M59.916,65.593l0.715-0.418c0.005,0.022,0.011,0.039,0.016,0.055l-0.714,0.414         C59.927,65.627,59.922,65.61,59.916,65.593" fill="#5E5E5E"/>							<path d="M59.933,65.644l0.714-0.414c0.006,0.019,0.011,0.035,0.015,0.058L59.947,65.7         C59.942,65.683,59.938,65.661,59.933,65.644" fill="#5C5C5C"/>							<path d="M59.947,65.7l0.714-0.413c0.005,0.016,0.01,0.035,0.015,0.051l-0.715,0.413         C59.956,65.733,59.952,65.719,59.947,65.7" fill="#5A5A5A"/>							<path d="M59.961,65.751l0.715-0.413c0.004,0.018,0.008,0.04,0.011,0.056l-0.714,0.413         C59.97,65.789,59.965,65.773,59.961,65.751" fill="#585858"/>							<path d="M59.973,65.807l0.714-0.413c0.004,0.018,0.013,0.034,0.016,0.051l-0.719,0.418         C59.979,65.839,59.976,65.824,59.973,65.807" fill="#565656"/>							<path d="M59.983,65.862l0.719-0.418c0.003,0.016,0.007,0.037,0.009,0.053l-0.719,0.414         C59.989,65.895,59.986,65.88,59.983,65.862" fill="#545454"/>							<path d="M59.992,65.911l0.719-0.414c0.003,0.017,0.005,0.033,0.007,0.049l-0.72,0.419         C59.997,65.944,59.994,65.929,59.992,65.911" fill="#525252"/>							<path d="M59.998,65.965l0.72-0.419c0.002,0.016,0.004,0.039,0.005,0.055l-0.719,0.413         C60.002,65.996,60,65.981,59.998,65.965" fill="#505050"/>							<path d="M60.004,66.014l0.719-0.413c0.002,0.016,0.003,0.03,0.004,0.047l-0.714,0.418         C60.006,66.044,60.005,66.029,60.004,66.014" fill="#4E4E4E"/>							<path d="M60.013,66.065l0.714-0.418c0.001,0.021,0.002,0.035,0.003,0.051l-0.715,0.414         C60.014,66.095,60.014,66.081,60.013,66.065" fill="#4B4B4B"/>							<path d="M60.015,66.112l0.715-0.414c0,0.015,0,0.03,0,0.043c0,0.002,0,0.002,0,0.004l-0.715,0.418         c0-0.002,0-0.002,0-0.004C60.016,66.142,60.015,66.126,60.015,66.112" fill="#494949"/>							<path d="M60.015,66.163l0.715-0.418c0,0.021,0,0.037-0.001,0.052l-0.715,0.413         C60.015,66.195,60.015,66.18,60.015,66.163" fill="#474747"/>							<path d="M60.014,66.21l0.715-0.413c-0.001,0.016-0.002,0.031-0.003,0.047l-0.72,0.418         C60.013,66.242,60.014,66.226,60.014,66.21" fill="#454545"/>							<path d="M60.006,66.262l0.72-0.418c-0.002,0.021-0.003,0.038-0.005,0.051l-0.72,0.414         C60.003,66.293,60.005,66.277,60.006,66.262" fill="#434343"/>							<path d="M60.001,66.309l0.72-0.414c-0.002,0.017-0.005,0.034-0.007,0.047l-0.719,0.419         C59.997,66.341,59.999,66.327,60.001,66.309" fill="#414141"/>							<path d="M59.995,66.36l0.719-0.419c-0.003,0.023-0.006,0.04-0.01,0.055l-0.72,0.414         C59.988,66.395,59.991,66.379,59.995,66.36" fill="#3F3F3F"/>							<path d="M59.984,66.41l0.72-0.414c-0.004,0.018-0.014,0.035-0.018,0.051l-0.715,0.419         C59.976,66.448,59.98,66.427,59.984,66.41" fill="#3D3D3D"/>							<path d="M59.972,66.466l0.715-0.419c-0.005,0.022-0.012,0.04-0.018,0.055l-0.715,0.415         C59.961,66.5,59.967,66.482,59.972,66.466" fill="#3B3B3B"/>							<path d="M59.954,66.517l0.715-0.415c-0.008,0.021-0.015,0.04-0.023,0.062l-0.715,0.414         C59.939,66.56,59.947,66.535,59.954,66.517" fill="#393939"/>							<path d="M59.931,66.577l0.715-0.414c-0.011,0.024-0.023,0.045-0.036,0.066l-0.72,0.419         C59.902,66.622,59.92,66.601,59.931,66.577" fill="#373737"/>							<path d="M59.89,66.648l0.72-0.419c-0.052,0.075-0.108,0.137-0.182,0.177l-0.719,0.413         C59.782,66.781,59.844,66.722,59.89,66.648" fill="#353535"/>						</g>					</g>					<g>						<path d="M58.979,64.377c0.57,0.332,1.037,1.128,1.035,1.782c-0.001,0.658-0.471,0.916-1.042,0.592        c-0.572-0.332-1.039-1.127-1.037-1.79C57.938,64.311,58.407,64.051,58.979,64.377z M59.352,66.519l0.372-0.527l-0.368-0.951        l-0.755-0.429l-0.373,0.52l0.369,0.958L59.352,66.519" fill="#373737"/>					</g>				</g>			</g>		</g>	</g>	<polygon fill="#DCDCDC" points="3.367,24.76 4.609,24.033 58.723,55.054 57.481,55.794  "/>	<g a:adobe-knockout="true">		<g a:adobe-knockout="false" enable-background="new    ">			<g a:adobe-knockout="true" clip-path="url(#SVGIDRack_server_1U_20_)">				<path a:adobe-knockout="false" d="M5.536,33.159l0.003-1.342l8.843,5.105l-0.004,1.342L5.536,33.159       M5.541,31.325l0.004-1.343l8.843,5.106l-0.004,1.342L5.541,31.325 M18.725,36.945l-13.74-7.933l-0.013,4.461l13.74,7.933      L18.725,36.945" fill="#171717"/>				<polyline a:adobe-knockout="false" fill="#888888" points="14.388,35.089 5.545,29.982 5.541,31.325 14.384,36.431       14.388,35.089     "/>				<polyline a:adobe-knockout="false" fill="#888888" points="14.383,36.923 5.54,31.817 5.536,33.159 14.379,38.265       14.383,36.923     "/>			</g>		</g>	</g>	<g a:adobe-knockout="true">		<g a:adobe-knockout="false" enable-background="new    ">			<g a:adobe-knockout="true" clip-path="url(#SVGIDRack_server_1U_22_)">				<path a:adobe-knockout="false" d="M21.022,42.001l0.003-1.342l8.843,5.105l-0.004,1.342L21.022,42.001       M21.027,40.167l0.004-1.343l8.843,5.106l-0.004,1.342L21.027,40.167 M34.211,45.787l-13.74-7.933l-0.013,4.461l13.74,7.933      L34.211,45.787" fill="#171717"/>				<polyline a:adobe-knockout="false" fill="#888888" points="29.874,43.931 21.031,38.824 21.027,40.167 29.87,45.272       29.874,43.931     "/>				<polyline a:adobe-knockout="false" fill="#888888" points="29.869,45.765 21.025,40.659 21.022,42.001 29.865,47.106       29.869,45.765     "/>			</g>		</g>	</g>	<g a:adobe-knockout="true">		<g a:adobe-knockout="false" enable-background="new    ">			<g a:adobe-knockout="true" clip-path="url(#SVGIDRack_server_1U_24_)">				<path a:adobe-knockout="false" d="M36.566,51.032l0.003-1.342l8.843,5.105l-0.004,1.342L36.566,51.032       M36.571,49.198l0.004-1.343l8.843,5.106l-0.004,1.342L36.571,49.198 M49.755,54.818l-13.74-7.933l-0.013,4.461l13.74,7.933      L49.755,54.818" fill="#171717"/>				<polyline a:adobe-knockout="false" fill="#888888" points="45.418,52.962 36.575,47.855 36.571,49.198 45.414,54.304       45.418,52.962     "/>				<polyline a:adobe-knockout="false" fill="#888888" points="45.413,54.796 36.569,49.69 36.566,51.032 45.409,56.138       45.413,54.796     "/>			</g>		</g>	</g></g></symbol></defs><g transform='translate(63.44117647058822,61.5) rotate(0 84.55882352941178 57.5)'><use xlink:href='#com.gliffy.newnetwork.business.Rack_Server_1U' width='169.11764705882356' height='115.0'  fill="#003366"/><g  transform='translate(0.0,132.0)'><text x='84.55882352941178' style='text-anchor: middle' y='-2.0'><tspan xml:space='preserve' font-size='12' font-family='Arial' fill='#000000' font-weight='bold' >source server #1</tspan></text></g></g><g transform='translate(65.44117647058822,274.5) rotate(0 84.55882352941178 57.5)'><use xlink:href='#com.gliffy.newnetwork.business.Rack_Server_1U' width='169.11764705882356' height='115.0'  fill="#003366"/><g  transform='translate(0.0,132.0)'><text x='84.55882352941178' style='text-anchor: middle' y='-2.0'><tspan xml:space='preserve' font-size='12' font-family='Arial' fill='#000000' font-weight='bold' >source server #2</tspan></text></g></g><defs>    <path d="M11.396,79.491c1.048,1.759,1.066,3.689,0.042,4.313c-1.023,0.628-2.704-0.294-3.753-2.053      c-1.044-1.758-1.065-3.689-0.042-4.312C8.669,76.816,10.347,77.733,11.396,79.491z" id="SVGIDserver_3_"/>    <clipPath id="SVGIDserver_4_">        <use overflow="visible" xlink:actuate="onLoad" xlink:href="#SVGIDserver_3_" xlink:show="embed" xlink:type="simple" xmlns:xlink="http://www.w3.org/1999/xlink"/>    </clipPath>    <linearGradient gradientUnits="userSpaceOnUse" id="SVGIDserver_1_" x1="10.5381" x2="50.7503" xlink:actuate="onLoad" xlink:show="other" xlink:type="simple" xmlns:xlink="http://www.w3.org/1999/xlink" y1="31.2178" y2="7.4423">		<stop offset="0" style="stop-color:#464646"/>		<stop offset="1" style="stop-color:#CCCCCC"/>		<a:midPointStop offset="0" style="stop-color:#464646"/>		<a:midPointStop offset="0.5" style="stop-color:#464646"/>		<a:midPointStop offset="1" style="stop-color:#CCCCCC"/>	</linearGradient><linearGradient gradientUnits="userSpaceOnUse" id="SVGIDserver_2_" x1="22.9014" x2="56.9328" xlink:actuate="onLoad" xlink:show="other" xlink:type="simple" xmlns:xlink="http://www.w3.org/1999/xlink" y1="69.9111" y2="49.79">		<stop offset="0" style="stop-color:#353535"/>		<stop offset="1" style="stop-color:#949494"/>		<a:midPointStop offset="0" style="stop-color:#353535"/>		<a:midPointStop offset="0.5" style="stop-color:#353535"/>		<a:midPointStop offset="1" style="stop-color:#949494"/>	</linearGradient><linearGradient gradientUnits="userSpaceOnUse" id="SVGIDserver_5_" x1="0" x2="26.3242" xlink:actuate="onLoad" xlink:show="other" xlink:type="simple" xmlns:xlink="http://www.w3.org/1999/xlink" y1="61.4395" y2="61.4395">		<stop offset="0" style="stop-color:#565656"/>		<stop offset="0.1023" style="stop-color:#696969"/>		<stop offset="0.2979" style="stop-color:#868686"/>		<stop offset="0.4908" style="stop-color:#9C9C9C"/>		<stop offset="0.6779" style="stop-color:#A9A9A9"/>		<stop offset="0.8528" style="stop-color:#ADADAD"/>		<stop offset="1" style="stop-color:#535353"/>		<a:midPointStop offset="0" style="stop-color:#565656"/>		<a:midPointStop offset="0.3067" style="stop-color:#565656"/>		<a:midPointStop offset="0.8528" style="stop-color:#ADADAD"/>		<a:midPointStop offset="0.5" style="stop-color:#ADADAD"/>		<a:midPointStop offset="1" style="stop-color:#535353"/>	</linearGradient><symbol id="com.gliffy.newnetwork.home.Server" viewBox="0 0 64 100" preserveAspectRatio="none"><g id="Layer_0">	<rect fill="none" height="99.918" width="64"/>	<path d="M26.324,69.89V36.073C20.743,39.341,0.18,28.057,0.001,22.947c0-0.01,0-0.038-0.001-0.066v63.524h0.023   c0.46,5.161,20.76,16.25,26.301,13.012V69.89z"/></g><g id="Layer_1">	<rect fill="none" height="99.918" width="64"/>		<path d="M64,14.176c0,0-33.512,19.476-37.676,21.897C20.899,39.247,0,29.642,0,22.881   C4.341,20.346,39.186-0.001,39.186-0.001L64,14.176z" fill="url(#SVGIDserver_1_)"/>		<polygon fill="url(#SVGIDserver_2_)" points="26.227,99.481 64,77.425 64,14.176 26.324,36.073  "/>	<g>		<g>			<rect clip-path="url(#SVGIDserver_4_)" fill="#C4C6C8" height="7.613" width="5.844" x="6.619" y="76.817"/>			<path clip-path="url(#SVGIDserver_4_)" d="M11.81,79.238c0.908,1.525,0.63,3.379-0.623,4.145     c-1.252,0.767-3.003,0.146-3.912-1.376c-0.908-1.525-0.63-3.379,0.622-4.145C9.15,77.104,10.901,77.717,11.81,79.238z" fill="#C4C6C8"/>			<path clip-path="url(#SVGIDserver_4_)" d="M11.771,79.266c0.893,1.498,0.618,3.32-0.615,4.066     c-1.229,0.755-2.954,0.148-3.842-1.345c-0.897-1.506-0.619-3.32,0.611-4.074C9.158,77.158,10.878,77.764,11.771,79.266z" fill="#C5C7C9"/>			<path clip-path="url(#SVGIDserver_4_)" d="M11.732,79.285c0.877,1.475,0.611,3.262-0.6,4.004     C9.924,84.024,8.23,83.43,7.349,81.96c-0.877-1.475-0.603-3.262,0.607-4.004C9.166,77.221,10.855,77.814,11.732,79.285z" fill="#C6C8CA"/>			<path clip-path="url(#SVGIDserver_4_)" d="M11.693,79.309c0.862,1.447,0.6,3.206-0.591,3.93     c-1.19,0.731-2.853,0.145-3.715-1.302c-0.862-1.447-0.595-3.207,0.591-3.93C9.169,77.275,10.836,77.862,11.693,79.309z" fill="#C7C9CB"/>			<path clip-path="url(#SVGIDserver_4_)" d="M11.659,79.332c0.843,1.424,0.584,3.151-0.587,3.863     c-1.167,0.712-2.798,0.133-3.645-1.282C6.58,80.489,6.842,78.769,8.01,78.05C9.177,77.338,10.809,77.917,11.659,79.332z" fill="#C8CACC"/>			<path clip-path="url(#SVGIDserver_4_)" d="M11.62,79.359c0.827,1.393,0.572,3.089-0.572,3.785     c-1.148,0.708-2.753,0.141-3.58-1.251c-0.831-1.4-0.58-3.097,0.569-3.793C9.181,77.4,10.79,77.96,11.62,79.359z" fill="#C9CBCD"/>			<path clip-path="url(#SVGIDserver_4_)" d="M11.578,79.383c0.816,1.369,0.568,3.034-0.56,3.719     c-1.125,0.688-2.699,0.133-3.511-1.239c-0.819-1.369-0.568-3.034,0.557-3.719C9.189,77.455,10.762,78.011,11.578,79.383z" fill="#CACCCE"/>			<path clip-path="url(#SVGIDserver_4_)" d="M11.539,79.402c0.804,1.346,0.557,2.983-0.549,3.648     c-1.102,0.677-2.648,0.137-3.448-1.208c-0.8-1.346-0.553-2.976,0.553-3.648C9.196,77.518,10.743,78.058,11.539,79.402z" fill="#CBCDCF"/>			<path clip-path="url(#SVGIDserver_4_)" d="M11.5,79.426c0.789,1.322,0.549,2.921-0.537,3.582     c-1.083,0.665-2.598,0.125-3.382-1.188c-0.785-1.322-0.542-2.921,0.537-3.582C9.205,77.572,10.716,78.112,11.5,79.426z" fill="#CCCED0"/>			<path clip-path="url(#SVGIDserver_4_)" d="M11.466,79.453c0.765,1.291,0.533,2.862-0.53,3.512     C9.873,83.61,8.388,83.09,7.62,81.8c-0.77-1.299-0.533-2.87,0.529-3.512C9.208,77.635,10.696,78.155,11.466,79.453z" fill="#CDCFD1"/>			<path clip-path="url(#SVGIDserver_4_)" d="M11.427,79.477c0.75,1.264,0.521,2.808-0.522,3.438     c-1.04,0.642-2.494,0.121-3.247-1.146c-0.754-1.264-0.522-2.8,0.514-3.438C9.216,77.697,10.669,78.21,11.427,79.477z" fill="#CED0D1"/>			<path clip-path="url(#SVGIDserver_4_)" d="M11.388,79.496c0.734,1.244,0.511,2.749-0.51,3.375     c-1.021,0.617-2.443,0.121-3.186-1.122C6.955,80.505,7.187,79,8.203,78.382C9.224,77.756,10.65,78.253,11.388,79.496z" fill="#CFD1D2"/>			<path clip-path="url(#SVGIDserver_4_)" d="M11.35,79.52c0.723,1.217,0.502,2.694-0.499,3.301     c-0.997,0.605-2.393,0.117-3.116-1.095c-0.727-1.217-0.503-2.694,0.499-3.301C9.227,77.818,10.623,78.308,11.35,79.52z" fill="#D0D2D3"/>			<path clip-path="url(#SVGIDserver_4_)" d="M11.308,79.547c0.711,1.189,0.495,2.636-0.483,3.23     c-0.979,0.594-2.343,0.113-3.05-1.071c-0.711-1.197-0.491-2.636,0.483-3.23C9.235,77.874,10.604,78.354,11.308,79.547z" fill="#D1D3D4"/>			<path clip-path="url(#SVGIDserver_4_)" d="M11.273,79.57c0.691,1.162,0.475,2.573-0.476,3.156     c-0.956,0.582-2.292,0.113-2.985-1.052c-0.691-1.162-0.479-2.573,0.476-3.156C9.243,77.937,10.576,78.405,11.273,79.57z" fill="#D2D4D5"/>			<path clip-path="url(#SVGIDserver_4_)" d="M11.233,79.59c0.677,1.143,0.472,2.522-0.467,3.094     c-0.932,0.562-2.238,0.109-2.915-1.028c-0.676-1.143-0.472-2.522,0.464-3.086C9.25,77.999,10.557,78.452,11.233,79.59z" fill="#D3D5D6"/>			<path clip-path="url(#SVGIDserver_4_)" d="M11.195,79.613c0.661,1.115,0.457,2.46-0.452,3.02     c-0.912,0.559-2.191,0.109-2.857-1.001c-0.657-1.107-0.456-2.46,0.457-3.02C9.258,78.054,10.53,78.503,11.195,79.613z" fill="#D4D6D7"/>			<path clip-path="url(#SVGIDserver_4_)" d="M11.156,79.633c0.65,1.092,0.444,2.409-0.444,2.957     c-0.89,0.539-2.138,0.105-2.787-0.978c-0.646-1.084-0.445-2.409,0.444-2.957C9.262,78.116,10.511,78.55,11.156,79.633z" fill="#D5D7D8"/>			<path clip-path="url(#SVGIDserver_4_)" d="M11.118,79.664c0.63,1.061,0.437,2.347-0.437,2.874     c-0.87,0.536-2.084,0.103-2.718-0.958c-0.63-1.052-0.437-2.346,0.437-2.874C9.27,78.179,10.484,78.604,11.118,79.664z" fill="#D6D8D9"/>			<path clip-path="url(#SVGIDserver_4_)" d="M11.083,79.684c0.61,1.041,0.421,2.288-0.425,2.812     c-0.851,0.517-2.037,0.103-2.652-0.935c-0.619-1.032-0.429-2.287,0.421-2.812C9.274,78.233,10.465,78.647,11.083,79.684z" fill="#D7D9DA"/>			<path clip-path="url(#SVGIDserver_4_)" d="M11.041,79.707c0.599,1.014,0.414,2.233-0.414,2.737     c-0.827,0.505-1.983,0.098-2.583-0.907c-0.603-1.005-0.417-2.232,0.41-2.736C9.281,78.296,10.438,78.702,11.041,79.707z" fill="#D8DADB"/>			<path clip-path="url(#SVGIDserver_4_)" d="M11.002,79.731c0.583,0.985,0.406,2.178-0.398,2.67     c-0.808,0.493-1.937,0.098-2.524-0.888c-0.584-0.978-0.402-2.178,0.406-2.67C9.293,78.351,10.418,78.745,11.002,79.731z" fill="#D9DBDC"/>			<path clip-path="url(#SVGIDserver_4_)" d="M10.963,79.759c0.572,0.958,0.394,2.111-0.391,2.592     c-0.785,0.481-1.886,0.094-2.455-0.864c-0.564-0.95-0.395-2.111,0.39-2.592C9.297,78.413,10.392,78.801,10.963,79.759z" fill="#DADCDD"/>			<path clip-path="url(#SVGIDserver_4_)" d="M10.925,79.778c0.556,0.927,0.383,2.064-0.379,2.529     c-0.765,0.47-1.832,0.09-2.389-0.841c-0.553-0.927-0.383-2.064,0.383-2.529C9.305,78.476,10.372,78.848,10.925,79.778z" fill="#DBDDDE"/>			<path clip-path="url(#SVGIDserver_4_)" d="M10.89,79.802c0.538,0.899,0.367,2.01-0.371,2.455     c-0.743,0.458-1.782,0.09-2.324-0.813c-0.537-0.899-0.375-2.01,0.367-2.455C9.309,78.53,10.353,78.898,10.89,79.802z" fill="#DCDEDF"/>			<path clip-path="url(#SVGIDserver_4_)" d="M10.847,79.825c0.526,0.876,0.363,1.947-0.359,2.389     C9.765,82.652,8.756,82.3,8.234,81.42c-0.521-0.876-0.363-1.947,0.36-2.389C9.316,78.593,10.325,78.945,10.847,79.825z" fill="#DDDFE0"/>			<path clip-path="url(#SVGIDserver_4_)" d="M10.809,79.853c0.51,0.849,0.352,1.889-0.348,2.311     c-0.7,0.431-1.682,0.086-2.188-0.763c-0.506-0.856-0.353-1.896,0.352-2.318C9.32,78.651,10.298,78.996,10.809,79.853z" fill="#DEE0E1"/>			<path clip-path="url(#SVGIDserver_4_)" d="M10.77,79.872c0.495,0.825,0.34,1.838-0.336,2.248     c-0.681,0.41-1.631,0.082-2.123-0.747c-0.491-0.825-0.34-1.838,0.337-2.248C9.328,78.714,10.279,79.043,10.77,79.872z" fill="#DFE1E2"/>			<path clip-path="url(#SVGIDserver_4_)" d="M10.731,79.896c0.479,0.798,0.333,1.775-0.324,2.174     c-0.661,0.406-1.577,0.078-2.057-0.72c-0.479-0.798-0.332-1.775,0.329-2.174C9.332,78.777,10.259,79.098,10.731,79.896z" fill="#E0E2E3"/>			<path clip-path="url(#SVGIDserver_4_)" d="M10.696,79.919c0.46,0.774,0.317,1.721-0.32,2.107     c-0.634,0.387-1.527,0.078-1.988-0.7c-0.463-0.774-0.32-1.721,0.313-2.107C9.343,78.832,10.232,79.141,10.696,79.919z" fill="#E2E3E4"/>			<path clip-path="url(#SVGIDserver_4_)" d="M10.658,79.946c0.444,0.743,0.306,1.662-0.305,2.029     c-0.619,0.375-1.481,0.074-1.925-0.669c-0.449-0.751-0.309-1.662,0.305-2.037C9.351,78.895,10.213,79.195,10.658,79.946z" fill="#E3E3E4"/>			<path clip-path="url(#SVGIDserver_4_)" d="M10.619,79.966c0.429,0.724,0.297,1.603-0.297,1.967     c-0.592,0.363-1.427,0.074-1.859-0.653c-0.425-0.724-0.298-1.604,0.301-1.967C9.354,78.949,10.186,79.238,10.619,79.966z" fill="#E4E4E5"/>			<path clip-path="url(#SVGIDserver_4_)" d="M10.576,79.989c0.418,0.696,0.291,1.548-0.282,1.9     c-0.576,0.344-1.376,0.062-1.793-0.634c-0.41-0.696-0.286-1.549,0.286-1.893C9.363,79.012,10.167,79.293,10.576,79.989z" fill="#E5E5E6"/>			<path clip-path="url(#SVGIDserver_4_)" d="M10.538,80.013c0.406,0.673,0.279,1.493-0.27,1.826     c-0.553,0.332-1.326,0.066-1.724-0.606c-0.402-0.673-0.279-1.485,0.274-1.826C9.367,79.074,10.14,79.34,10.538,80.013z" fill="#E6E6E7"/>			<path clip-path="url(#SVGIDserver_4_)" d="M10.503,80.04c0.387,0.642,0.267,1.427-0.267,1.756     c-0.529,0.32-1.271,0.059-1.654-0.583c-0.387-0.649-0.271-1.435,0.263-1.756C9.374,79.129,10.121,79.391,10.503,80.04z" fill="#E7E7E8"/>			<path clip-path="url(#SVGIDserver_4_)" d="M10.465,80.06c0.371,0.618,0.254,1.376-0.251,1.686     c-0.515,0.309-1.225,0.062-1.593-0.56C8.25,80.567,8.362,79.81,8.872,79.5C9.382,79.191,10.093,79.438,10.465,80.06z" fill="#E8E8E9"/>			<path clip-path="url(#SVGIDserver_4_)" d="M10.426,80.083c0.351,0.595,0.243,1.321-0.244,1.619     c-0.487,0.297-1.171,0.055-1.527-0.54c-0.352-0.595-0.244-1.313,0.244-1.611C9.39,79.254,10.074,79.488,10.426,80.083z" fill="#E9E9EA"/>			<path clip-path="url(#SVGIDserver_4_)" d="M10.387,80.106c0.336,0.567,0.236,1.259-0.236,1.545     c-0.464,0.285-1.117,0.059-1.458-0.513c-0.336-0.567-0.235-1.259,0.236-1.545C9.398,79.309,10.047,79.535,10.387,80.106z" fill="#EAEAEB"/>			<path clip-path="url(#SVGIDserver_4_)" d="M10.353,80.134c0.316,0.54,0.22,1.2-0.225,1.475     c-0.444,0.266-1.07,0.047-1.396-0.489c-0.325-0.548-0.224-1.208,0.225-1.475C9.402,79.371,10.028,79.59,10.353,80.134z" fill="#EBEBEC"/>			<path clip-path="url(#SVGIDserver_4_)" d="M10.31,80.157c0.31,0.513,0.213,1.146-0.212,1.399     c-0.425,0.263-1.016,0.056-1.326-0.469c-0.309-0.513-0.212-1.138,0.212-1.4C9.409,79.426,10,79.633,10.31,80.157z" fill="#ECECED"/>			<path clip-path="url(#SVGIDserver_4_)" d="M10.271,80.177c0.294,0.493,0.205,1.087-0.197,1.337     c-0.406,0.243-0.97,0.043-1.26-0.445c-0.293-0.493-0.205-1.087,0.201-1.337C9.417,79.488,9.981,79.688,10.271,80.177z" fill="#EDEDEE"/>			<path clip-path="url(#SVGIDserver_4_)" d="M10.232,80.2c0.278,0.466,0.194,1.032-0.189,1.263     c-0.383,0.239-0.916,0.051-1.194-0.418c-0.274-0.466-0.193-1.032,0.189-1.263C9.421,79.551,9.955,79.731,10.232,80.2z" fill="#EEEEEF"/>			<path clip-path="url(#SVGIDserver_4_)" d="M10.194,80.22c0.263,0.442,0.182,0.974-0.177,1.2     c-0.364,0.22-0.866,0.039-1.13-0.395c-0.258-0.442-0.181-0.974,0.182-1.2C9.429,79.605,9.935,79.786,10.194,80.22z" fill="#EFEFF0"/>			<path clip-path="url(#SVGIDserver_4_)" d="M10.155,80.251c0.248,0.411,0.17,0.911-0.166,1.118     c-0.34,0.207-0.816,0.043-1.063-0.375c-0.248-0.411-0.174-0.911,0.166-1.118C9.437,79.668,9.908,79.841,10.155,80.251z" fill="#F0F0F1"/>			<path clip-path="url(#SVGIDserver_4_)" d="M10.121,80.271c0.232,0.392,0.158,0.86-0.162,1.056     c-0.318,0.195-0.762,0.035-0.994-0.352c-0.232-0.392-0.163-0.86,0.158-1.056S9.889,79.884,10.121,80.271z" fill="#F1F1F2"/>			<path clip-path="url(#SVGIDserver_4_)" d="M10.082,80.294c0.212,0.363,0.146,0.798-0.151,0.981     c-0.294,0.184-0.711,0.039-0.928-0.324c-0.217-0.364-0.151-0.798,0.151-0.981C9.448,79.786,9.862,79.938,10.082,80.294z" fill="#F2F2F3"/>			<path clip-path="url(#SVGIDserver_4_)" d="M10.039,80.313c0.201,0.34,0.14,0.747-0.135,0.919     c-0.275,0.172-0.661,0.031-0.862-0.301c-0.201-0.341-0.136-0.747,0.135-0.919C9.456,79.849,9.842,79.981,10.039,80.313z" fill="#F3F3F4"/>			<path clip-path="url(#SVGIDserver_4_)" d="M10,80.345c0.186,0.309,0.131,0.685-0.124,0.837     c-0.259,0.16-0.611,0.035-0.796-0.281c-0.186-0.31-0.128-0.685,0.127-0.837C9.46,79.903,9.815,80.036,10,80.345z" fill="#F4F4F5"/>			<path clip-path="url(#SVGIDserver_4_)" d="M9.962,80.364c0.169,0.285,0.12,0.626-0.117,0.774     c-0.231,0.141-0.561,0.023-0.727-0.258c-0.166-0.286-0.116-0.626,0.112-0.774C9.467,79.966,9.795,80.083,9.962,80.364z" fill="#F5F5F6"/>			<path clip-path="url(#SVGIDserver_4_)" d="M9.927,80.388c0.155,0.258,0.104,0.571-0.105,0.7     c-0.216,0.137-0.51,0.031-0.665-0.23c-0.154-0.259-0.104-0.571,0.104-0.7C9.475,80.021,9.769,80.134,9.927,80.388z" fill="#F6F6F6"/>			<path clip-path="url(#SVGIDserver_4_)" d="M9.889,80.407c0.139,0.238,0.097,0.521-0.097,0.638     c-0.189,0.117-0.459,0.02-0.595-0.207C9.058,80.599,9.1,80.317,9.293,80.2C9.479,80.083,9.749,80.181,9.889,80.407z" fill="#F7F7F7"/>			<path clip-path="url(#SVGIDserver_4_)" d="M9.85,80.438c0.124,0.207,0.085,0.454-0.089,0.556     c-0.166,0.113-0.402,0.027-0.53-0.18c-0.119-0.216-0.081-0.462,0.085-0.563C9.491,80.146,9.726,80.231,9.85,80.438z" fill="#F8F8F8"/>			<path clip-path="url(#SVGIDserver_4_)" d="M9.811,80.458c0.108,0.184,0.074,0.403-0.073,0.493     c-0.151,0.09-0.36,0.016-0.464-0.164c-0.108-0.185-0.074-0.403,0.073-0.493C9.495,80.204,9.703,80.278,9.811,80.458z" fill="#F9F9F9"/>			<path clip-path="url(#SVGIDserver_4_)" d="M9.769,80.481c0.093,0.156,0.069,0.349-0.062,0.419     c-0.124,0.078-0.301,0.02-0.395-0.137c-0.093-0.157-0.066-0.349,0.062-0.419C9.502,80.267,9.68,80.333,9.769,80.481z" fill="#FAFAFA"/>			<path clip-path="url(#SVGIDserver_4_)" d="M9.733,80.505c0.078,0.133,0.054,0.286-0.05,0.353     c-0.112,0.066-0.259,0.012-0.333-0.117c-0.077-0.134-0.054-0.286,0.051-0.353C9.51,80.329,9.657,80.376,9.733,80.505z" fill="#FBFBFB"/>			<path clip-path="url(#SVGIDserver_4_)" d="M9.695,80.532c0.062,0.102,0.043,0.228-0.042,0.282     c-0.085,0.047-0.201,0.008-0.263-0.094c-0.066-0.11-0.042-0.235,0.039-0.282C9.514,80.384,9.637,80.431,9.695,80.532z" fill="#FCFCFC"/>			<path clip-path="url(#SVGIDserver_4_)" d="M9.657,80.552c0.046,0.082,0.031,0.177-0.035,0.212     c-0.062,0.035-0.15,0.008-0.197-0.07c-0.047-0.083-0.031-0.169,0.035-0.212C9.521,80.446,9.61,80.474,9.657,80.552z" fill="#FDFDFD"/>			<path clip-path="url(#SVGIDserver_4_)" d="M9.618,80.575c0.031,0.055,0.022,0.114-0.02,0.146     c-0.042,0.023-0.104,0.004-0.135-0.051c-0.027-0.048-0.02-0.114,0.023-0.138C9.525,80.501,9.587,80.528,9.618,80.575z" fill="#FEFEFE"/>			<path clip-path="url(#SVGIDserver_4_)" d="M9.583,80.599c0.011,0.031,0.007,0.059-0.016,0.071     c-0.019,0.012-0.05,0-0.065-0.024c-0.011-0.023-0.007-0.059,0.012-0.07C9.537,80.563,9.564,80.575,9.583,80.599z" fill="#FFFFFF"/>		</g>	</g>		<path d="M1.381,61.784c-0.022-1.429,0-0.961,0-2.935c0.651,1.635,17.672,13.745,24.943,10.427v-9.213   c-8.187,2.894-24.05-8.887-24.943-10.315c-0.022-1.422,0-0.953,0-2.935c0.651,1.642,17.672,13.752,24.943,10.435v-9.214   c-8.187,2.886-24.05-8.887-24.943-10.315c-0.022-1.422,0-0.961,0-2.935c0.651,1.643,17.672,13.752,24.943,10.435v-9.146   C20.743,39.341,0.18,28.057,0.001,22.947c0-0.01,0-0.038-0.001-0.066v63.524h0.023c0.46,5.161,20.76,16.25,26.301,13.012V72.092   C18.138,74.985,2.274,63.206,1.381,61.784z M9.246,85.664c-2.151-1.257-3.882-4.29-3.876-6.776c0.006-2.502,1.753-3.504,3.9-2.248   c2.141,1.253,3.874,4.287,3.866,6.779C13.129,85.915,11.387,86.917,9.246,85.664z" fill="url(#SVGIDserver_5_)"/></g></symbol></defs><g transform='translate(741.6,57.0) rotate(0 38.4 60.0)'><use xlink:href='#com.gliffy.newnetwork.home.Server' width='76.8' height='120.0'  fill="#003366"/><g  transform='translate(0.0,137.0)'><text x='38.4' style='text-anchor: middle' y='-2.0'><tspan xml:space='preserve' font-size='12' font-family='Arial' fill='#000000' font-weight='bold' >central server #1</tspan></text><text x='38.4' style='text-anchor: middle' y='12.8'><tspan xml:space='preserve' font-size='12' font-family='Arial' fill='#000000' font-weight='bold' >(logs collector)</tspan></text><text x='38.4' style='text-anchor: middle' y='27.6'><tspan xml:space='preserve' font-size='12' font-family='Arial' fill='#000000' font-weight='bold' >[192.168.1.1</tspan><tspan xml:space='preserve' font-size='12' font-family='Arial' fill='#000000' font-weight='bold' >]</tspan></text></g></g><g transform='translate(741.6,275.0) rotate(0 38.4 60.0)'><use xlink:href='#com.gliffy.newnetwork.home.Server' width='76.8' height='120.0'  fill="#003366"/><g  transform='translate(0.0,137.0)'><text x='38.4' style='text-anchor: middle' y='-2.0'><tspan xml:space='preserve' font-size='12' font-family='Arial' fill='#000000' font-weight='bold' >central server #2</tspan></text><text x='38.4' style='text-anchor: middle' y='12.8'><tspan xml:space='preserve' font-size='12' font-family='Arial' fill='#000000' font-weight='bold' >(monitoring)</tspan></text></g></g><g transform='translate(233.0,119.0)'><line x1='0.0' y1='0.0' x2='509.1' y2='0.0' stroke-dasharray='23, 0' stroke='#000000' stroke-width='1' /><g transform='translate(509.6,0.0) rotate(180.0)'><polygon points='2.0,0 8.0,-3.0 8.0,3.0' fill='#000000' stroke='#000000' stroke-width='1.0' /></g><g transform='translate(244.8,0.0)'><rect fill='#ffffff' x='-58.0' y='-9.0' width='116.0' height='14'/><text x='0.0' style='text-anchor: middle' y='2.0'><tspan font-size='12px' font-family='Arial' fill='#000000' >CC logfile transport</tspan></text></g></g><g transform='translate(738.0,137.0)'><line x1='-0.4658122303812218' y1='0.18171121601946183' x2='-502.44117647058823' y2='196.0' stroke-dasharray='23, 0' stroke='#000000' stroke-width='1' /><g transform='translate(0.0,0.0) rotate(158.68947132017573)'><polygon points='2.0,0 8.0,-3.0 8.0,3.0' fill='#000000' stroke='#000000' stroke-width='1.0' /></g><g transform='translate(-245.87871053910632,93.0)'><rect fill='#ffffff' x='-58.0' y='-9.0' width='116.0' height='14'/><text x='0.0' style='text-anchor: middle' y='2.0'><tspan font-size='12px' font-family='Arial' fill='#000000' >CC logfile transport</tspan></text></g></g></svg>