<svg xmlns:gliffy="http://www.gliffy.com" xmlns:x="http://ns.adobe.com/Extensibility/1.0/" xmlns:i="http://ns.adobe.com/AdobeIllustrator/10.0/" xmlns:graph="http://ns.adobe.com/Graphs/1.0/" xmlns:a="http://ns.adobe.com/AdobeSVGViewerExtensions/3.0/" xmlns="http://www.w3.org/2000/svg" xmlns:xlink="http://www.w3.org/1999/xlink" width="1265" height="681"><rect stroke="#000000" stroke-width="0" fill="#ffffff" x="0" y="0" width="1264" height="680"/><defs>    <path d="M11.396,79.492c1.049,1.759,1.067,3.689,0.043,4.313c-1.023,0.628-2.705-0.294-3.754-2.053      c-1.043-1.758-1.065-3.689-0.042-4.312C8.67,76.817,10.347,77.734,11.396,79.492z" id="SVGIDserver_proxy_3_"/>    <clipPath id="SVGIDserver_proxy_4_">        <use overflow="visible" xlink:actuate="onLoad" xlink:href="#SVGIDserver_proxy_3_" xlink:show="embed" xlink:type="simple" xmlns:xlink="http://www.w3.org/1999/xlink"/>    </clipPath>    <linearGradient gradientUnits="userSpaceOnUse" id="SVGIDserver_proxy_1_" x1="10.5391" x2="50.7506" xlink:actuate="onLoad" xlink:show="other" xlink:type="simple" xmlns:xlink="http://www.w3.org/1999/xlink" y1="31.2197" y2="7.4446">		<stop offset="0" style="stop-color:#464646"/>		<stop offset="1" style="stop-color:#CCCCCC"/>		<a:midPointStop offset="0" style="stop-color:#464646"/>		<a:midPointStop offset="0.5" style="stop-color:#464646"/>		<a:midPointStop offset="1" style="stop-color:#CCCCCC"/>	</linearGradient><linearGradient gradientUnits="userSpaceOnUse" id="SVGIDserver_proxy_2_" x1="22.9014" x2="56.9326" xlink:actuate="onLoad" xlink:show="other" xlink:type="simple" xmlns:xlink="http://www.w3.org/1999/xlink" y1="69.9111" y2="49.7902">		<stop offset="0" style="stop-color:#353535"/>		<stop offset="1" style="stop-color:#949494"/>		<a:midPointStop offset="0" style="stop-color:#353535"/>		<a:midPointStop offset="0.5" style="stop-color:#353535"/>		<a:midPointStop offset="1" style="stop-color:#949494"/>	</linearGradient><linearGradient gradientUnits="userSpaceOnUse" id="SVGIDserver_proxy_5_" x1="0" x2="26.3237" xlink:actuate="onLoad" xlink:show="other" xlink:type="simple" xmlns:xlink="http://www.w3.org/1999/xlink" y1="61.4414" y2="61.4414">		<stop offset="0" style="stop-color:#565656"/>		<stop offset="0.1023" style="stop-color:#696969"/>		<stop offset="0.2979" style="stop-color:#868686"/>		<stop offset="0.4908" style="stop-color:#9C9C9C"/>		<stop offset="0.6779" style="stop-color:#A9A9A9"/>		<stop offset="0.8528" style="stop-color:#ADADAD"/>		<stop offset="1" style="stop-color:#535353"/>		<a:midPointStop offset="0" style="stop-color:#565656"/>		<a:midPointStop offset="0.3067" style="stop-color:#565656"/>		<a:midPointStop offset="0.8528" style="stop-color:#ADADAD"/>		<a:midPointStop offset="0.5" style="stop-color:#ADADAD"/>		<a:midPointStop offset="1" style="stop-color:#535353"/>	</linearGradient><symbol id="com.gliffy.newnetwork.business.Server_Proxy" viewBox="0 0 64 100" preserveAspectRatio="none"><g id="Layer_0">	<rect fill="none" height="100" width="64"/>	<path d="M26.324,69.891V36.074c-5.581,3.268-26.145-8.016-26.323-13.125c0-0.01,0-0.038-0.001-0.066v63.523h0.019   c0.464,5.161,20.765,16.25,26.305,13.012V69.891z"/></g><g id="Layer_1">	<rect fill="none" height="100" width="64"/>		<path d="M64,14.178c0,0-33.512,19.475-37.676,21.896C20.899,39.248,0,29.636,0,22.883   C4.341,20.348,39.187,0.001,39.187,0.001L64,14.178z" fill="url(#SVGIDserver_proxy_1_)"/>		<polygon fill="url(#SVGIDserver_proxy_2_)" points="26.227,99.482 64,77.426 64,14.178 26.324,36.074  "/>	<g>		<g>			<rect clip-path="url(#SVGIDserver_proxy_4_)" fill="#C4C6C8" height="7.613" width="5.845" x="6.618" y="76.818"/>			<path clip-path="url(#SVGIDserver_proxy_4_)" d="M11.81,79.239c0.905,1.525,0.63,3.379-0.622,4.145     c-1.253,0.767-3.003,0.146-3.912-1.376c-0.908-1.525-0.63-3.379,0.623-4.145C9.15,77.097,10.901,77.718,11.81,79.239z" fill="#C4C6C8"/>			<path clip-path="url(#SVGIDserver_proxy_4_)" d="M11.771,79.267c0.893,1.498,0.619,3.32-0.615,4.066     c-1.229,0.755-2.953,0.148-3.846-1.345c-0.893-1.506-0.615-3.32,0.615-4.074C9.158,77.159,10.878,77.765,11.771,79.267z" fill="#C5C7C9"/>			<path clip-path="url(#SVGIDserver_proxy_4_)" d="M11.732,79.286c0.878,1.475,0.611,3.261-0.599,4.004     c-1.21,0.735-2.907,0.141-3.785-1.329c-0.877-1.475-0.603-3.262,0.607-4.004C9.166,77.222,10.854,77.815,11.732,79.286z" fill="#C6C8CA"/>			<path clip-path="url(#SVGIDserver_proxy_4_)" d="M11.693,79.31c0.862,1.447,0.599,3.206-0.591,3.93     c-1.19,0.731-2.853,0.145-3.715-1.302c-0.862-1.447-0.595-3.207,0.591-3.93C9.169,77.276,10.832,77.863,11.693,79.31z" fill="#C7C9CB"/>			<path clip-path="url(#SVGIDserver_proxy_4_)" d="M11.655,79.333c0.846,1.424,0.587,3.151-0.584,3.863     c-1.167,0.712-2.798,0.133-3.645-1.282C6.58,80.49,6.842,78.77,8.009,78.051C9.177,77.339,10.809,77.918,11.655,79.333z" fill="#C8CACC"/>			<path clip-path="url(#SVGIDserver_proxy_4_)" d="M11.62,79.36c0.827,1.393,0.572,3.089-0.572,3.785     c-1.148,0.708-2.753,0.141-3.58-1.251c-0.835-1.4-0.58-3.097,0.564-3.793C9.181,77.401,10.785,77.961,11.62,79.36z" fill="#C9CBCD"/>			<path clip-path="url(#SVGIDserver_proxy_4_)" d="M11.578,79.384c0.816,1.369,0.568,3.034-0.56,3.719     c-1.125,0.688-2.699,0.133-3.514-1.239c-0.82-1.369-0.564-3.034,0.56-3.719C9.189,77.456,10.762,78.012,11.578,79.384z" fill="#CACCCE"/>			<path clip-path="url(#SVGIDserver_proxy_4_)" d="M11.539,79.403c0.804,1.346,0.557,2.983-0.549,3.648     c-1.102,0.677-2.648,0.137-3.449-1.208c-0.8-1.346-0.552-2.976,0.553-3.648C9.193,77.519,10.743,78.059,11.539,79.403z" fill="#CBCDCF"/>			<path clip-path="url(#SVGIDserver_proxy_4_)" d="M11.5,79.427c0.788,1.322,0.549,2.921-0.537,3.582     c-1.083,0.665-2.598,0.125-3.383-1.188c-0.785-1.322-0.542-2.921,0.537-3.582C9.205,77.573,10.716,78.113,11.5,79.427z" fill="#CCCED0"/>			<path clip-path="url(#SVGIDserver_proxy_4_)" d="M11.462,79.454c0.769,1.291,0.537,2.862-0.526,3.512     c-1.067,0.646-2.548,0.125-3.317-1.165c-0.769-1.299-0.533-2.87,0.53-3.512C9.208,77.636,10.696,78.156,11.462,79.454z" fill="#CDCFD1"/>			<path clip-path="url(#SVGIDserver_proxy_4_)" d="M11.427,79.478c0.75,1.264,0.521,2.808-0.522,3.438     c-1.04,0.642-2.493,0.121-3.247-1.146c-0.753-1.264-0.522-2.8,0.515-3.438C9.216,77.698,10.669,78.211,11.427,79.478z" fill="#CED0D1"/>			<path clip-path="url(#SVGIDserver_proxy_4_)" d="M11.388,79.497c0.735,1.244,0.507,2.749-0.51,3.375     c-1.021,0.617-2.443,0.121-3.185-1.122c-0.738-1.244-0.507-2.749,0.511-3.367C9.224,77.757,10.65,78.254,11.388,79.497z" fill="#CFD1D2"/>			<path clip-path="url(#SVGIDserver_proxy_4_)" d="M11.35,79.521c0.723,1.217,0.499,2.694-0.499,3.301     c-0.997,0.605-2.393,0.117-3.115-1.095c-0.728-1.217-0.503-2.694,0.498-3.301C9.228,77.819,10.623,78.309,11.35,79.521z" fill="#D0D2D3"/>			<path clip-path="url(#SVGIDserver_proxy_4_)" d="M11.307,79.548c0.711,1.189,0.491,2.636-0.483,3.23     c-0.978,0.594-2.343,0.113-3.05-1.071c-0.711-1.197-0.491-2.636,0.483-3.23C9.235,77.875,10.604,78.355,11.307,79.548z" fill="#D1D3D4"/>			<path clip-path="url(#SVGIDserver_proxy_4_)" d="M11.269,79.571c0.696,1.162,0.479,2.573-0.472,3.156     c-0.955,0.582-2.292,0.113-2.984-1.052c-0.696-1.162-0.479-2.573,0.476-3.156C9.239,77.938,10.577,78.406,11.269,79.571z" fill="#D2D4D5"/>			<path clip-path="url(#SVGIDserver_proxy_4_)" d="M11.233,79.591c0.677,1.143,0.468,2.522-0.467,3.094     c-0.932,0.562-2.238,0.109-2.915-1.028c-0.676-1.143-0.472-2.522,0.464-3.086C9.25,78,10.558,78.453,11.233,79.591z" fill="#D3D5D6"/>			<path clip-path="url(#SVGIDserver_proxy_4_)" d="M11.195,79.614c0.661,1.115,0.457,2.46-0.452,3.02     c-0.912,0.559-2.192,0.109-2.857-1.001c-0.657-1.107-0.456-2.46,0.457-3.02C9.258,78.055,10.53,78.504,11.195,79.614z" fill="#D4D6D7"/>			<path clip-path="url(#SVGIDserver_proxy_4_)" d="M11.156,79.634c0.649,1.092,0.445,2.409-0.444,2.957     c-0.893,0.539-2.138,0.105-2.787-0.978c-0.646-1.084-0.445-2.409,0.444-2.957C9.262,78.117,10.511,78.551,11.156,79.634z" fill="#D5D7D8"/>			<path clip-path="url(#SVGIDserver_proxy_4_)" d="M11.118,79.665c0.63,1.061,0.437,2.347-0.437,2.874     c-0.87,0.536-2.084,0.103-2.718-0.958c-0.63-1.052-0.437-2.346,0.437-2.874C9.27,78.18,10.483,78.605,11.118,79.665z" fill="#D6D8D9"/>			<path clip-path="url(#SVGIDserver_proxy_4_)" d="M11.083,79.685c0.61,1.041,0.421,2.288-0.425,2.812     c-0.851,0.517-2.038,0.103-2.652-0.935c-0.619-1.032-0.43-2.287,0.421-2.812C9.274,78.234,10.464,78.648,11.083,79.685z" fill="#D7D9DA"/>			<path clip-path="url(#SVGIDserver_proxy_4_)" d="M11.041,79.708c0.599,1.014,0.414,2.233-0.414,2.737     C9.8,82.95,8.644,82.543,8.044,81.538c-0.603-1.005-0.417-2.232,0.411-2.736C9.282,78.297,10.437,78.703,11.041,79.708z" fill="#D8DADB"/>			<path clip-path="url(#SVGIDserver_proxy_4_)" d="M11.002,79.732c0.583,0.985,0.405,2.178-0.398,2.67     c-0.808,0.493-1.937,0.098-2.524-0.888c-0.583-0.978-0.402-2.178,0.406-2.67C9.289,78.352,10.417,78.746,11.002,79.732z" fill="#D9DBDC"/>			<path clip-path="url(#SVGIDserver_proxy_4_)" d="M10.963,79.76c0.572,0.958,0.394,2.111-0.391,2.592     c-0.785,0.481-1.886,0.094-2.455-0.864c-0.568-0.95-0.394-2.111,0.391-2.592C9.297,78.414,10.391,78.802,10.963,79.76z" fill="#DADCDD"/>			<path clip-path="url(#SVGIDserver_proxy_4_)" d="M10.924,79.779c0.557,0.927,0.383,2.064-0.383,2.529     c-0.761,0.47-1.832,0.09-2.385-0.841c-0.557-0.927-0.382-2.064,0.383-2.529C9.305,78.477,10.372,78.849,10.924,79.779z" fill="#DBDDDE"/>			<path clip-path="url(#SVGIDserver_proxy_4_)" d="M10.889,79.803c0.538,0.899,0.368,2.01-0.37,2.455     c-0.747,0.458-1.782,0.09-2.324-0.813c-0.538-0.899-0.375-2.01,0.367-2.455C9.309,78.531,10.348,78.899,10.889,79.803z" fill="#DCDEDF"/>			<path clip-path="url(#SVGIDserver_proxy_4_)" d="M10.847,79.826c0.526,0.876,0.364,1.947-0.359,2.389     c-0.723,0.438-1.731,0.086-2.253-0.794c-0.521-0.876-0.363-1.947,0.359-2.389C9.316,78.594,10.325,78.946,10.847,79.826z" fill="#DDDFE0"/>			<path clip-path="url(#SVGIDserver_proxy_4_)" d="M10.809,79.854c0.506,0.849,0.352,1.889-0.348,2.311     c-0.7,0.431-1.681,0.086-2.188-0.763c-0.506-0.856-0.353-1.896,0.351-2.318C9.32,78.652,10.298,78.997,10.809,79.854z" fill="#DEE0E1"/>			<path clip-path="url(#SVGIDserver_proxy_4_)" d="M10.77,79.873c0.494,0.825,0.34,1.838-0.337,2.248     c-0.68,0.41-1.631,0.082-2.122-0.747c-0.491-0.825-0.341-1.838,0.336-2.248C9.328,78.715,10.279,79.044,10.77,79.873z" fill="#DFE1E2"/>			<path clip-path="url(#SVGIDserver_proxy_4_)" d="M10.731,79.896c0.479,0.798,0.333,1.775-0.325,2.174     c-0.661,0.406-1.577,0.078-2.057-0.72c-0.479-0.798-0.332-1.775,0.329-2.174C9.332,78.777,10.255,79.099,10.731,79.896z" fill="#E0E2E3"/>			<path clip-path="url(#SVGIDserver_proxy_4_)" d="M10.696,79.92c0.46,0.774,0.317,1.721-0.321,2.107     c-0.634,0.387-1.527,0.078-1.987-0.7c-0.463-0.774-0.321-1.721,0.313-2.107C9.343,78.833,10.232,79.142,10.696,79.92z" fill="#E2E3E4"/>			<path clip-path="url(#SVGIDserver_proxy_4_)" d="M10.658,79.947c0.444,0.743,0.306,1.662-0.31,2.029     c-0.615,0.375-1.477,0.074-1.921-0.669c-0.449-0.751-0.31-1.662,0.305-2.037C9.351,78.896,10.213,79.196,10.658,79.947z" fill="#E3E3E4"/>			<path clip-path="url(#SVGIDserver_proxy_4_)" d="M10.619,79.967c0.429,0.724,0.297,1.603-0.298,1.967     c-0.591,0.363-1.426,0.074-1.859-0.653c-0.429-0.724-0.297-1.604,0.301-1.967C9.354,78.95,10.186,79.239,10.619,79.967z" fill="#E4E4E5"/>			<path clip-path="url(#SVGIDserver_proxy_4_)" d="M10.577,79.99c0.417,0.696,0.29,1.548-0.283,1.9     c-0.576,0.344-1.376,0.062-1.793-0.634c-0.41-0.696-0.286-1.549,0.286-1.893C9.363,79.013,10.167,79.294,10.577,79.99z" fill="#E5E5E6"/>			<path clip-path="url(#SVGIDserver_proxy_4_)" d="M10.538,80.014c0.405,0.673,0.278,1.493-0.271,1.826     c-0.553,0.332-1.326,0.066-1.725-0.606c-0.402-0.673-0.278-1.485,0.274-1.826C9.367,79.075,10.14,79.341,10.538,80.014z" fill="#E6E6E7"/>			<path clip-path="url(#SVGIDserver_proxy_4_)" d="M10.503,80.041c0.386,0.642,0.267,1.427-0.267,1.756     c-0.529,0.32-1.272,0.059-1.654-0.583c-0.387-0.649-0.271-1.435,0.263-1.756C9.374,79.13,10.121,79.392,10.503,80.041z" fill="#E7E7E8"/>			<path clip-path="url(#SVGIDserver_proxy_4_)" d="M10.464,80.061c0.367,0.618,0.255,1.376-0.251,1.686     c-0.515,0.309-1.226,0.062-1.593-0.56c-0.371-0.618-0.258-1.376,0.251-1.686C9.382,79.192,10.093,79.438,10.464,80.061z" fill="#E8E8E9"/>			<path clip-path="url(#SVGIDserver_proxy_4_)" d="M10.426,80.084c0.352,0.595,0.243,1.321-0.244,1.619     C9.695,82,9.011,81.758,8.655,81.163c-0.352-0.595-0.244-1.313,0.244-1.611C9.386,79.255,10.074,79.489,10.426,80.084z" fill="#E9E9EA"/>			<path clip-path="url(#SVGIDserver_proxy_4_)" d="M10.387,80.107c0.336,0.567,0.236,1.259-0.235,1.545     c-0.464,0.285-1.118,0.059-1.458-0.513c-0.336-0.567-0.236-1.259,0.236-1.545C9.397,79.31,10.047,79.536,10.387,80.107z" fill="#EAEAEB"/>			<path clip-path="url(#SVGIDserver_proxy_4_)" d="M10.348,80.135c0.321,0.54,0.225,1.2-0.22,1.475     c-0.444,0.266-1.071,0.047-1.396-0.489c-0.325-0.548-0.224-1.208,0.225-1.475C9.401,79.372,10.028,79.591,10.348,80.135z" fill="#EBEBEC"/>			<path clip-path="url(#SVGIDserver_proxy_4_)" d="M10.31,80.158c0.31,0.513,0.213,1.146-0.212,1.399     c-0.425,0.263-1.017,0.056-1.326-0.469c-0.31-0.513-0.213-1.138,0.212-1.4C9.409,79.427,10,79.634,10.31,80.158z" fill="#ECECED"/>			<path clip-path="url(#SVGIDserver_proxy_4_)" d="M10.271,80.178c0.293,0.493,0.204,1.087-0.198,1.337     c-0.406,0.243-0.97,0.043-1.26-0.445c-0.298-0.493-0.206-1.087,0.2-1.337C9.417,79.489,9.981,79.688,10.271,80.178z" fill="#EDEDEE"/>			<path clip-path="url(#SVGIDserver_proxy_4_)" d="M10.232,80.201c0.278,0.466,0.193,1.032-0.189,1.263     c-0.383,0.239-0.916,0.051-1.194-0.418c-0.275-0.466-0.193-1.032,0.189-1.263C9.42,79.552,9.954,79.732,10.232,80.201z" fill="#EEEEEF"/>			<path clip-path="url(#SVGIDserver_proxy_4_)" d="M10.194,80.221c0.263,0.441,0.182,0.974-0.182,1.2     c-0.359,0.22-0.861,0.039-1.125-0.395c-0.259-0.442-0.181-0.974,0.181-1.2C9.428,79.606,9.935,79.787,10.194,80.221z" fill="#EFEFF0"/>			<path clip-path="url(#SVGIDserver_proxy_4_)" d="M10.155,80.252c0.243,0.41,0.17,0.911-0.167,1.118     c-0.34,0.207-0.815,0.043-1.063-0.375c-0.247-0.411-0.174-0.911,0.167-1.118C9.432,79.669,9.908,79.842,10.155,80.252z" fill="#F0F0F1"/>			<path clip-path="url(#SVGIDserver_proxy_4_)" d="M10.121,80.271c0.228,0.391,0.158,0.86-0.163,1.056     c-0.316,0.195-0.765,0.035-0.994-0.352c-0.232-0.392-0.162-0.86,0.159-1.056S9.888,79.885,10.121,80.271z" fill="#F1F1F2"/>			<path clip-path="url(#SVGIDserver_proxy_4_)" d="M10.082,80.295c0.212,0.363,0.146,0.798-0.151,0.981     c-0.293,0.184-0.711,0.039-0.932-0.324c-0.212-0.364-0.147-0.798,0.155-0.981C9.447,79.787,9.861,79.939,10.082,80.295z" fill="#F2F2F3"/>			<path clip-path="url(#SVGIDserver_proxy_4_)" d="M10.039,80.314c0.201,0.34,0.14,0.747-0.135,0.919     c-0.278,0.172-0.665,0.031-0.862-0.301c-0.201-0.341-0.139-0.747,0.136-0.919C9.456,79.85,9.842,79.982,10.039,80.314z" fill="#F3F3F4"/>			<path clip-path="url(#SVGIDserver_proxy_4_)" d="M10,80.346c0.186,0.309,0.131,0.685-0.124,0.837     c-0.258,0.16-0.61,0.035-0.796-0.281c-0.186-0.31-0.132-0.685,0.128-0.837C9.459,79.904,9.815,80.037,10,80.346z" fill="#F4F4F5"/>			<path clip-path="url(#SVGIDserver_proxy_4_)" d="M9.962,80.365c0.17,0.285,0.12,0.626-0.116,0.774     c-0.231,0.141-0.561,0.023-0.726-0.258c-0.171-0.286-0.121-0.626,0.111-0.774C9.467,79.967,9.795,80.084,9.962,80.365z" fill="#F5F5F6"/>			<path clip-path="url(#SVGIDserver_proxy_4_)" d="M9.927,80.389c0.155,0.258,0.104,0.571-0.108,0.7     c-0.213,0.137-0.506,0.031-0.661-0.23c-0.159-0.259-0.104-0.571,0.104-0.7C9.475,80.021,9.769,80.135,9.927,80.389z" fill="#F6F6F6"/>			<path clip-path="url(#SVGIDserver_proxy_4_)" d="M9.888,80.408c0.14,0.238,0.097,0.521-0.097,0.638     c-0.189,0.117-0.459,0.02-0.599-0.207c-0.136-0.239-0.097-0.521,0.096-0.638C9.479,80.084,9.75,80.182,9.888,80.408z" fill="#F7F7F7"/>			<path clip-path="url(#SVGIDserver_proxy_4_)" d="M9.85,80.439c0.124,0.207,0.085,0.454-0.089,0.556     c-0.166,0.113-0.402,0.027-0.53-0.18C9.112,80.6,9.15,80.354,9.316,80.252C9.49,80.146,9.722,80.232,9.85,80.439z" fill="#F8F8F8"/>			<path clip-path="url(#SVGIDserver_proxy_4_)" d="M9.811,80.459c0.104,0.184,0.073,0.403-0.073,0.493     c-0.15,0.09-0.36,0.016-0.464-0.164c-0.108-0.185-0.074-0.403,0.073-0.493S9.703,80.279,9.811,80.459z" fill="#F9F9F9"/>			<path clip-path="url(#SVGIDserver_proxy_4_)" d="M9.769,80.482c0.093,0.156,0.07,0.349-0.062,0.419     c-0.127,0.078-0.302,0.02-0.395-0.137c-0.093-0.157-0.065-0.349,0.062-0.419C9.501,80.268,9.676,80.334,9.769,80.482z" fill="#FAFAFA"/>			<path clip-path="url(#SVGIDserver_proxy_4_)" d="M9.733,80.506c0.078,0.133,0.054,0.286-0.05,0.353     c-0.112,0.066-0.259,0.012-0.333-0.117c-0.077-0.134-0.054-0.286,0.05-0.353C9.509,80.33,9.657,80.377,9.733,80.506z" fill="#FBFBFB"/>			<path clip-path="url(#SVGIDserver_proxy_4_)" d="M9.695,80.533c0.062,0.102,0.042,0.228-0.042,0.282     c-0.085,0.047-0.202,0.008-0.267-0.094c-0.062-0.11-0.039-0.235,0.042-0.282C9.513,80.385,9.637,80.432,9.695,80.533z" fill="#FCFCFC"/>			<path clip-path="url(#SVGIDserver_proxy_4_)" d="M9.657,80.553c0.046,0.082,0.031,0.177-0.035,0.212     c-0.062,0.035-0.151,0.008-0.197-0.07c-0.047-0.083-0.031-0.169,0.035-0.212C9.521,80.447,9.61,80.475,9.657,80.553z" fill="#FDFDFD"/>			<path clip-path="url(#SVGIDserver_proxy_4_)" d="M9.618,80.576c0.031,0.055,0.023,0.114-0.02,0.146     c-0.043,0.023-0.104,0.004-0.136-0.051c-0.031-0.048-0.019-0.114,0.019-0.138C9.525,80.502,9.587,80.529,9.618,80.576z" fill="#FEFEFE"/>			<path clip-path="url(#SVGIDserver_proxy_4_)" d="M9.58,80.6c0.015,0.031,0.011,0.059-0.012,0.071     c-0.02,0.012-0.051,0-0.066-0.024c-0.011-0.023-0.007-0.059,0.012-0.07C9.536,80.564,9.564,80.576,9.58,80.6z" fill="#FFFFFF"/>		</g>	</g>		<path d="M1.381,61.785c-0.022-1.429,0-0.961,0-2.935c0.65,1.635,17.672,13.745,24.943,10.427v-9.213   c-8.186,2.894-24.049-8.887-24.943-10.315c-0.022-1.422,0-0.953,0-2.935c0.65,1.642,17.672,13.752,24.943,10.435v-9.214   C18.138,50.921,2.274,39.148,1.381,37.72c-0.022-1.422,0-0.961,0-2.935c0.65,1.643,17.672,13.752,24.943,10.435v-9.146   c-5.581,3.268-26.145-8.016-26.323-13.125c0-0.01,0-0.038-0.001-0.066v63.523h0.019c0.464,5.161,20.765,16.25,26.305,13.012V72.093   C18.138,74.986,2.274,63.207,1.381,61.785z M9.246,85.665c-2.152-1.257-3.883-4.29-3.877-6.776c0.006-2.502,1.749-3.504,3.9-2.248   c2.14,1.253,3.873,4.287,3.866,6.779C13.129,85.916,11.386,86.918,9.246,85.665z" fill="url(#SVGIDserver_proxy_5_)"/>	<g>		<g>			<polygon fill="#CCCCCC" points="46.776,62.888 34.458,70.079 34.478,78.481 46.808,71.273    "/>			<polygon fill="#CCCCCC" points="48.055,70.626 59.293,63.976 59.286,55.421 48.073,62.061    "/>			<polygon fill="#CCCCCC" points="40.396,56.924 34.448,60.403 34.46,68.548 40.427,65.061    "/>			<polygon fill="#CCCCCC" points="41.604,64.43 52.866,57.872 52.846,49.731 41.584,56.301    "/>			<polygon fill="#CCCCCC" points="48.343,50.403 59.238,44.034 59.18,36.231 48.294,42.584    "/>			<polygon fill="#CCCCCC" points="54.16,57.271 59.284,54.229 59.229,46.119 54.117,49.158    "/>			<polygon fill="#CCCCCC" points="46.765,51.445 46.733,43.585 34.446,50.759 34.458,58.629    "/>		</g>		<path d="M34.148,50.93" fill="#FFFFFF" stroke="#000000" stroke-width="0.2"/>		<path d="M54.032,67.617c2.083-3.098,2.091-10.555-2.154-13.232c0.041,6.975-1.854,10.091-1.753,16.615    C53.084,69.494,53.973,67.605,54.032,67.617z" fill="#808080"/>		<path d="M39.307,46.413c2.233,0.988,5.189,22.56,10.302,23.059c-0.193,0.099-4.036,5.137-7.617,3.244    C34.621,68.366,41.421,50.56,39.307,46.413z" fill="#808080"/>		<path d="M52.601,68.774c-0.842-7.134-4.497-11.29-5.086-15.962c-4.538,9.139-2.416,16.358-1.52,19.761    C49.942,71.967,52.546,68.756,52.601,68.774z" fill="#808080"/>	</g></g></symbol></defs><g transform='translate(284.6,281.0) rotate(0 38.4 60.0)'><use xlink:href='#com.gliffy.newnetwork.business.Server_Proxy' width='76.8' height='120.0'  fill="#003366"/><g  transform='translate(0.0,137.0)'><text x='38.4' style='text-anchor: middle' y='-2.0'><tspan xml:space='preserve' font-size='12' font-family='Arial' fill='#000000' font-weight='bold' >Proxy Src</tspan></text></g></g><defs>    <path d="M11.396,79.491c1.048,1.759,1.066,3.689,0.042,4.313c-1.023,0.628-2.704-0.294-3.753-2.053      c-1.044-1.758-1.065-3.689-0.042-4.312C8.669,76.816,10.347,77.733,11.396,79.491z" id="SVGIDserver_3_"/>    <clipPath id="SVGIDserver_4_">        <use overflow="visible" xlink:actuate="onLoad" xlink:href="#SVGIDserver_3_" xlink:show="embed" xlink:type="simple" xmlns:xlink="http://www.w3.org/1999/xlink"/>    </clipPath>    <linearGradient gradientUnits="userSpaceOnUse" id="SVGIDserver_1_" x1="10.5381" x2="50.7503" xlink:actuate="onLoad" xlink:show="other" xlink:type="simple" xmlns:xlink="http://www.w3.org/1999/xlink" y1="31.2178" y2="7.4423">		<stop offset="0" style="stop-color:#464646"/>		<stop offset="1" style="stop-color:#CCCCCC"/>		<a:midPointStop offset="0" style="stop-color:#464646"/>		<a:midPointStop offset="0.5" style="stop-color:#464646"/>		<a:midPointStop offset="1" style="stop-color:#CCCCCC"/>	</linearGradient><linearGradient gradientUnits="userSpaceOnUse" id="SVGIDserver_2_" x1="22.9014" x2="56.9328" xlink:actuate="onLoad" xlink:show="other" xlink:type="simple" xmlns:xlink="http://www.w3.org/1999/xlink" y1="69.9111" y2="49.79">		<stop offset="0" style="stop-color:#353535"/>		<stop offset="1" style="stop-color:#949494"/>		<a:midPointStop offset="0" style="stop-color:#353535"/>		<a:midPointStop offset="0.5" style="stop-color:#353535"/>		<a:midPointStop offset="1" style="stop-color:#949494"/>	</linearGradient><linearGradient gradientUnits="userSpaceOnUse" id="SVGIDserver_5_" x1="0" x2="26.3242" xlink:actuate="onLoad" xlink:show="other" xlink:type="simple" xmlns:xlink="http://www.w3.org/1999/xlink" y1="61.4395" y2="61.4395">		<stop offset="0" style="stop-color:#565656"/>		<stop offset="0.1023" style="stop-color:#696969"/>		<stop offset="0.2979" style="stop-color:#868686"/>		<stop offset="0.4908" style="stop-color:#9C9C9C"/>		<stop offset="0.6779" style="stop-color:#A9A9A9"/>		<stop offset="0.8528" style="stop-color:#ADADAD"/>		<stop offset="1" style="stop-color:#535353"/>		<a:midPointStop offset="0" style="stop-color:#565656"/>		<a:midPointStop offset="0.3067" style="stop-color:#565656"/>		<a:midPointStop offset="0.8528" style="stop-color:#ADADAD"/>		<a:midPointStop offset="0.5" style="stop-color:#ADADAD"/>		<a:midPointStop offset="1" style="stop-color:#535353"/>	</linearGradient><symbol id="com.gliffy.newnetwork.business.Server" viewBox="0 0 64 100" preserveAspectRatio="none"><g id="Layer_0">	<rect fill="none" height="99.918" width="64"/>	<path d="M26.324,69.89V36.073C20.743,39.341,0.18,28.057,0.001,22.947c0-0.01,0-0.038-0.001-0.066v63.524h0.023   c0.46,5.161,20.76,16.25,26.301,13.012V69.89z"/></g><g id="Layer_1">	<rect fill="none" height="99.918" width="64"/>		<path d="M64,14.176c0,0-33.512,19.476-37.676,21.897C20.899,39.247,0,29.642,0,22.881   C4.341,20.346,39.186-0.001,39.186-0.001L64,14.176z" fill="url(#SVGIDserver_1_)"/>		<polygon fill="url(#SVGIDserver_2_)" points="26.227,99.481 64,77.425 64,14.176 26.324,36.073  "/>	<g>		<g>			<rect clip-path="url(#SVGIDserver_4_)" fill="#C4C6C8" height="7.613" width="5.844" x="6.619" y="76.817"/>			<path clip-path="url(#SVGIDserver_4_)" d="M11.81,79.238c0.908,1.525,0.63,3.379-0.623,4.145     c-1.252,0.767-3.003,0.146-3.912-1.376c-0.908-1.525-0.63-3.379,0.622-4.145C9.15,77.104,10.901,77.717,11.81,79.238z" fill="#C4C6C8"/>			<path clip-path="url(#SVGIDserver_4_)" d="M11.771,79.266c0.893,1.498,0.618,3.32-0.615,4.066     c-1.229,0.755-2.954,0.148-3.842-1.345c-0.897-1.506-0.619-3.32,0.611-4.074C9.158,77.158,10.878,77.764,11.771,79.266z" fill="#C5C7C9"/>			<path clip-path="url(#SVGIDserver_4_)" d="M11.732,79.285c0.877,1.475,0.611,3.262-0.6,4.004     C9.924,84.024,8.23,83.43,7.349,81.96c-0.877-1.475-0.603-3.262,0.607-4.004C9.166,77.221,10.855,77.814,11.732,79.285z" fill="#C6C8CA"/>			<path clip-path="url(#SVGIDserver_4_)" d="M11.693,79.309c0.862,1.447,0.6,3.206-0.591,3.93     c-1.19,0.731-2.853,0.145-3.715-1.302c-0.862-1.447-0.595-3.207,0.591-3.93C9.169,77.275,10.836,77.862,11.693,79.309z" fill="#C7C9CB"/>			<path clip-path="url(#SVGIDserver_4_)" d="M11.659,79.332c0.843,1.424,0.584,3.151-0.587,3.863     c-1.167,0.712-2.798,0.133-3.645-1.282C6.58,80.489,6.842,78.769,8.01,78.05C9.177,77.338,10.809,77.917,11.659,79.332z" fill="#C8CACC"/>			<path clip-path="url(#SVGIDserver_4_)" d="M11.62,79.359c0.827,1.393,0.572,3.089-0.572,3.785     c-1.148,0.708-2.753,0.141-3.58-1.251c-0.831-1.4-0.58-3.097,0.569-3.793C9.181,77.4,10.79,77.96,11.62,79.359z" fill="#C9CBCD"/>			<path clip-path="url(#SVGIDserver_4_)" d="M11.578,79.383c0.816,1.369,0.568,3.034-0.56,3.719     c-1.125,0.688-2.699,0.133-3.511-1.239c-0.819-1.369-0.568-3.034,0.557-3.719C9.189,77.455,10.762,78.011,11.578,79.383z" fill="#CACCCE"/>			<path clip-path="url(#SVGIDserver_4_)" d="M11.539,79.402c0.804,1.346,0.557,2.983-0.549,3.648     c-1.102,0.677-2.648,0.137-3.448-1.208c-0.8-1.346-0.553-2.976,0.553-3.648C9.196,77.518,10.743,78.058,11.539,79.402z" fill="#CBCDCF"/>			<path clip-path="url(#SVGIDserver_4_)" d="M11.5,79.426c0.789,1.322,0.549,2.921-0.537,3.582     c-1.083,0.665-2.598,0.125-3.382-1.188c-0.785-1.322-0.542-2.921,0.537-3.582C9.205,77.572,10.716,78.112,11.5,79.426z" fill="#CCCED0"/>			<path clip-path="url(#SVGIDserver_4_)" d="M11.466,79.453c0.765,1.291,0.533,2.862-0.53,3.512     C9.873,83.61,8.388,83.09,7.62,81.8c-0.77-1.299-0.533-2.87,0.529-3.512C9.208,77.635,10.696,78.155,11.466,79.453z" fill="#CDCFD1"/>			<path clip-path="url(#SVGIDserver_4_)" d="M11.427,79.477c0.75,1.264,0.521,2.808-0.522,3.438     c-1.04,0.642-2.494,0.121-3.247-1.146c-0.754-1.264-0.522-2.8,0.514-3.438C9.216,77.697,10.669,78.21,11.427,79.477z" fill="#CED0D1"/>			<path clip-path="url(#SVGIDserver_4_)" d="M11.388,79.496c0.734,1.244,0.511,2.749-0.51,3.375     c-1.021,0.617-2.443,0.121-3.186-1.122C6.955,80.505,7.187,79,8.203,78.382C9.224,77.756,10.65,78.253,11.388,79.496z" fill="#CFD1D2"/>			<path clip-path="url(#SVGIDserver_4_)" d="M11.35,79.52c0.723,1.217,0.502,2.694-0.499,3.301     c-0.997,0.605-2.393,0.117-3.116-1.095c-0.727-1.217-0.503-2.694,0.499-3.301C9.227,77.818,10.623,78.308,11.35,79.52z" fill="#D0D2D3"/>			<path clip-path="url(#SVGIDserver_4_)" d="M11.308,79.547c0.711,1.189,0.495,2.636-0.483,3.23     c-0.979,0.594-2.343,0.113-3.05-1.071c-0.711-1.197-0.491-2.636,0.483-3.23C9.235,77.874,10.604,78.354,11.308,79.547z" fill="#D1D3D4"/>			<path clip-path="url(#SVGIDserver_4_)" d="M11.273,79.57c0.691,1.162,0.475,2.573-0.476,3.156     c-0.956,0.582-2.292,0.113-2.985-1.052c-0.691-1.162-0.479-2.573,0.476-3.156C9.243,77.937,10.576,78.405,11.273,79.57z" fill="#D2D4D5"/>			<path clip-path="url(#SVGIDserver_4_)" d="M11.233,79.59c0.677,1.143,0.472,2.522-0.467,3.094     c-0.932,0.562-2.238,0.109-2.915-1.028c-0.676-1.143-0.472-2.522,0.464-3.086C9.25,77.999,10.557,78.452,11.233,79.59z" fill="#D3D5D6"/>			<path clip-path="url(#SVGIDserver_4_)" d="M11.195,79.613c0.661,1.115,0.457,2.46-0.452,3.02     c-0.912,0.559-2.191,0.109-2.857-1.001c-0.657-1.107-0.456-2.46,0.457-3.02C9.258,78.054,10.53,78.503,11.195,79.613z" fill="#D4D6D7"/>			<path clip-path="url(#SVGIDserver_4_)" d="M11.156,79.633c0.65,1.092,0.444,2.409-0.444,2.957     c-0.89,0.539-2.138,0.105-2.787-0.978c-0.646-1.084-0.445-2.409,0.444-2.957C9.262,78.116,10.511,78.55,11.156,79.633z" fill="#D5D7D8"/>			<path clip-path="url(#SVGIDserver_4_)" d="M11.118,79.664c0.63,1.061,0.437,2.347-0.437,2.874     c-0.87,0.536-2.084,0.103-2.718-0.958c-0.63-1.052-0.437-2.346,0.437-2.874C9.27,78.179,10.484,78.604,11.118,79.664z" fill="#D6D8D9"/>			<path clip-path="url(#SVGIDserver_4_)" d="M11.083,79.684c0.61,1.041,0.421,2.288-0.425,2.812     c-0.851,0.517-2.037,0.103-2.652-0.935c-0.619-1.032-0.429-2.287,0.421-2.812C9.274,78.233,10.465,78.647,11.083,79.684z" fill="#D7D9DA"/>			<path clip-path="url(#SVGIDserver_4_)" d="M11.041,79.707c0.599,1.014,0.414,2.233-0.414,2.737     c-0.827,0.505-1.983,0.098-2.583-0.907c-0.603-1.005-0.417-2.232,0.41-2.736C9.281,78.296,10.438,78.702,11.041,79.707z" fill="#D8DADB"/>			<path clip-path="url(#SVGIDserver_4_)" d="M11.002,79.731c0.583,0.985,0.406,2.178-0.398,2.67     c-0.808,0.493-1.937,0.098-2.524-0.888c-0.584-0.978-0.402-2.178,0.406-2.67C9.293,78.351,10.418,78.745,11.002,79.731z" fill="#D9DBDC"/>			<path clip-path="url(#SVGIDserver_4_)" d="M10.963,79.759c0.572,0.958,0.394,2.111-0.391,2.592     c-0.785,0.481-1.886,0.094-2.455-0.864c-0.564-0.95-0.395-2.111,0.39-2.592C9.297,78.413,10.392,78.801,10.963,79.759z" fill="#DADCDD"/>			<path clip-path="url(#SVGIDserver_4_)" d="M10.925,79.778c0.556,0.927,0.383,2.064-0.379,2.529     c-0.765,0.47-1.832,0.09-2.389-0.841c-0.553-0.927-0.383-2.064,0.383-2.529C9.305,78.476,10.372,78.848,10.925,79.778z" fill="#DBDDDE"/>			<path clip-path="url(#SVGIDserver_4_)" d="M10.89,79.802c0.538,0.899,0.367,2.01-0.371,2.455     c-0.743,0.458-1.782,0.09-2.324-0.813c-0.537-0.899-0.375-2.01,0.367-2.455C9.309,78.53,10.353,78.898,10.89,79.802z" fill="#DCDEDF"/>			<path clip-path="url(#SVGIDserver_4_)" d="M10.847,79.825c0.526,0.876,0.363,1.947-0.359,2.389     C9.765,82.652,8.756,82.3,8.234,81.42c-0.521-0.876-0.363-1.947,0.36-2.389C9.316,78.593,10.325,78.945,10.847,79.825z" fill="#DDDFE0"/>			<path clip-path="url(#SVGIDserver_4_)" d="M10.809,79.853c0.51,0.849,0.352,1.889-0.348,2.311     c-0.7,0.431-1.682,0.086-2.188-0.763c-0.506-0.856-0.353-1.896,0.352-2.318C9.32,78.651,10.298,78.996,10.809,79.853z" fill="#DEE0E1"/>			<path clip-path="url(#SVGIDserver_4_)" d="M10.77,79.872c0.495,0.825,0.34,1.838-0.336,2.248     c-0.681,0.41-1.631,0.082-2.123-0.747c-0.491-0.825-0.34-1.838,0.337-2.248C9.328,78.714,10.279,79.043,10.77,79.872z" fill="#DFE1E2"/>			<path clip-path="url(#SVGIDserver_4_)" d="M10.731,79.896c0.479,0.798,0.333,1.775-0.324,2.174     c-0.661,0.406-1.577,0.078-2.057-0.72c-0.479-0.798-0.332-1.775,0.329-2.174C9.332,78.777,10.259,79.098,10.731,79.896z" fill="#E0E2E3"/>			<path clip-path="url(#SVGIDserver_4_)" d="M10.696,79.919c0.46,0.774,0.317,1.721-0.32,2.107     c-0.634,0.387-1.527,0.078-1.988-0.7c-0.463-0.774-0.32-1.721,0.313-2.107C9.343,78.832,10.232,79.141,10.696,79.919z" fill="#E2E3E4"/>			<path clip-path="url(#SVGIDserver_4_)" d="M10.658,79.946c0.444,0.743,0.306,1.662-0.305,2.029     c-0.619,0.375-1.481,0.074-1.925-0.669c-0.449-0.751-0.309-1.662,0.305-2.037C9.351,78.895,10.213,79.195,10.658,79.946z" fill="#E3E3E4"/>			<path clip-path="url(#SVGIDserver_4_)" d="M10.619,79.966c0.429,0.724,0.297,1.603-0.297,1.967     c-0.592,0.363-1.427,0.074-1.859-0.653c-0.425-0.724-0.298-1.604,0.301-1.967C9.354,78.949,10.186,79.238,10.619,79.966z" fill="#E4E4E5"/>			<path clip-path="url(#SVGIDserver_4_)" d="M10.576,79.989c0.418,0.696,0.291,1.548-0.282,1.9     c-0.576,0.344-1.376,0.062-1.793-0.634c-0.41-0.696-0.286-1.549,0.286-1.893C9.363,79.012,10.167,79.293,10.576,79.989z" fill="#E5E5E6"/>			<path clip-path="url(#SVGIDserver_4_)" d="M10.538,80.013c0.406,0.673,0.279,1.493-0.27,1.826     c-0.553,0.332-1.326,0.066-1.724-0.606c-0.402-0.673-0.279-1.485,0.274-1.826C9.367,79.074,10.14,79.34,10.538,80.013z" fill="#E6E6E7"/>			<path clip-path="url(#SVGIDserver_4_)" d="M10.503,80.04c0.387,0.642,0.267,1.427-0.267,1.756     c-0.529,0.32-1.271,0.059-1.654-0.583c-0.387-0.649-0.271-1.435,0.263-1.756C9.374,79.129,10.121,79.391,10.503,80.04z" fill="#E7E7E8"/>			<path clip-path="url(#SVGIDserver_4_)" d="M10.465,80.06c0.371,0.618,0.254,1.376-0.251,1.686     c-0.515,0.309-1.225,0.062-1.593-0.56C8.25,80.567,8.362,79.81,8.872,79.5C9.382,79.191,10.093,79.438,10.465,80.06z" fill="#E8E8E9"/>			<path clip-path="url(#SVGIDserver_4_)" d="M10.426,80.083c0.351,0.595,0.243,1.321-0.244,1.619     c-0.487,0.297-1.171,0.055-1.527-0.54c-0.352-0.595-0.244-1.313,0.244-1.611C9.39,79.254,10.074,79.488,10.426,80.083z" fill="#E9E9EA"/>			<path clip-path="url(#SVGIDserver_4_)" d="M10.387,80.106c0.336,0.567,0.236,1.259-0.236,1.545     c-0.464,0.285-1.117,0.059-1.458-0.513c-0.336-0.567-0.235-1.259,0.236-1.545C9.398,79.309,10.047,79.535,10.387,80.106z" fill="#EAEAEB"/>			<path clip-path="url(#SVGIDserver_4_)" d="M10.353,80.134c0.316,0.54,0.22,1.2-0.225,1.475     c-0.444,0.266-1.07,0.047-1.396-0.489c-0.325-0.548-0.224-1.208,0.225-1.475C9.402,79.371,10.028,79.59,10.353,80.134z" fill="#EBEBEC"/>			<path clip-path="url(#SVGIDserver_4_)" d="M10.31,80.157c0.31,0.513,0.213,1.146-0.212,1.399     c-0.425,0.263-1.016,0.056-1.326-0.469c-0.309-0.513-0.212-1.138,0.212-1.4C9.409,79.426,10,79.633,10.31,80.157z" fill="#ECECED"/>			<path clip-path="url(#SVGIDserver_4_)" d="M10.271,80.177c0.294,0.493,0.205,1.087-0.197,1.337     c-0.406,0.243-0.97,0.043-1.26-0.445c-0.293-0.493-0.205-1.087,0.201-1.337C9.417,79.488,9.981,79.688,10.271,80.177z" fill="#EDEDEE"/>			<path clip-path="url(#SVGIDserver_4_)" d="M10.232,80.2c0.278,0.466,0.194,1.032-0.189,1.263     c-0.383,0.239-0.916,0.051-1.194-0.418c-0.274-0.466-0.193-1.032,0.189-1.263C9.421,79.551,9.955,79.731,10.232,80.2z" fill="#EEEEEF"/>			<path clip-path="url(#SVGIDserver_4_)" d="M10.194,80.22c0.263,0.442,0.182,0.974-0.177,1.2     c-0.364,0.22-0.866,0.039-1.13-0.395c-0.258-0.442-0.181-0.974,0.182-1.2C9.429,79.605,9.935,79.786,10.194,80.22z" fill="#EFEFF0"/>			<path clip-path="url(#SVGIDserver_4_)" d="M10.155,80.251c0.248,0.411,0.17,0.911-0.166,1.118     c-0.34,0.207-0.816,0.043-1.063-0.375c-0.248-0.411-0.174-0.911,0.166-1.118C9.437,79.668,9.908,79.841,10.155,80.251z" fill="#F0F0F1"/>			<path clip-path="url(#SVGIDserver_4_)" d="M10.121,80.271c0.232,0.392,0.158,0.86-0.162,1.056     c-0.318,0.195-0.762,0.035-0.994-0.352c-0.232-0.392-0.163-0.86,0.158-1.056S9.889,79.884,10.121,80.271z" fill="#F1F1F2"/>			<path clip-path="url(#SVGIDserver_4_)" d="M10.082,80.294c0.212,0.363,0.146,0.798-0.151,0.981     c-0.294,0.184-0.711,0.039-0.928-0.324c-0.217-0.364-0.151-0.798,0.151-0.981C9.448,79.786,9.862,79.938,10.082,80.294z" fill="#F2F2F3"/>			<path clip-path="url(#SVGIDserver_4_)" d="M10.039,80.313c0.201,0.34,0.14,0.747-0.135,0.919     c-0.275,0.172-0.661,0.031-0.862-0.301c-0.201-0.341-0.136-0.747,0.135-0.919C9.456,79.849,9.842,79.981,10.039,80.313z" fill="#F3F3F4"/>			<path clip-path="url(#SVGIDserver_4_)" d="M10,80.345c0.186,0.309,0.131,0.685-0.124,0.837     c-0.259,0.16-0.611,0.035-0.796-0.281c-0.186-0.31-0.128-0.685,0.127-0.837C9.46,79.903,9.815,80.036,10,80.345z" fill="#F4F4F5"/>			<path clip-path="url(#SVGIDserver_4_)" d="M9.962,80.364c0.169,0.285,0.12,0.626-0.117,0.774     c-0.231,0.141-0.561,0.023-0.727-0.258c-0.166-0.286-0.116-0.626,0.112-0.774C9.467,79.966,9.795,80.083,9.962,80.364z" fill="#F5F5F6"/>			<path clip-path="url(#SVGIDserver_4_)" d="M9.927,80.388c0.155,0.258,0.104,0.571-0.105,0.7     c-0.216,0.137-0.51,0.031-0.665-0.23c-0.154-0.259-0.104-0.571,0.104-0.7C9.475,80.021,9.769,80.134,9.927,80.388z" fill="#F6F6F6"/>			<path clip-path="url(#SVGIDserver_4_)" d="M9.889,80.407c0.139,0.238,0.097,0.521-0.097,0.638     c-0.189,0.117-0.459,0.02-0.595-0.207C9.058,80.599,9.1,80.317,9.293,80.2C9.479,80.083,9.749,80.181,9.889,80.407z" fill="#F7F7F7"/>			<path clip-path="url(#SVGIDserver_4_)" d="M9.85,80.438c0.124,0.207,0.085,0.454-0.089,0.556     c-0.166,0.113-0.402,0.027-0.53-0.18c-0.119-0.216-0.081-0.462,0.085-0.563C9.491,80.146,9.726,80.231,9.85,80.438z" fill="#F8F8F8"/>			<path clip-path="url(#SVGIDserver_4_)" d="M9.811,80.458c0.108,0.184,0.074,0.403-0.073,0.493     c-0.151,0.09-0.36,0.016-0.464-0.164c-0.108-0.185-0.074-0.403,0.073-0.493C9.495,80.204,9.703,80.278,9.811,80.458z" fill="#F9F9F9"/>			<path clip-path="url(#SVGIDserver_4_)" d="M9.769,80.481c0.093,0.156,0.069,0.349-0.062,0.419     c-0.124,0.078-0.301,0.02-0.395-0.137c-0.093-0.157-0.066-0.349,0.062-0.419C9.502,80.267,9.68,80.333,9.769,80.481z" fill="#FAFAFA"/>			<path clip-path="url(#SVGIDserver_4_)" d="M9.733,80.505c0.078,0.133,0.054,0.286-0.05,0.353     c-0.112,0.066-0.259,0.012-0.333-0.117c-0.077-0.134-0.054-0.286,0.051-0.353C9.51,80.329,9.657,80.376,9.733,80.505z" fill="#FBFBFB"/>			<path clip-path="url(#SVGIDserver_4_)" d="M9.695,80.532c0.062,0.102,0.043,0.228-0.042,0.282     c-0.085,0.047-0.201,0.008-0.263-0.094c-0.066-0.11-0.042-0.235,0.039-0.282C9.514,80.384,9.637,80.431,9.695,80.532z" fill="#FCFCFC"/>			<path clip-path="url(#SVGIDserver_4_)" d="M9.657,80.552c0.046,0.082,0.031,0.177-0.035,0.212     c-0.062,0.035-0.15,0.008-0.197-0.07c-0.047-0.083-0.031-0.169,0.035-0.212C9.521,80.446,9.61,80.474,9.657,80.552z" fill="#FDFDFD"/>			<path clip-path="url(#SVGIDserver_4_)" d="M9.618,80.575c0.031,0.055,0.022,0.114-0.02,0.146     c-0.042,0.023-0.104,0.004-0.135-0.051c-0.027-0.048-0.02-0.114,0.023-0.138C9.525,80.501,9.587,80.528,9.618,80.575z" fill="#FEFEFE"/>			<path clip-path="url(#SVGIDserver_4_)" d="M9.583,80.599c0.011,0.031,0.007,0.059-0.016,0.071     c-0.019,0.012-0.05,0-0.065-0.024c-0.011-0.023-0.007-0.059,0.012-0.07C9.537,80.563,9.564,80.575,9.583,80.599z" fill="#FFFFFF"/>		</g>	</g>		<path d="M1.381,61.784c-0.022-1.429,0-0.961,0-2.935c0.651,1.635,17.672,13.745,24.943,10.427v-9.213   c-8.187,2.894-24.05-8.887-24.943-10.315c-0.022-1.422,0-0.953,0-2.935c0.651,1.642,17.672,13.752,24.943,10.435v-9.214   c-8.187,2.886-24.05-8.887-24.943-10.315c-0.022-1.422,0-0.961,0-2.935c0.651,1.643,17.672,13.752,24.943,10.435v-9.146   C20.743,39.341,0.18,28.057,0.001,22.947c0-0.01,0-0.038-0.001-0.066v63.524h0.023c0.46,5.161,20.76,16.25,26.301,13.012V72.092   C18.138,74.985,2.274,63.206,1.381,61.784z M9.246,85.664c-2.151-1.257-3.882-4.29-3.876-6.776c0.006-2.502,1.753-3.504,3.9-2.248   c2.141,1.253,3.874,4.287,3.866,6.779C13.129,85.915,11.387,86.917,9.246,85.664z" fill="url(#SVGIDserver_5_)"/></g></symbol></defs><g transform='translate(116.6,118.0) rotate(0 38.4 60.0)'><use xlink:href='#com.gliffy.newnetwork.business.Server' width='76.8' height='120.0'  fill="#003366"/><g  transform='translate(0.0,137.0)'><text x='38.4' style='text-anchor: middle' y='-2.0'><tspan xml:space='preserve' font-size='12' font-family='Arial' fill='#000000' font-weight='bold' >source 1</tspan></text></g></g><g transform='translate(675.6,113.0) rotate(0 38.4 60.0)'><use xlink:href='#com.gliffy.newnetwork.business.Server_Proxy' width='76.8' height='120.0'  fill="#003366"/><g  transform='translate(0.0,137.0)'><text x='38.4' style='text-anchor: middle' y='-2.0'><tspan xml:space='preserve' font-size='12' font-family='Arial' fill='#000000' font-weight='bold' >Proxy D</tspan><tspan xml:space='preserve' font-size='12' font-family='Arial' fill='#000000' font-weight='bold' >st LUX</tspan></text><text x='38.4' style='text-anchor: middle' y='12.8'><tspan xml:space='preserve' font-size='12' font-family='Arial' fill='#000000' font-weight='bold' >[192.168.1.1</tspan><tspan xml:space='preserve' font-size='12' font-family='Arial' fill='#000000' font-weight='bold' >]</tspan></text></g></g><g transform='translate(683.6,444.0) rotate(0 38.4 60.0)'><use xlink:href='#com.gliffy.newnetwork.business.Server_Proxy' width='76.8' height='120.0'  fill="#003366"/><g  transform='translate(0.0,137.0)'><text x='38.4' style='text-anchor: middle' y='-2.0'><tspan xml:space='preserve' font-size='12' font-family='Arial' fill='#000000' font-weight='bold' >Proxy Dst DUB</tspan></text><text x='38.4' style='text-anchor: middle' y='12.8'><tspan xml:space='preserve' font-size='12' font-family='Arial' fill='#000000' font-weight='bold' >[192.168.2.1</tspan><tspan xml:space='preserve' font-size='12' font-family='Arial' fill='#000000' font-weight='bold' >]</tspan></text></g></g><g transform='translate(956.6,17.0) rotate(0 38.4 60.0)'><use xlink:href='#com.gliffy.newnetwork.business.Server' width='76.8' height='120.0'  fill="#003366"/><g  transform='translate(0.0,137.0)'><text x='38.4' style='text-anchor: middle' y='-2.0'><tspan xml:space='preserve' font-size='12' font-family='Arial' fill='#000000' font-weight='bold' >master-info.host</tspan></text></g></g><g transform='translate(951.6,293.0) rotate(0 38.4 60.0)'><use xlink:href='#com.gliffy.newnetwork.business.Server' width='76.8' height='120.0'  fill="#003366"/><g  transform='translate(0.0,137.0)'><text x='38.4' style='text-anchor: middle' y='-2.0'><tspan xml:space='preserve' font-size='12' font-family='Arial' fill='#000000' font-weight='bold' >master-task.host</tspan></text></g></g><g transform='translate(108.6,444.0) rotate(0 38.4 60.0)'><use xlink:href='#com.gliffy.newnetwork.business.Server' width='76.8' height='120.0'  fill="#003366"/><g  transform='translate(0.0,137.0)'><text x='38.4' style='text-anchor: middle' y='-2.0'><tspan xml:space='preserve' font-size='12' font-family='Arial' fill='#000000' font-weight='bold' >source x</tspan></text></g></g><defs>    <path d="M11.433,79.491c1.047,1.759,1.066,3.689,0.043,4.313c-1.022,0.629-2.705-0.294-3.749-2.053      c-1.047-1.758-1.068-3.688-0.042-4.312C8.707,76.817,10.386,77.733,11.433,79.491z" id="SVGIDserver_data_3_"/>    <clipPath id="SVGIDserver_data_4_">        <use overflow="visible" xlink:actuate="onLoad" xlink:href="#SVGIDserver_data_3_" xlink:show="embed" xlink:type="simple" xmlns:xlink="http://www.w3.org/1999/xlink"/>    </clipPath>    <linearGradient gradientUnits="userSpaceOnUse" id="SVGIDserver_data_1_" x1="10.5732" x2="50.7596" xlink:actuate="onLoad" xlink:show="other" xlink:type="simple" xmlns:xlink="http://www.w3.org/1999/xlink" y1="31.21" y2="7.4498">		<stop offset="0" style="stop-color:#464646"/>		<stop offset="1" style="stop-color:#CCCCCC"/>		<a:midPointStop offset="0" style="stop-color:#464646"/>		<a:midPointStop offset="0.5" style="stop-color:#464646"/>		<a:midPointStop offset="1" style="stop-color:#CCCCCC"/>	</linearGradient><linearGradient gradientUnits="userSpaceOnUse" id="SVGIDserver_data_2_" x1="22.9238" x2="56.9437" xlink:actuate="onLoad" xlink:show="other" xlink:type="simple" xmlns:xlink="http://www.w3.org/1999/xlink" y1="69.9062" y2="49.792">		<stop offset="0" style="stop-color:#353535"/>		<stop offset="1" style="stop-color:#949494"/>		<a:midPointStop offset="0" style="stop-color:#353535"/>		<a:midPointStop offset="0.5" style="stop-color:#353535"/>		<a:midPointStop offset="1" style="stop-color:#949494"/>	</linearGradient><linearGradient gradientUnits="userSpaceOnUse" id="SVGIDserver_data_5_" x1="0.0449" x2="26.354" xlink:actuate="onLoad" xlink:show="other" xlink:type="simple" xmlns:xlink="http://www.w3.org/1999/xlink" y1="61.4395" y2="61.4395">		<stop offset="0" style="stop-color:#565656"/>		<stop offset="0.1023" style="stop-color:#696969"/>		<stop offset="0.2979" style="stop-color:#868686"/>		<stop offset="0.4908" style="stop-color:#9C9C9C"/>		<stop offset="0.6779" style="stop-color:#A9A9A9"/>		<stop offset="0.8528" style="stop-color:#ADADAD"/>		<stop offset="1" style="stop-color:#535353"/>		<a:midPointStop offset="0" style="stop-color:#565656"/>		<a:midPointStop offset="0.3067" style="stop-color:#565656"/>		<a:midPointStop offset="0.8528" style="stop-color:#ADADAD"/>		<a:midPointStop offset="0.5" style="stop-color:#ADADAD"/>		<a:midPointStop offset="1" style="stop-color:#535353"/>	</linearGradient><symbol id="com.gliffy.newnetwork.business.Server_Database" viewBox="0 0 64 100" preserveAspectRatio="none"><g id="Layer_0">	<rect fill="none" height="100" width="64"/>	<path d="M26.354,69.89V36.073c-5.582,3.268-26.13-8.016-26.309-13.125c0-0.01,0-0.039,0-0.067v63.524h0.022   c0.459,5.162,20.745,16.25,26.287,13.012V69.89z"/></g><g id="Layer_1">	<rect fill="none" height="100" width="64"/>		<path d="M64,14.177c0,0-33.492,19.474-37.646,21.896c-5.426,3.174-26.309-6.432-26.309-13.192   C4.384,20.346,39.203,0,39.203,0L64,14.177z" fill="url(#SVGIDserver_data_1_)"/>		<polygon fill="url(#SVGIDserver_data_2_)" points="26.257,99.482 64,77.425 64,14.177 26.354,36.073  "/>	<g>		<g>			<rect clip-path="url(#SVGIDserver_data_4_)" fill="#C4C6C8" height="7.613" width="5.842" x="6.658" y="76.818"/>			<path clip-path="url(#SVGIDserver_data_4_)" d="M11.847,79.239c0.907,1.524,0.629,3.378-0.622,4.144     c-1.255,0.768-3.003,0.146-3.911-1.376c-0.907-1.525-0.629-3.379,0.621-4.145C9.187,77.104,10.939,77.717,11.847,79.239z" fill="#C4C6C8"/>			<path clip-path="url(#SVGIDserver_data_4_)" d="M11.808,79.267c0.893,1.497,0.618,3.32-0.614,4.066     c-1.231,0.754-2.954,0.147-3.841-1.345c-0.896-1.507-0.618-3.32,0.613-4.075C9.194,77.158,10.917,77.764,11.808,79.267z" fill="#C5C7C9"/>			<path clip-path="url(#SVGIDserver_data_4_)" d="M11.769,79.285c0.876,1.475,0.611,3.262-0.602,4.004     c-1.208,0.736-2.899,0.142-3.776-1.329c-0.88-1.475-0.605-3.262,0.602-4.004C9.202,77.221,10.892,77.814,11.769,79.285z" fill="#C6C8CA"/>			<path clip-path="url(#SVGIDserver_data_4_)" d="M11.73,79.309c0.861,1.447,0.598,3.206-0.59,3.931     c-1.189,0.73-2.853,0.144-3.714-1.303c-0.861-1.447-0.595-3.207,0.595-3.93C9.209,77.275,10.87,77.862,11.73,79.309z" fill="#C7C9CB"/>			<path clip-path="url(#SVGIDserver_data_4_)" d="M11.692,79.333c0.846,1.423,0.587,3.151-0.583,3.862     c-1.166,0.712-2.795,0.133-3.645-1.282c-0.842-1.424-0.583-3.144,0.583-3.863C9.217,77.338,10.847,77.917,11.692,79.333z" fill="#C8CACC"/>			<path clip-path="url(#SVGIDserver_data_4_)" d="M11.658,79.36c0.826,1.392,0.571,3.088-0.572,3.785     c-1.146,0.708-2.753,0.14-3.579-1.251c-0.83-1.401-0.58-3.098,0.568-3.794C9.221,77.401,10.824,77.96,11.658,79.36z" fill="#C9CBCD"/>			<path clip-path="url(#SVGIDserver_data_4_)" d="M11.614,79.383c0.815,1.369,0.568,3.034-0.56,3.719     c-1.123,0.688-2.695,0.134-3.509-1.239c-0.818-1.369-0.568-3.034,0.556-3.719C9.229,77.455,10.8,78.011,11.614,79.383z" fill="#CACCCE"/>			<path clip-path="url(#SVGIDserver_data_4_)" d="M11.577,79.402c0.803,1.346,0.555,2.984-0.549,3.649     c-1.101,0.677-2.648,0.136-3.444-1.209c-0.803-1.346-0.556-2.975,0.548-3.648C9.233,77.518,10.777,78.058,11.577,79.402z" fill="#CBCDCF"/>			<path clip-path="url(#SVGIDserver_data_4_)" d="M11.538,79.426c0.787,1.322,0.548,2.921-0.537,3.582     c-1.084,0.665-2.594,0.125-3.382-1.188c-0.784-1.322-0.541-2.921,0.541-3.582C9.241,77.573,10.754,78.112,11.538,79.426z" fill="#CCCED0"/>			<path clip-path="url(#SVGIDserver_data_4_)" d="M11.499,79.454c0.768,1.29,0.537,2.861-0.529,3.512     c-1.062,0.645-2.544,0.124-3.312-1.165c-0.769-1.299-0.533-2.871,0.529-3.512C9.245,77.635,10.731,78.155,11.499,79.454z" fill="#CDCFD1"/>			<path clip-path="url(#SVGIDserver_data_4_)" d="M11.464,79.477c0.749,1.264,0.521,2.809-0.521,3.438     c-1.039,0.643-2.49,0.121-3.248-1.146c-0.752-1.263-0.521-2.799,0.518-3.438C9.252,77.698,10.708,78.21,11.464,79.477z" fill="#CED0D1"/>			<path clip-path="url(#SVGIDserver_data_4_)" d="M11.426,79.496c0.733,1.244,0.505,2.749-0.509,3.376     c-1.02,0.616-2.444,0.12-3.182-1.123C6.994,80.506,7.226,79,8.24,78.383C9.264,77.756,10.684,78.253,11.426,79.496z" fill="#CFD1D2"/>			<path clip-path="url(#SVGIDserver_data_4_)" d="M11.387,79.52c0.722,1.217,0.498,2.694-0.498,3.301     c-0.997,0.605-2.39,0.117-3.112-1.095c-0.73-1.216-0.505-2.694,0.494-3.301C9.268,77.818,10.662,78.308,11.387,79.52z" fill="#D0D2D3"/>			<path clip-path="url(#SVGIDserver_data_4_)" d="M11.345,79.548c0.71,1.188,0.49,2.636-0.483,3.23     c-0.977,0.594-2.343,0.112-3.05-1.071c-0.706-1.197-0.49-2.636,0.482-3.23C9.275,77.875,10.638,78.355,11.345,79.548z" fill="#D1D3D4"/>			<path clip-path="url(#SVGIDserver_data_4_)" d="M11.306,79.57c0.694,1.163,0.479,2.573-0.476,3.156     c-0.949,0.582-2.285,0.113-2.98-1.051c-0.691-1.162-0.479-2.574,0.475-3.157C9.279,77.937,10.615,78.405,11.306,79.57z" fill="#D2D4D5"/>			<path clip-path="url(#SVGIDserver_data_4_)" d="M11.271,79.59c0.676,1.144,0.467,2.522-0.468,3.095     c-0.934,0.562-2.239,0.108-2.914-1.029c-0.676-1.142-0.471-2.522,0.467-3.085C9.287,77.999,10.592,78.453,11.271,79.59z" fill="#D3D5D6"/>			<path clip-path="url(#SVGIDserver_data_4_)" d="M11.233,79.613c0.66,1.116,0.455,2.461-0.456,3.02     c-0.911,0.559-2.186,0.109-2.85-1.001c-0.66-1.106-0.459-2.46,0.453-3.02C9.294,78.054,10.568,78.503,11.233,79.613z" fill="#D4D6D7"/>			<path clip-path="url(#SVGIDserver_data_4_)" d="M11.194,79.634c0.649,1.092,0.444,2.408-0.444,2.957     c-0.891,0.538-2.139,0.104-2.784-0.978c-0.648-1.084-0.448-2.41,0.444-2.957C9.299,78.116,10.549,78.551,11.194,79.634z" fill="#D5D7D8"/>			<path clip-path="url(#SVGIDserver_data_4_)" d="M11.156,79.664c0.629,1.062,0.436,2.347-0.437,2.874     c-0.869,0.537-2.081,0.103-2.718-0.957c-0.629-1.052-0.436-2.346,0.437-2.875C9.31,78.18,10.522,78.604,11.156,79.664z" fill="#D6D8D9"/>			<path clip-path="url(#SVGIDserver_data_4_)" d="M11.117,79.684c0.614,1.042,0.425,2.289-0.421,2.812     c-0.85,0.517-2.039,0.103-2.652-0.935c-0.618-1.031-0.429-2.287,0.421-2.811C9.314,78.233,10.503,78.648,11.117,79.684z" fill="#D7D9DA"/>			<path clip-path="url(#SVGIDserver_data_4_)" d="M11.078,79.707c0.598,1.015,0.413,2.233-0.413,2.737     c-0.827,0.506-1.981,0.098-2.583-0.907c-0.602-1.004-0.417-2.232,0.413-2.736C9.322,78.296,10.476,78.702,11.078,79.707z" fill="#D8DADB"/>			<path clip-path="url(#SVGIDserver_data_4_)" d="M11.04,79.732c0.583,0.985,0.405,2.177-0.402,2.669     c-0.803,0.493-1.934,0.098-2.518-0.887c-0.583-0.978-0.405-2.178,0.402-2.67C9.329,78.351,10.456,78.746,11.04,79.732z" fill="#D9DBDC"/>			<path clip-path="url(#SVGIDserver_data_4_)" d="M11.001,79.759c0.571,0.959,0.394,2.112-0.39,2.592     c-0.787,0.481-1.888,0.094-2.451-0.863c-0.567-0.95-0.397-2.112,0.39-2.593C9.333,78.413,10.43,78.801,11.001,79.759z" fill="#DADCDD"/>			<path clip-path="url(#SVGIDserver_data_4_)" d="M10.962,79.778c0.556,0.928,0.382,2.064-0.382,2.529     c-0.765,0.471-1.83,0.09-2.385-0.841c-0.553-0.927-0.383-2.064,0.382-2.529C9.341,78.477,10.411,78.849,10.962,79.778z" fill="#DBDDDE"/>			<path clip-path="url(#SVGIDserver_data_4_)" d="M10.923,79.802c0.541,0.9,0.371,2.01-0.366,2.455     c-0.745,0.458-1.784,0.09-2.324-0.813c-0.537-0.899-0.375-2.009,0.371-2.455C9.345,78.53,10.387,78.898,10.923,79.802z" fill="#DCDEDF"/>			<path clip-path="url(#SVGIDserver_data_4_)" d="M10.885,79.826c0.521,0.876,0.363,1.947-0.359,2.388     C9.804,82.653,8.797,82.3,8.271,81.42c-0.521-0.876-0.363-1.947,0.363-2.389C9.356,78.593,10.364,78.946,10.885,79.826z" fill="#DDDFE0"/>			<path clip-path="url(#SVGIDserver_data_4_)" d="M10.847,79.854c0.506,0.849,0.351,1.888-0.352,2.311     c-0.695,0.43-1.679,0.085-2.181-0.763c-0.51-0.857-0.355-1.897,0.348-2.319C9.36,78.652,10.336,78.996,10.847,79.854z" fill="#DEE0E1"/>			<path clip-path="url(#SVGIDserver_data_4_)" d="M10.808,79.872c0.495,0.826,0.34,1.839-0.335,2.248     c-0.68,0.41-1.63,0.082-2.12-0.747c-0.494-0.825-0.339-1.837,0.336-2.248C9.368,78.714,10.318,79.044,10.808,79.872z" fill="#DFE1E2"/>			<path clip-path="url(#SVGIDserver_data_4_)" d="M10.769,79.896c0.479,0.798,0.333,1.775-0.328,2.175     c-0.656,0.406-1.576,0.077-2.054-0.721c-0.479-0.798-0.329-1.775,0.328-2.174C9.372,78.778,10.294,79.098,10.769,79.896z" fill="#E0E2E3"/>			<path clip-path="url(#SVGIDserver_data_4_)" d="M10.731,79.92c0.463,0.773,0.32,1.72-0.317,2.106     c-0.637,0.387-1.525,0.078-1.988-0.7c-0.459-0.774-0.316-1.721,0.316-2.107C9.38,78.832,10.271,79.142,10.731,79.92z" fill="#E2E3E4"/>			<path clip-path="url(#SVGIDserver_data_4_)" d="M10.696,79.947c0.444,0.742,0.305,1.662-0.309,2.029     c-0.618,0.374-1.479,0.073-1.922-0.669c-0.444-0.752-0.305-1.662,0.304-2.038C9.388,78.895,10.248,79.195,10.696,79.947z" fill="#E3E3E4"/>			<path clip-path="url(#SVGIDserver_data_4_)" d="M10.658,79.966c0.428,0.724,0.296,1.603-0.298,1.967     s-1.424,0.074-1.856-0.653c-0.428-0.724-0.298-1.604,0.296-1.967C9.391,78.95,10.226,79.239,10.658,79.966z" fill="#E4E4E5"/>			<path clip-path="url(#SVGIDserver_data_4_)" d="M10.615,79.989c0.417,0.696,0.29,1.548-0.282,1.901     c-0.575,0.343-1.378,0.062-1.791-0.635c-0.414-0.696-0.286-1.549,0.286-1.892C9.402,79.012,10.202,79.293,10.615,79.989z" fill="#E5E5E6"/>			<path clip-path="url(#SVGIDserver_data_4_)" d="M10.576,80.014c0.406,0.672,0.278,1.493-0.274,1.825     c-0.548,0.333-1.32,0.067-1.722-0.606c-0.402-0.673-0.274-1.484,0.274-1.826C9.406,79.074,10.179,79.341,10.576,80.014z" fill="#E6E6E7"/>			<path clip-path="url(#SVGIDserver_data_4_)" d="M10.538,80.041c0.385,0.641,0.27,1.426-0.263,1.756     c-0.528,0.319-1.273,0.058-1.656-0.583c-0.386-0.65-0.267-1.436,0.267-1.756C9.414,79.129,10.155,79.391,10.538,80.041z" fill="#E7E7E8"/>			<path clip-path="url(#SVGIDserver_data_4_)" d="M10.503,80.06c0.367,0.618,0.255,1.376-0.255,1.686     c-0.509,0.309-1.22,0.063-1.591-0.559c-0.37-0.619-0.254-1.377,0.251-1.687C9.422,79.191,10.132,79.438,10.503,80.06z" fill="#E8E8E9"/>			<path clip-path="url(#SVGIDserver_data_4_)" d="M10.464,80.083c0.351,0.595,0.243,1.322-0.243,1.62     C9.731,82,9.047,81.757,8.696,81.162c-0.355-0.595-0.243-1.312,0.244-1.61C9.426,79.255,10.109,79.488,10.464,80.083z" fill="#E9E9EA"/>			<path clip-path="url(#SVGIDserver_data_4_)" d="M10.426,80.106c0.336,0.567,0.236,1.259-0.235,1.545     c-0.467,0.285-1.116,0.06-1.456-0.513C8.399,80.571,8.5,79.88,8.97,79.594C9.434,79.309,10.085,79.536,10.426,80.106z" fill="#EAEAEB"/>			<path clip-path="url(#SVGIDserver_data_4_)" d="M10.387,80.135c0.32,0.539,0.224,1.199-0.22,1.475     c-0.448,0.266-1.074,0.046-1.398-0.489c-0.32-0.549-0.22-1.209,0.225-1.475C9.438,79.371,10.063,79.59,10.387,80.135z" fill="#EBEBEC"/>			<path clip-path="url(#SVGIDserver_data_4_)" d="M10.345,80.157c0.312,0.513,0.216,1.146-0.209,1.399     c-0.425,0.263-1.015,0.057-1.328-0.468c-0.305-0.514-0.208-1.138,0.216-1.401C9.449,79.426,10.04,79.634,10.345,80.157z" fill="#ECECED"/>			<path clip-path="url(#SVGIDserver_data_4_)" d="M10.31,80.177c0.293,0.493,0.205,1.087-0.201,1.338     c-0.402,0.242-0.969,0.042-1.259-0.446c-0.293-0.493-0.201-1.087,0.2-1.336C9.457,79.488,10.016,79.688,10.31,80.177z" fill="#EDEDEE"/>			<path clip-path="url(#SVGIDserver_data_4_)" d="M10.271,80.2c0.278,0.466,0.193,1.032-0.189,1.263     c-0.382,0.24-0.915,0.052-1.193-0.418c-0.278-0.466-0.193-1.031,0.189-1.263C9.46,79.552,9.994,79.732,10.271,80.2z" fill="#EEEEEF"/>			<path clip-path="url(#SVGIDserver_data_4_)" d="M10.233,80.221c0.258,0.441,0.181,0.974-0.182,1.199     c-0.359,0.22-0.864,0.039-1.124-0.394c-0.262-0.443-0.181-0.975,0.178-1.2C9.468,79.605,9.97,79.786,10.233,80.221z" fill="#EFEFF0"/>			<path clip-path="url(#SVGIDserver_data_4_)" d="M10.194,80.251c0.243,0.411,0.169,0.911-0.167,1.118     c-0.339,0.208-0.814,0.044-1.065-0.374c-0.247-0.412-0.169-0.912,0.17-1.119C9.472,79.668,9.947,79.842,10.194,80.251z" fill="#F0F0F1"/>			<path clip-path="url(#SVGIDserver_data_4_)" d="M10.155,80.271c0.232,0.392,0.163,0.86-0.158,1.056     c-0.32,0.195-0.764,0.035-0.996-0.352c-0.232-0.392-0.159-0.859,0.162-1.055C9.48,79.725,9.928,79.884,10.155,80.271z" fill="#F1F1F2"/>			<path clip-path="url(#SVGIDserver_data_4_)" d="M10.121,80.294c0.212,0.363,0.146,0.799-0.155,0.981     c-0.293,0.184-0.706,0.04-0.926-0.324c-0.211-0.364-0.147-0.798,0.151-0.981C9.484,79.786,9.901,79.939,10.121,80.294z" fill="#F2F2F3"/>			<path clip-path="url(#SVGIDserver_data_4_)" d="M10.078,80.314c0.201,0.339,0.139,0.746-0.135,0.918     c-0.278,0.173-0.665,0.031-0.861-0.301c-0.2-0.341-0.138-0.747,0.135-0.918C9.495,79.85,9.881,79.981,10.078,80.314z" fill="#F3F3F4"/>			<path clip-path="url(#SVGIDserver_data_4_)" d="M10.04,80.345c0.186,0.309,0.131,0.685-0.128,0.837     c-0.255,0.16-0.605,0.036-0.791-0.28c-0.186-0.311-0.132-0.685,0.124-0.838C9.5,79.903,9.854,80.037,10.04,80.345z" fill="#F4F4F5"/>			<path clip-path="url(#SVGIDserver_data_4_)" d="M10.001,80.364c0.17,0.285,0.12,0.627-0.116,0.774     c-0.232,0.141-0.56,0.023-0.729-0.258c-0.167-0.286-0.116-0.626,0.116-0.774C9.507,79.966,9.835,80.083,10.001,80.364z" fill="#F5F5F6"/>			<path clip-path="url(#SVGIDserver_data_4_)" d="M9.962,80.388c0.158,0.258,0.108,0.571-0.104,0.701     c-0.213,0.136-0.506,0.031-0.665-0.231c-0.155-0.258-0.104-0.571,0.104-0.7C9.515,80.021,9.808,80.135,9.962,80.388z" fill="#F6F6F6"/>			<path clip-path="url(#SVGIDserver_data_4_)" d="M9.928,80.408c0.135,0.237,0.096,0.521-0.097,0.637     c-0.189,0.117-0.459,0.02-0.598-0.207C9.094,80.6,9.136,80.318,9.329,80.2C9.518,80.083,9.789,80.181,9.928,80.408z" fill="#F7F7F7"/>			<path clip-path="url(#SVGIDserver_data_4_)" d="M9.889,80.439c0.12,0.206,0.081,0.454-0.089,0.556     c-0.169,0.113-0.405,0.027-0.529-0.18c-0.124-0.216-0.084-0.463,0.085-0.564C9.526,80.146,9.762,80.232,9.889,80.439z" fill="#F8F8F8"/>			<path clip-path="url(#SVGIDserver_data_4_)" d="M9.85,80.458c0.104,0.184,0.07,0.403-0.077,0.493     c-0.15,0.09-0.354,0.016-0.459-0.164c-0.112-0.184-0.078-0.403,0.07-0.493C9.53,80.204,9.743,80.278,9.85,80.458z" fill="#F9F9F9"/>			<path clip-path="url(#SVGIDserver_data_4_)" d="M9.808,80.481c0.093,0.156,0.066,0.35-0.062,0.42     c-0.127,0.077-0.305,0.02-0.394-0.138c-0.092-0.156-0.07-0.348,0.062-0.419C9.538,80.267,9.715,80.334,9.808,80.481z" fill="#FAFAFA"/>			<path clip-path="url(#SVGIDserver_data_4_)" d="M9.769,80.506c0.081,0.132,0.055,0.285-0.05,0.352     c-0.108,0.067-0.255,0.012-0.332-0.117c-0.074-0.133-0.055-0.286,0.05-0.353C9.549,80.33,9.696,80.376,9.769,80.506z" fill="#FBFBFB"/>			<path clip-path="url(#SVGIDserver_data_4_)" d="M9.731,80.533c0.066,0.102,0.042,0.227-0.039,0.282     c-0.085,0.046-0.205,0.008-0.266-0.094c-0.062-0.11-0.042-0.236,0.042-0.282C9.553,80.384,9.673,80.432,9.731,80.533z" fill="#FCFCFC"/>			<path clip-path="url(#SVGIDserver_data_4_)" d="M9.696,80.552c0.047,0.083,0.027,0.178-0.034,0.212     c-0.062,0.036-0.15,0.008-0.197-0.07C9.418,80.611,9.43,80.525,9.5,80.481C9.561,80.446,9.649,80.474,9.696,80.552z" fill="#FDFDFD"/>			<path clip-path="url(#SVGIDserver_data_4_)" d="M9.657,80.575c0.031,0.056,0.02,0.114-0.022,0.146     c-0.039,0.022-0.105,0.004-0.131-0.052c-0.031-0.047-0.023-0.114,0.019-0.137C9.565,80.502,9.623,80.529,9.657,80.575z" fill="#FEFEFE"/>			<path clip-path="url(#SVGIDserver_data_4_)" d="M9.619,80.6c0.012,0.031,0.008,0.058-0.012,0.07     c-0.023,0.012-0.05,0-0.069-0.024c-0.012-0.022-0.008-0.059,0.016-0.07C9.573,80.563,9.604,80.575,9.619,80.6z" fill="#FFFFFF"/>		</g>	</g>		<path d="M1.423,61.784c-0.018-1.429,0-0.961,0-2.935c0.654,1.635,17.661,13.746,24.931,10.428v-9.214   C18.17,62.957,2.32,51.177,1.423,49.748c-0.018-1.422,0-0.953,0-2.935c0.654,1.642,17.661,13.752,24.931,10.435v-9.214   C18.17,50.92,2.32,39.147,1.423,37.719c-0.018-1.422,0-0.961,0-2.935c0.654,1.643,17.661,13.752,24.931,10.435v-9.146   c-5.582,3.268-26.13-8.016-26.309-13.125c0-0.01,0-0.039,0-0.067v63.524h0.022c0.459,5.162,20.745,16.25,26.287,13.012V72.092   C18.17,74.985,2.32,63.206,1.423,61.784z M9.282,85.664c-2.148-1.256-3.878-4.29-3.872-6.776c0.006-2.502,1.75-3.504,3.899-2.248   c2.138,1.254,3.868,4.288,3.861,6.779C13.164,85.915,11.424,86.917,9.282,85.664z" fill="url(#SVGIDserver_data_5_)"/>	<g>		<path d="M56.223,45.667L56.223,45.667c-0.008-1.488-1.012-2.604-3.005-3.003    c-3.996-0.798-10.45,1.577-14.414,5.308c-1.985,1.865-2.97,3.718-2.962,5.198l0,0v13.453c0.008,1.483,1.093,2.933,3.087,3.33    c3.995,0.808,10.369-1.651,14.335-5.381c1.982-1.866,2.971-3.732,2.959-5.216V45.667z" fill="#808080"/>		<g>			<path d="M53.443,61.537c-4.067,3.832-10.683,6.271-14.775,5.446c-1.514-0.304-2.468-1.008-2.868-1.976v2.908l0,0     c0.008,1.529,1.016,2.688,3.021,3.113c4.009,0.859,10.487-1.523,14.469-5.325c1.993-1.905,2.981-3.798,2.973-5.327v-2.874     C55.868,58.75,54.93,60.141,53.443,61.537z" fill="#CCCCCC"/>		</g>		<g>			<path d="M53.443,56.544c-4.067,3.831-10.683,6.27-14.775,5.447c-1.514-0.306-2.468-1.019-2.868-1.976v2.908l0,0     c0.008,1.527,1.016,2.688,3.021,3.113c4.009,0.859,10.487-1.524,14.469-5.327c1.993-1.904,2.981-3.798,2.973-5.325V52.51     C55.868,53.748,54.93,55.146,53.443,56.544z" fill="#CCCCCC"/>		</g>		<g>			<path d="M53.443,51.288c-4.067,3.83-10.683,6.269-14.775,5.446c-1.514-0.305-2.868-1.464-2.864-3.287L35.8,57.673     l0,0c0.008,1.521,1.016,2.682,3.021,3.108c4.009,0.857,10.487-1.525,14.469-5.327c1.993-1.905,2.981-3.798,2.973-5.328V45.91     C56.263,45.979,54.93,49.89,53.443,51.288z" fill="#CCCCCC"/>		</g>		<path d="M53.244,42.664c-4.01-0.965-10.488,1.419-14.47,5.327c-3.982,3.918-3.963,7.866,0.047,8.832    c4.009,0.968,10.487-1.424,14.469-5.333C57.272,47.58,57.253,43.632,53.244,42.664z M52.565,51.312    c-3.584,3.526-9.417,5.675-13.023,4.805c-3.607-0.868-3.629-4.429-0.043-7.948c3.584-3.52,9.417-5.668,13.022-4.797    C56.128,44.242,56.15,47.796,52.565,51.312z" fill="#808080"/>	</g></g></symbol></defs><g transform='translate(1075.6,147.0) rotate(0 38.4 60.0)'><use xlink:href='#com.gliffy.newnetwork.business.Server_Database' width='76.8' height='120.0'  fill="#003366"/><g  transform='translate(0.0,137.0)'><text x='38.4' style='text-anchor: middle' y='-2.0'><tspan xml:space='preserve' font-size='12' font-family='Arial' fill='#000000' font-weight='bold' >master-log.host</tspan></text></g></g><defs><linearGradient gradientUnits="userSpaceOnUse" id="SVGIDmainframe_1_" x1="11.5972" x2="11.5972" xlink:actuate="onLoad" xlink:show="other" xlink:type="simple" xmlns:xlink="http://www.w3.org/1999/xlink" y1="100" y2="19.7744">		<stop offset="0" style="stop-color:#000000"/>		<stop offset="0.0439" style="stop-color:#1F1F1F"/>		<stop offset="0.1106" style="stop-color:#474747"/>		<stop offset="0.1837" style="stop-color:#6B6B6B"/>		<stop offset="0.2626" style="stop-color:#898989"/>		<stop offset="0.3491" style="stop-color:#A1A1A1"/>		<stop offset="0.4463" style="stop-color:#B4B4B4"/>		<stop offset="0.5602" style="stop-color:#C1C1C1"/>		<stop offset="0.7066" style="stop-color:#C9C9C9"/>		<stop offset="1" style="stop-color:#CBCBCB"/>		<a:midPointStop offset="0" style="stop-color:#000000"/>		<a:midPointStop offset="0.1718" style="stop-color:#000000"/>		<a:midPointStop offset="1" style="stop-color:#CBCBCB"/>	</linearGradient><linearGradient gradientUnits="userSpaceOnUse" id="SVGIDmainframe_2_" x1="8.6157" x2="8.6157" xlink:actuate="onLoad" xlink:show="other" xlink:type="simple" xmlns:xlink="http://www.w3.org/1999/xlink" y1="93.2354" y2="26.4668">		<stop offset="0" style="stop-color:#000000"/>		<stop offset="0.056" style="stop-color:#1C1C1C"/>		<stop offset="0.1355" style="stop-color:#3C3C3C"/>		<stop offset="0.2178" style="stop-color:#555555"/>		<stop offset="0.3032" style="stop-color:#676767"/>		<stop offset="0.3935" style="stop-color:#727272"/>		<stop offset="0.4969" style="stop-color:#757575"/>		<stop offset="0.6735" style="stop-color:#737373"/>		<stop offset="0.7585" style="stop-color:#6B6B6B"/>		<stop offset="0.8239" style="stop-color:#5E5E5E"/>		<stop offset="0.8793" style="stop-color:#4C4C4C"/>		<stop offset="0.9284" style="stop-color:#343434"/>		<stop offset="0.9723" style="stop-color:#171717"/>		<stop offset="1" style="stop-color:#000000"/>		<a:midPointStop offset="0" style="stop-color:#000000"/>		<a:midPointStop offset="0.2658" style="stop-color:#000000"/>		<a:midPointStop offset="0.4969" style="stop-color:#757575"/>		<a:midPointStop offset="0.8333" style="stop-color:#757575"/>		<a:midPointStop offset="1" style="stop-color:#000000"/>	</linearGradient><linearGradient gradientUnits="userSpaceOnUse" id="SVGIDmainframe_3_" x1="18.8589" x2="18.8589" xlink:actuate="onLoad" xlink:show="other" xlink:type="simple" xmlns:xlink="http://www.w3.org/1999/xlink" y1="88.4873" y2="31.6895">		<stop offset="0" style="stop-color:#000000"/>		<stop offset="0.056" style="stop-color:#1C1C1C"/>		<stop offset="0.1355" style="stop-color:#3C3C3C"/>		<stop offset="0.2178" style="stop-color:#555555"/>		<stop offset="0.3032" style="stop-color:#676767"/>		<stop offset="0.3935" style="stop-color:#727272"/>		<stop offset="0.4969" style="stop-color:#757575"/>		<stop offset="0.6735" style="stop-color:#737373"/>		<stop offset="0.7585" style="stop-color:#6B6B6B"/>		<stop offset="0.8239" style="stop-color:#5E5E5E"/>		<stop offset="0.8793" style="stop-color:#4C4C4C"/>		<stop offset="0.9284" style="stop-color:#343434"/>		<stop offset="0.9723" style="stop-color:#171717"/>		<stop offset="1" style="stop-color:#000000"/>		<a:midPointStop offset="0" style="stop-color:#000000"/>		<a:midPointStop offset="0.2658" style="stop-color:#000000"/>		<a:midPointStop offset="0.4969" style="stop-color:#757575"/>		<a:midPointStop offset="0.8333" style="stop-color:#757575"/>		<a:midPointStop offset="1" style="stop-color:#000000"/>	</linearGradient><symbol id="com.gliffy.newnetwork.business.Mainframe" viewBox="0 0 58 100" preserveAspectRatio="none"><g id="Layer_0">	<rect fill="none" height="100" width="58"/>	<polygon points="8.366,29.038 11.404,29.104 14.554,32.963 14.554,91.631 8.34,91.211  "/></g><g id="Layer_1">	<rect fill="none" height="100" width="58"/>	<polygon fill="#5F5F5F" points="58,13.28 58,79.837 40.604,89.842 40.604,23.142  "/>	<polygon fill="#707070" points="40.604,23.142 40.604,89.842 23.194,100 23.194,33.3  "/>	<polygon fill="#878787" points="0,19.774 34.836,0 58,13.28 23.194,33.3  "/>		<path d="M0,19.774V86.66L23.194,100V33.3L0,19.774z M13.036,83.212l-1.604-1.301v9.542l-1.668-0.131V29.104   h1.641l1.631,1.999V83.212z" fill="url(#SVGIDmainframe_1_)"/>	<polygon fill="#3B3B3B" points="2.899,21.465 2.899,88.328 5.799,93.18 5.799,26.479  "/>		<polygon fill="url(#SVGIDmainframe_2_)" points="8.408,91.094 8.366,29.038 11.404,29.104 11.42,26.467 5.799,26.479 5.799,93.18    11.432,93.235 11.432,91.288  "/>	<polygon fill="#505050" points="14.554,32.963 14.554,84.445 11.432,81.911 11.432,84.368 16.282,88.428 16.282,32.133    11.42,26.467 11.404,29.104  "/>		<polygon fill="url(#SVGIDmainframe_3_)" points="21.435,32.211 21.349,87.723 16.282,88.487 16.282,31.689  "/>	<polygon fill="#676767" points="11.42,26.467 2.899,21.465 5.799,26.479  "/>	<polygon fill="#676767" points="21.435,32.211 11.404,26.479 16.282,32.133  "/>	<polygon fill="#171717" points="8.408,91.094 8.407,89.599 11.432,91.288  "/>	<polygon fill="#2A2A2A" points="11.448,81.937 14.554,84.445 14.554,82.786  "/></g></symbol></defs><g transform='translate(19.200000000000003,276.0) rotate(0 34.8 60.0)'><use xlink:href='#com.gliffy.newnetwork.business.Mainframe' width='69.6' height='120.0'  fill="#003366"/><g  transform='translate(0.0,137.0)'><text x='34.8' style='text-anchor: middle' y='-2.0'><tspan xml:space='preserve' font-size='12' font-family='Arial' fill='#000000' font-weight='bold' >source 2</tspan></text></g></g><g transform='translate(290.0,299.0)'><line x1='-1.519618503965649' y1='-1.3002921219499881' x2='-97.0' y2='-83.0' stroke-dasharray='23, 0' stroke='#333333' stroke-width='2' /><g transform='translate(0.0,0.0) rotate(220.5526151499095)'><path d='M9.0,-5.0 L2.0,0 L9.0,5.0 M0,0z' fill='none' stroke='#333333' stroke-width='2.0' /></g><g transform='translate(-56.09809251982824,-41.5)'></g></g><g transform='translate(266.0,343.0)'><line x1='-2.0' y1='4.898587196589413E-16' x2='-162.0' y2='0.0' stroke-dasharray='23, 0' stroke='#333333' stroke-width='2' /><g transform='translate(0.0,0.0) rotate(180.0)'><path d='M9.0,-5.0 L2.0,0 L9.0,5.0 M0,0z' fill='none' stroke='#333333' stroke-width='2.0' /></g><g transform='translate(-91.0,0.0)'></g></g><g transform='translate(280.0,399.0)'><line x1='-1.4632159202990658' y1='1.3634511984604942' x2='-88.0' y2='82.0' stroke-dasharray='23, 0' stroke='#333333' stroke-width='2' /><g transform='translate(0.0,0.0) rotate(137.02136494035602)'><path d='M9.0,-5.0 L2.0,0 L9.0,5.0 M0,0z' fill='none' stroke='#333333' stroke-width='2.0' /></g><g transform='translate(-37.658039800747666,36.0)'></g></g><g transform='translate(381.0,339.0)'><line x1='0.0' y1='0.0' x2='279.2073342431277' y2='-138.1132365117251' stroke-dasharray='23, 0' stroke='#333333' stroke-width='2' /><g transform='translate(281.0,-139.0) rotate(513.6801503766733)'><path d='M9.0,-5.0 L2.0,0 L9.0,5.0 M0,0z' fill='none' stroke='#333333' stroke-width='2.0' /></g><g transform='translate(146.01833560781927,-74.5)'><rect fill='#ffffff' x='-63.0' y='-9.0' width='126.0' height='14'/><text x='0.0' style='text-anchor: middle' y='2.0'><tspan font-size='12px' font-family='Arial' fill='#000000' >CC proxy forwarding</tspan></text></g></g><g transform='translate(382.0,347.0)'><line x1='0.0' y1='0.0' x2='280.2525630354675' y2='156.02713615804396' stroke-dasharray='23, 0' stroke='#333333' stroke-width='2' /><g transform='translate(282.0,157.0) rotate(209.1063306389028)'><path d='M9.0,-5.0 L2.0,0 L9.0,5.0 M0,0z' fill='none' stroke='#333333' stroke-width='2.0' /></g><g transform='translate(132.26281517733753,78.5)'><rect fill='#ffffff' x='-63.0' y='-9.0' width='126.0' height='14'/><text x='0.0' style='text-anchor: middle' y='2.0'><tspan font-size='12px' font-family='Arial' fill='#000000' >CC proxy forwarding</tspan></text></g></g><g transform='translate(766.0,172.0)'><line x1='0.0' y1='0.0' x2='177.17787518185247' y2='-80.17546307111759' stroke-dasharray='23, 0' stroke='#333333' stroke-width='2' /><g transform='translate(179.0,-81.0) rotate(515.6525839311136)'><path d='M9.0,-5.0 L2.0,0 L9.0,5.0 M0,0z' fill='none' stroke='#333333' stroke-width='2.0' /></g><g transform='translate(94.94468795463118,-45.5)'></g></g><g transform='translate(768.0,183.0)'><line x1='0.0' y1='0.0' x2='291.01256564191294' y2='32.776159270249586' stroke-dasharray='23, 0' stroke='#333333' stroke-width='2' /><g transform='translate(293.0,33.0) rotate(186.42602805549572)'><path d='M9.0,-5.0 L2.0,0 L9.0,5.0 M0,0z' fill='none' stroke='#333333' stroke-width='2.0' /></g><g transform='translate(136.56282820956486,16.5)'></g></g><g transform='translate(765.0,195.0)'><line x1='0.0' y1='0.0' x2='169.40336760833455' y2='127.79552293260326' stroke-dasharray='23, 0' stroke='#333333' stroke-width='2' /><g transform='translate(171.0,129.0) rotate(217.03038960567864)'><path d='M9.0,-5.0 L2.0,0 L9.0,5.0 M0,0z' fill='none' stroke='#333333' stroke-width='2.0' /></g><g transform='translate(77.51683804167274,64.5)'></g></g><g transform='translate(785.0,520.0)'><line x1='0.0' y1='0.0' x2='115.02586114994708' y2='-18.679413349136706' stroke-dasharray='23, 0' stroke='#333333' stroke-width='2' /><g transform='translate(117.0,-19.0) rotate(530.7760777178946)'><path d='M9.0,-5.0 L2.0,0 L9.0,5.0 M0,0z' fill='none' stroke='#333333' stroke-width='2.0' /></g><g transform='translate(63.564652874867704,-14.5)'></g></g><g transform='translate(786.0,528.0)'><line x1='0.0' y1='0.0' x2='109.00654190377065' y2='8.83836826246789' stroke-dasharray='23, 0' stroke='#333333' stroke-width='2' /><g transform='translate(111.0,9.0) rotate(184.63546342690265)'><path d='M9.0,-5.0 L2.0,0 L9.0,5.0 M0,0z' fill='none' stroke='#333333' stroke-width='2.0' /></g><g transform='translate(45.53270951885324,4.5)'></g></g><g transform='translate(784.0,541.0)'><line x1='0.0' y1='0.0' x2='104.07558790835127' y2='29.455355068401303' stroke-dasharray='23, 0' stroke='#333333' stroke-width='2' /><g transform='translate(106.0,30.0) rotate(195.80251395393552)'><path d='M9.0,-5.0 L2.0,0 L9.0,5.0 M0,0z' fill='none' stroke='#333333' stroke-width='2.0' /></g><g transform='translate(43.377939541756334,15.0)'></g></g><g transform='translate(916.0,499.0) rotate(0 85.0 41.0)'><g  transform='translate(0.0,8.0)'><text x='85.0' style='text-anchor: middle' y='-2.0'><tspan xml:space='preserve' font-size='12' font-family='Arial' fill='#000000' font-weight='bold' >perhaps the same set of</tspan></text><text x='85.0' style='text-anchor: middle' y='12.8'><tspan xml:space='preserve' font-size='12' font-family='Arial' fill='#000000' font-weight='bold' >hosts as above (if failover)</tspan></text><text x='85.0' style='text-anchor: middle' y='27.6'><tspan xml:space='preserve' font-size='12' font-family='Arial' fill='#000000' font-weight='bold' >or any other topology</tspan></text><text x='85.0' style='text-anchor: middle' y='42.400000000000006'><tspan xml:space='preserve' font-size='12' font-family='Arial' fill='#000000' font-weight='bold' >(then Proxy Dst configs</tspan></text><text x='85.0' style='text-anchor: middle' y='57.2'><tspan xml:space='preserve' font-size='12' font-family='Arial' fill='#000000' font-weight='bold' >will be different, of</tspan></text><text x='85.0' style='text-anchor: middle' y='72.0'><tspan xml:space='preserve' font-size='12' font-family='Arial' fill='#000000' font-weight='bold' >co</tspan><tspan xml:space='preserve' font-size='12' font-family='Arial' fill='#000000' font-weight='bold' >urse)</tspan></text></g></g></svg>